<svg width="428" height="489" viewBox="0 0 428 489" fill="none" xmlns="http://www.w3.org/2000/svg">
<path d="M284.725 33.2068H200.675V299.596H284.725V33.2068Z" fill="#F5F5F5"/>
<path d="M284.736 33.2068H242.706V298.868H284.736V33.2068Z" fill="#EBEBEB"/>
<path d="M239.951 7.05627H210.274V33.207H239.951V7.05627Z" fill="#F5F5F5"/>
<path d="M239.962 7.05627H232.887V33.207H239.962V7.05627Z" fill="#EBEBEB"/>
<path d="M193.666 33.2069V31.6862H287.194V33.2069" fill="#E0E0E0"/>
<path d="M224.39 44.6129H217.271V59.6113H224.39V44.6129Z" fill="#FAFAFA"/>
<path d="M242.706 65.5066C242.706 65.6609 233.295 65.7931 221.69 65.7931C210.086 65.7931 200.675 65.6609 200.675 65.5066C200.675 65.3523 210.086 65.2201 221.69 65.2201C233.295 65.2201 242.706 65.3523 242.706 65.5066Z" fill="#E0E0E0"/>
<path d="M266.785 44.6129H259.666V59.6113H266.785V44.6129Z" fill="#E0E0E0"/>
<path d="M285.1 65.5071C285.1 65.6614 275.689 65.7936 264.085 65.7936C252.481 65.7936 243.069 65.6614 243.069 65.5071C243.069 65.3528 252.481 65.2206 264.085 65.2206C275.689 65.2206 285.1 65.3528 285.1 65.5071Z" fill="#E0E0E0"/>
<path d="M266.785 74.3999H259.666V89.3983H266.785V74.3999Z" fill="#E0E0E0"/>
<path d="M285.1 95.2941C285.1 95.4484 275.689 95.5806 264.085 95.5806C252.481 95.5806 243.069 95.4484 243.069 95.2941C243.069 95.1398 252.481 95.0076 264.085 95.0076C275.689 95.0076 285.1 95.1398 285.1 95.2941Z" fill="#E0E0E0"/>
<path d="M266.785 105.08H259.666V120.079H266.785V105.08Z" fill="#E0E0E0"/>
<path d="M285.1 125.975C285.1 126.129 275.689 126.261 264.085 126.261C252.481 126.261 243.069 126.129 243.069 125.975C243.069 125.82 252.481 125.688 264.085 125.688C275.689 125.688 285.1 125.82 285.1 125.975Z" fill="#E0E0E0"/>
<path d="M266.785 135.771H259.666V150.77H266.785V135.771Z" fill="#E0E0E0"/>
<path d="M285.1 156.666C285.1 156.82 275.689 156.952 264.085 156.952C252.481 156.952 243.069 156.82 243.069 156.666C243.069 156.511 252.481 156.379 264.085 156.379C275.689 156.379 285.1 156.511 285.1 156.666Z" fill="#E0E0E0"/>
<path d="M266.785 165.581H259.666V180.579H266.785V165.581Z" fill="#E0E0E0"/>
<path d="M285.1 186.464C285.1 186.618 275.689 186.75 264.085 186.75C252.481 186.75 243.069 186.618 243.069 186.464C243.069 186.309 252.481 186.177 264.085 186.177C275.689 186.177 285.1 186.309 285.1 186.464Z" fill="#E0E0E0"/>
<path d="M266.785 195.5H259.666V210.498H266.785V195.5Z" fill="#E0E0E0"/>
<path d="M266.785 225.827H259.666V240.826H266.785V225.827Z" fill="#E0E0E0"/>
<path d="M285.1 216.395C285.1 216.549 275.689 216.681 264.085 216.681C252.481 216.681 243.069 216.549 243.069 216.395C243.069 216.24 252.481 216.108 264.085 216.108C275.689 216.108 285.1 216.24 285.1 216.395Z" fill="#E0E0E0"/>
<path d="M224.39 74.8517H217.271V89.85H224.39V74.8517Z" fill="#FAFAFA"/>
<path d="M242.706 95.7466C242.706 95.9009 233.295 96.0331 221.69 96.0331C210.086 96.0331 200.675 95.9009 200.675 95.7466C200.675 95.5923 210.086 95.4601 221.69 95.4601C233.295 95.4601 242.706 95.5923 242.706 95.7466Z" fill="#E0E0E0"/>
<path d="M224.39 105.091H217.271V120.09H224.39V105.091Z" fill="#FAFAFA"/>
<path d="M242.706 125.985C242.706 126.14 233.295 126.272 221.69 126.272C210.086 126.272 200.675 126.14 200.675 125.985C200.675 125.831 210.086 125.699 221.69 125.699C233.295 125.699 242.706 125.831 242.706 125.985Z" fill="#E0E0E0"/>
<path d="M224.39 135.33H217.271V150.328H224.39V135.33Z" fill="#FAFAFA"/>
<path d="M242.706 156.225C242.706 156.379 233.295 156.511 221.69 156.511C210.086 156.511 200.675 156.379 200.675 156.225C200.675 156.07 210.086 155.938 221.69 155.938C233.295 155.938 242.706 156.07 242.706 156.225Z" fill="#E0E0E0"/>
<path d="M224.39 165.581H217.271V180.579H224.39V165.581Z" fill="#FAFAFA"/>
<path d="M242.706 186.464C242.706 186.618 233.295 186.75 221.69 186.75C210.086 186.75 200.675 186.618 200.675 186.464C200.675 186.309 210.086 186.177 221.69 186.177C233.295 186.177 242.706 186.309 242.706 186.464Z" fill="#E0E0E0"/>
<path d="M224.39 195.82H217.271V210.818H224.39V195.82Z" fill="#FAFAFA"/>
<path d="M242.706 216.702C242.706 216.857 233.295 216.989 221.69 216.989C210.086 216.989 200.675 216.857 200.675 216.702C200.675 216.548 210.086 216.416 221.69 216.416C233.295 216.416 242.706 216.548 242.706 216.702Z" fill="#E0E0E0"/>
<path d="M224.39 226.058H217.271V241.057H224.39V226.058Z" fill="#FAFAFA"/>
<path d="M382.474 147.651H283.138V462.462H382.474V147.651Z" fill="#F5F5F5"/>
<path d="M382.473 151.783H332.806V462.473H382.473V151.783Z" fill="#EBEBEB"/>
<path d="M329.566 120.873H294.489V151.784H329.566V120.873Z" fill="#F5F5F5"/>
<path d="M329.566 120.873H321.202V151.784H329.566V120.873Z" fill="#EBEBEB"/>
<path d="M274.862 151.784V149.977H385.383V151.784" fill="#E0E0E0"/>
<path d="M311.162 165.261H302.754V182.992H311.162V165.261Z" fill="#FAFAFA"/>
<path d="M332.806 189.946C332.806 190.134 321.687 190.288 307.978 190.288C294.269 190.288 283.138 190.134 283.138 189.946C283.138 189.759 294.258 189.605 307.978 189.605C321.698 189.605 332.806 189.759 332.806 189.946Z" fill="#E0E0E0"/>
<path d="M361.26 165.261H352.852V182.992H361.26V165.261Z" fill="#E0E0E0"/>
<path d="M382.903 189.946C382.903 190.133 371.784 190.287 358.075 190.287C344.366 190.287 333.236 190.133 333.236 189.946C333.236 189.758 344.355 189.604 358.075 189.604C371.795 189.604 382.903 189.758 382.903 189.946Z" fill="#E0E0E0"/>
<path d="M361.26 200.459H352.852V218.19H361.26V200.459Z" fill="#E0E0E0"/>
<path d="M382.903 225.144C382.903 225.332 371.784 225.486 358.075 225.486C344.366 225.486 333.236 225.332 333.236 225.144C333.236 224.957 344.355 224.803 358.075 224.803C371.795 224.803 382.903 224.957 382.903 225.144Z" fill="#E0E0E0"/>
<path d="M361.26 236.716H352.852V254.447H361.26V236.716Z" fill="#E0E0E0"/>
<path d="M382.903 261.412C382.903 261.599 371.784 261.753 358.075 261.753C344.366 261.753 333.236 261.599 333.236 261.412C333.236 261.224 344.355 261.07 358.075 261.07C371.795 261.07 382.903 261.224 382.903 261.412Z" fill="#E0E0E0"/>
<path d="M361.26 272.983H352.852V290.714H361.26V272.983Z" fill="#E0E0E0"/>
<path d="M382.903 297.667C382.903 297.855 371.784 298.009 358.075 298.009C344.366 298.009 333.236 297.855 333.236 297.667C333.236 297.48 344.355 297.326 358.075 297.326C371.795 297.326 382.903 297.48 382.903 297.667Z" fill="#E0E0E0"/>
<path d="M361.26 308.203H352.852V325.934H361.26V308.203Z" fill="#E0E0E0"/>
<path d="M382.903 332.888C382.903 333.075 371.784 333.229 358.075 333.229C344.366 333.229 333.236 333.075 333.236 332.888C333.236 332.7 344.355 332.546 358.075 332.546C371.795 332.546 382.903 332.7 382.903 332.888Z" fill="#E0E0E0"/>
<path d="M361.26 343.577H352.852V361.309H361.26V343.577Z" fill="#E0E0E0"/>
<path d="M361.26 379.404H352.852V397.135H361.26V379.404Z" fill="#E0E0E0"/>
<path d="M382.903 368.262C382.903 368.449 371.784 368.604 358.075 368.604C344.366 368.604 333.236 368.449 333.236 368.262C333.236 368.075 344.355 367.92 358.075 367.92C371.795 367.92 382.903 368.075 382.903 368.262Z" fill="#E0E0E0"/>
<path d="M311.162 200.999H302.754V218.731H311.162V200.999Z" fill="#FAFAFA"/>
<path d="M332.806 225.684C332.806 225.872 321.687 226.026 307.978 226.026C294.269 226.026 283.138 225.872 283.138 225.684C283.138 225.497 294.258 225.343 307.978 225.343C321.698 225.343 332.806 225.497 332.806 225.684Z" fill="#E0E0E0"/>
<path d="M311.162 236.727H302.754V254.458H311.162V236.727Z" fill="#FAFAFA"/>
<path d="M332.806 261.423C332.806 261.61 321.687 261.764 307.978 261.764C294.269 261.764 283.138 261.61 283.138 261.423C283.138 261.235 294.258 261.081 307.978 261.081C321.698 261.081 332.806 261.235 332.806 261.423Z" fill="#E0E0E0"/>
<path d="M311.162 272.465H302.754V290.196H311.162V272.465Z" fill="#FAFAFA"/>
<path d="M332.806 297.161C332.806 297.349 321.687 297.503 307.978 297.503C294.269 297.503 283.138 297.349 283.138 297.161C283.138 296.974 294.258 296.82 307.978 296.82C321.698 296.82 332.806 296.974 332.806 297.161Z" fill="#E0E0E0"/>
<path d="M311.162 308.202H302.754V325.934H311.162V308.202Z" fill="#FAFAFA"/>
<path d="M332.806 332.888C332.806 333.076 321.687 333.23 307.978 333.23C294.269 333.23 283.138 333.076 283.138 332.888C283.138 332.701 294.258 332.547 307.978 332.547C321.698 332.547 332.806 332.701 332.806 332.888Z" fill="#E0E0E0"/>
<path d="M311.162 343.941H302.754V361.672H311.162V343.941Z" fill="#FAFAFA"/>
<path d="M332.806 368.626C332.806 368.814 321.687 368.968 307.978 368.968C294.269 368.968 283.138 368.814 283.138 368.626C283.138 368.439 294.258 368.285 307.978 368.285C321.698 368.285 332.806 368.439 332.806 368.626Z" fill="#E0E0E0"/>
<path d="M311.162 379.679H302.754V397.411H311.162V379.679Z" fill="#FAFAFA"/>
<path d="M307.824 462.462H178.536L177.974 258.128H307.262L307.824 462.462Z" fill="#F5F5F5"/>
<path d="M307.261 258.128H242.618V462.462H307.261V258.128Z" fill="#EBEBEB"/>
<path d="M238.397 217.904H192.741V258.128H238.397V217.904Z" fill="#F5F5F5"/>
<path d="M238.386 217.904H227.509V258.128H238.386V217.904Z" fill="#EBEBEB"/>
<path d="M311.041 255.78H167.196V258.127H311.041V255.78Z" fill="#E0E0E0"/>
<path d="M214.439 275.671H203.496V298.747H214.439V275.671Z" fill="white"/>
<path d="M242.618 307.806C242.618 308.048 228.148 308.247 210.296 308.247C192.443 308.247 177.974 308.048 177.974 307.806C177.974 307.564 192.443 307.365 210.296 307.365C228.148 307.365 242.618 307.564 242.618 307.806Z" fill="#E0E0E0"/>
<path d="M279.645 275.672H268.702V298.748H279.645V275.672Z" fill="#F5F5F5"/>
<path d="M307.823 307.806C307.823 308.049 293.354 308.247 275.501 308.247C257.649 308.247 243.18 308.049 243.18 307.806C243.18 307.564 257.649 307.366 275.501 307.366C293.354 307.366 307.823 307.564 307.823 307.806Z" fill="#E0E0E0"/>
<path d="M279.645 321.493H268.702V344.569H279.645V321.493Z" fill="#F5F5F5"/>
<path d="M307.823 353.617C307.823 353.859 293.354 354.057 275.501 354.057C257.649 354.057 243.18 353.859 243.18 353.617C243.18 353.374 257.649 353.176 275.501 353.176C293.354 353.176 307.823 353.374 307.823 353.617Z" fill="#E0E0E0"/>
<path d="M279.645 368.681H268.702V391.757H279.645V368.681Z" fill="#F5F5F5"/>
<path d="M307.823 400.816C307.823 401.058 293.354 401.257 275.501 401.257C257.649 401.257 243.18 401.058 243.18 400.816C243.18 400.573 257.649 400.375 275.501 400.375C293.354 400.375 307.823 400.573 307.823 400.816Z" fill="#E0E0E0"/>
<path d="M279.645 415.88H268.702V438.956H279.645V415.88Z" fill="#F5F5F5"/>
<path d="M307.823 448.014C307.823 448.257 293.354 448.455 275.501 448.455C257.649 448.455 243.18 448.257 243.18 448.014C243.18 447.772 257.649 447.573 275.501 447.573C293.354 447.573 307.823 447.772 307.823 448.014Z" fill="#E0E0E0"/>
<path d="M214.439 322.187H203.496V345.263H214.439V322.187Z" fill="white"/>
<path d="M242.618 354.322C242.618 354.564 228.148 354.763 210.296 354.763C192.443 354.763 177.974 354.564 177.974 354.322C177.974 354.079 192.443 353.881 210.296 353.881C228.148 353.881 242.618 354.079 242.618 354.322Z" fill="#E0E0E0"/>
<path d="M214.439 368.703H203.496V391.779H214.439V368.703Z" fill="white"/>
<path d="M242.618 400.838C242.618 401.08 228.148 401.278 210.296 401.278C192.443 401.278 177.974 401.08 177.974 400.838C177.974 400.595 192.443 400.397 210.296 400.397C228.148 400.397 242.618 400.595 242.618 400.838Z" fill="#E0E0E0"/>
<path d="M214.439 415.219H203.496V438.295H214.439V415.219Z" fill="white"/>
<path d="M242.618 447.353C242.618 447.596 228.148 447.794 210.296 447.794C192.443 447.794 177.974 447.596 177.974 447.353C177.974 447.111 192.443 446.912 210.296 446.912C228.148 446.912 242.618 447.111 242.618 447.353Z" fill="#E0E0E0"/>
<path d="M97.0435 93.5208C98.0704 86.1303 87.5178 80.0605 79.5729 79.4201C75.7896 79.1133 71.8577 79.6869 68.2771 78.4596C60.5079 75.7916 57.4002 65.8798 49.8202 62.7182C44.1588 60.3569 37.6326 62.4647 32.1333 65.1861C26.6341 67.9209 21.2159 71.3493 15.0681 71.7362C9.73098 72.0697 3.93444 70.122 -0.740601 72.6967C-4.22662 74.6177 -6.05068 78.5797 -9.25295 80.9142C-12.3877 83.1954 -16.4817 83.689 -20.3731 83.8891C-24.2645 84.1026 -28.3044 84.1426 -31.8445 85.7434C-35.3846 87.3442 -38.3301 91.0528 -37.587 94.8281L97.0435 93.5208Z" fill="#F5F5F5"/>
<path d="M171.019 32.2616C171.57 28.2172 165.873 24.9001 161.586 24.5475C159.548 24.3822 157.421 24.6908 155.481 24.0185C151.282 22.5529 149.607 17.142 145.519 15.4118C142.455 14.1225 138.94 15.2686 135.965 16.7673C133 18.255 130.069 20.1395 126.752 20.3488C123.864 20.5362 120.735 19.4672 118.211 20.8778C116.327 21.9247 115.346 24.0957 113.616 25.374C111.919 26.6193 109.715 26.8838 107.61 27.005C105.505 27.1152 103.334 27.1372 101.417 28.0188C99.4991 28.9004 97.9122 30.9171 98.3199 32.9889L171.019 32.2726V32.2616Z" fill="#F5F5F5"/>
<path d="M269.65 115.697C269.65 115.697 266.667 112.482 265.216 113.248C263.765 114.014 262.727 116.1 262.152 117.299C261.517 118.629 262.898 119.667 263.472 119.466C264.047 119.254 265.437 117.662 265.437 117.662L268.178 119.889L268.269 123.638L268.108 124.736L265.709 124.112L265.216 121.28C265.034 120.252 263.765 119.748 263.019 120.474C262.727 120.756 262.515 121.199 262.465 121.874C262.303 124.313 262.515 128.556 265.276 129.866C268.037 131.176 272.985 132.627 272.985 132.627L275.253 134.965L284.665 133.04L282.841 128.969L281.964 116.412C281.964 116.412 284.856 111.202 284.655 109.459C284.453 107.716 283.254 102.536 283.254 102.536C283.254 102.536 281.793 101.972 281.491 103.574C281.188 105.186 281.652 109.489 281.652 109.489L279.183 113.671L276.684 99.8856C276.492 98.8275 275.061 98.5554 274.537 99.4926C274.295 99.9158 274.144 100.551 274.164 101.488C274.245 104.995 275.575 113.339 275.162 113.45C274.749 113.561 273.63 113.006 273.157 111.303C272.723 109.751 270.295 103.04 269.307 100.349C269.065 99.684 268.158 99.5329 267.745 100.107C267.211 100.843 266.798 102.143 267.362 104.41C268.047 107.182 269.519 112.714 269.65 113.379C269.781 114.034 269.65 115.677 269.65 115.677V115.697Z" fill="#FFBF9D"/>
<path d="M275.928 127.296C275.857 127.336 275.595 126.953 275.071 126.46C274.557 125.956 273.741 125.361 272.713 124.978C271.685 124.595 270.678 124.505 269.952 124.545C269.227 124.585 268.783 124.696 268.753 124.616C268.733 124.565 269.156 124.323 269.912 124.192C270.668 124.061 271.766 124.092 272.885 124.505C273.993 124.918 274.85 125.623 275.333 126.218C275.817 126.812 275.978 127.276 275.928 127.296Z" fill="#FF9A6C"/>
<path d="M251.319 416.899L266.767 440.803L273.54 463.235C274.023 464.847 275.787 465.714 277.359 465.119C278.246 464.787 278.951 464.061 279.143 463.134C280.362 457.45 284.584 431.32 283.778 430.1C282.448 428.085 270.295 407.87 270.295 407.87L251.309 416.889L251.319 416.899Z" fill="#263238"/>
<path d="M277.359 465.119L282.781 428.468L283.415 429.496C283.96 430.382 284.181 431.431 284.02 432.468C283.597 435.22 282.246 448.421 279.233 463.094C279.042 464.051 278.286 464.797 277.369 465.119H277.359Z" fill="#455A64"/>
<g opacity="0.6">
<path d="M274.144 427.773C273.791 428.569 274.164 429.607 274.94 429.99C275.716 430.373 276.784 430.01 277.147 429.224C277.51 428.438 277.107 427.178 276.291 426.886C275.474 426.594 274.255 427.088 274.084 427.944" fill="white"/>
</g>
<path d="M276.391 451.112C276.291 451.263 274.971 450.326 273.106 450.528C271.242 450.679 270.113 451.838 269.982 451.707C269.922 451.656 270.113 451.283 270.637 450.85C271.151 450.417 272.018 449.993 273.046 449.903C274.074 449.812 275.011 450.064 275.595 450.386C276.18 450.709 276.442 451.041 276.391 451.102V451.112Z" fill="white"/>
<path d="M276.663 455.425C276.613 455.596 275.353 455.294 273.872 455.707C272.391 456.09 271.443 456.987 271.312 456.856C271.171 456.776 272.018 455.546 273.711 455.103C275.394 454.639 276.744 455.284 276.663 455.425Z" fill="white"/>
<path d="M277.057 444.975C277.016 445.156 275.071 444.672 272.723 445.116C270.365 445.519 268.712 446.648 268.612 446.486C268.491 446.386 270.083 444.934 272.612 444.501C275.132 444.038 277.127 444.844 277.057 444.975Z" fill="white"/>
<path d="M272.965 437.316C272.985 437.498 271.302 437.76 269.529 438.777C267.735 439.765 266.626 441.055 266.475 440.934C266.334 440.853 267.292 439.291 269.226 438.233C271.141 437.155 272.975 437.165 272.975 437.326L272.965 437.316Z" fill="white"/>
<path d="M270.103 432.227C270.113 432.408 268.269 432.429 266.485 433.648C264.671 434.827 263.936 436.51 263.764 436.429C263.694 436.399 263.764 435.935 264.127 435.27C264.48 434.605 265.165 433.769 266.133 433.124C267.1 432.479 268.138 432.177 268.894 432.106C269.65 432.035 270.113 432.146 270.103 432.217V432.227Z" fill="white"/>
<path d="M191.046 265.366C191.046 266.323 198.131 354.601 200.851 360.365C203.562 366.13 257.113 432.096 257.113 432.096L279.455 416.698L232.001 347.92L230.67 283.495L219.666 258.231L191.036 265.366H191.046Z" fill="#263238"/>
<path d="M258.041 247.7C258.605 249.04 265.972 270.082 266.526 279.011C267.09 287.949 250.583 446.517 250.583 446.517L223.324 444.34L230.409 290.559L218.648 258.231L258.041 247.7Z" fill="#263238"/>
<path d="M227.436 281.883C227.436 281.883 227.436 281.983 227.436 282.195C227.446 282.417 227.466 282.719 227.476 283.102C227.526 283.918 227.597 285.107 227.687 286.639C227.889 289.753 228.181 294.288 228.554 300.052C229.33 311.631 230.439 328.128 231.769 347.94V348L231.809 348.051C242.884 364.124 255.975 383.13 269.962 403.416C273.106 407.971 276.2 412.455 279.233 416.849L279.304 416.476C271.524 421.837 264.036 427.007 256.962 431.884L257.305 431.935C240.869 411.488 226.78 393.963 216.794 381.528C211.795 375.34 207.825 370.422 205.084 367.036C203.723 365.363 202.675 364.074 201.95 363.187C201.597 362.763 201.325 362.441 201.134 362.199C200.952 361.977 200.841 361.877 200.841 361.877C200.841 361.877 200.922 361.998 201.093 362.229C201.285 362.471 201.537 362.804 201.879 363.237C202.585 364.134 203.623 365.444 204.953 367.137C207.664 370.543 211.594 375.501 216.542 381.719C226.498 394.185 240.536 411.76 256.902 432.247L257.053 432.438L257.254 432.297C264.329 427.43 271.826 422.27 279.606 416.909L279.828 416.758L279.677 416.536C276.643 412.143 273.55 407.648 270.405 403.093C256.408 382.817 243.287 363.832 232.192 347.768L232.232 347.889C230.822 328.087 229.642 311.591 228.816 300.022C228.393 294.258 228.05 289.723 227.818 286.619C227.698 285.087 227.607 283.908 227.536 283.092C227.506 282.709 227.476 282.407 227.456 282.185C227.435 281.983 227.425 281.883 227.415 281.883H227.436Z" fill="#455A64"/>
<path d="M229.078 431.098L229.643 451.777C229.643 451.777 208.813 459.294 208.541 463.124L248.679 463.466L249.122 431.209L229.078 431.088V431.098Z" fill="#263238"/>
<path d="M242.068 450.144C242.844 450.366 243.368 451.243 243.187 452.029C242.995 452.815 242.108 453.359 241.332 453.147C240.556 452.946 239.881 451.908 240.163 451.152C240.435 450.396 241.514 449.812 242.219 450.195" fill="#E0E0E0"/>
<path d="M248.679 463.477L248.598 460.222L210.143 461.109C210.143 461.109 208.349 461.875 208.541 463.134L248.679 463.477Z" fill="#455A64"/>
<path d="M228.998 451.565C228.998 451.756 229.985 451.857 230.943 452.492C231.92 453.106 232.404 453.963 232.585 453.882C232.767 453.842 232.484 452.673 231.305 451.917C230.136 451.151 228.947 451.373 228.988 451.555L228.998 451.565Z" fill="white"/>
<path d="M224.765 453.268C224.715 453.46 225.561 453.802 226.226 454.629C226.912 455.445 227.073 456.342 227.264 456.332C227.446 456.362 227.597 455.213 226.75 454.195C225.924 453.167 224.765 453.077 224.765 453.258V453.268Z" fill="white"/>
<path d="M222.337 458.287C222.518 458.327 222.8 457.35 222.306 456.272C221.823 455.193 220.896 454.76 220.815 454.921C220.704 455.082 221.289 455.667 221.682 456.554C222.095 457.43 222.145 458.267 222.337 458.287Z" fill="white"/>
<path d="M229.391 446.839C229.471 447.021 230.368 446.759 231.477 446.839C232.585 446.9 233.442 447.283 233.553 447.111C233.663 446.97 232.827 446.235 231.527 446.154C230.227 446.063 229.3 446.678 229.391 446.829V446.839Z" fill="white"/>
<path d="M214.637 105.407C216.824 105.135 218.628 103.039 218.578 100.832C218.527 98.6254 216.623 96.62 214.426 96.4487C215.423 94.7657 215.212 92.4681 213.932 90.9867C212.652 89.5154 210.395 88.9813 208.591 89.7371C208.057 87.8829 206.505 86.3612 204.641 85.8674C202.776 85.3736 200.67 85.9178 199.289 87.2682C196.79 85.9984 193.445 86.7341 191.711 88.941C189.807 89.0418 188.063 90.4929 187.61 92.3371C187.156 94.1813 188.023 96.2773 189.656 97.2548" fill="#263238"/>
<path d="M222.488 129.24C221.389 124.413 218.316 114.658 215.423 105.861C212.32 96.4081 202.474 90.9159 192.8 93.2539L191.842 93.4857C181.624 96.5895 178.55 107.009 181.936 117.137L192.336 153.134L216.945 150.413L215.171 143.197C215.171 143.197 224.765 139.247 222.488 129.25V129.24Z" fill="#FFBF9D"/>
<path d="M215.252 143.157C215.252 143.157 208.984 145.072 201.275 142.482C201.275 142.482 206.072 148.911 215.806 145.616L215.262 143.157H215.252Z" fill="#FF9A6C"/>
<path d="M213.257 115.575C213.468 116.321 213.005 117.107 212.229 117.339C211.453 117.57 210.657 117.157 210.455 116.411C210.244 115.666 210.707 114.88 211.483 114.648C212.259 114.416 213.055 114.829 213.257 115.575Z" fill="#263238"/>
<path d="M214.456 111.252C214.325 111.484 213.055 110.94 211.523 111.312C209.992 111.665 209.054 112.723 208.843 112.572C208.742 112.512 208.843 112.129 209.246 111.655C209.639 111.181 210.385 110.637 211.332 110.416C212.289 110.194 213.176 110.345 213.72 110.597C214.275 110.849 214.516 111.141 214.456 111.242V111.252Z" fill="#263238"/>
<path d="M199.733 118.982C199.945 119.727 199.481 120.513 198.705 120.745C197.929 120.977 197.133 120.564 196.931 119.818C196.72 119.072 197.183 118.286 197.959 118.054C198.735 117.823 199.531 118.236 199.733 118.982Z" fill="#263238"/>
<path d="M199.652 115.192C199.542 115.434 198.231 114.991 196.73 115.485C195.228 115.948 194.382 117.077 194.16 116.946C194.049 116.896 194.12 116.503 194.493 115.999C194.856 115.495 195.541 114.9 196.478 114.598C197.415 114.296 198.312 114.386 198.876 114.598C199.451 114.799 199.713 115.082 199.652 115.192Z" fill="#263238"/>
<path d="M207.765 125.189C207.734 125.108 208.651 124.705 210.143 124.141C210.526 124.01 210.879 123.839 210.879 123.556C210.899 123.254 210.637 122.871 210.334 122.458C209.74 121.601 209.115 120.704 208.46 119.757C205.83 115.908 203.834 112.703 203.986 112.592C204.137 112.491 206.394 115.525 209.024 119.374C209.659 120.322 210.274 121.239 210.858 122.105C211.11 122.518 211.493 122.962 211.433 123.587C211.403 123.909 211.161 124.181 210.929 124.312C210.697 124.453 210.475 124.504 210.284 124.564C208.752 125.018 207.795 125.259 207.765 125.179V125.189Z" fill="#263238"/>
<path d="M197.859 110.154C197.879 110.607 196.488 110.91 195.007 111.706C193.515 112.462 192.457 113.439 192.114 113.157C191.953 113.016 192.034 112.562 192.397 111.978C192.749 111.404 193.414 110.728 194.301 110.265C195.188 109.801 196.105 109.64 196.77 109.69C197.435 109.731 197.838 109.942 197.859 110.154Z" fill="#263238"/>
<path d="M213.307 107.03C213.065 107.433 211.836 107.272 210.425 107.503C209.004 107.685 207.865 108.199 207.533 107.876C207.382 107.715 207.503 107.332 207.966 106.909C208.42 106.486 209.236 106.062 210.203 105.921C211.171 105.78 212.068 105.952 212.622 106.224C213.186 106.496 213.408 106.838 213.307 107.03Z" fill="#263238"/>
<path d="M213.358 101.527C213.358 101.527 209.226 95.9244 205.86 95.1887C201.789 94.3019 201.184 98.6755 197.486 98.5445C193.777 98.4135 189.897 97.5569 186.995 101.094C183.821 104.964 186.139 106.586 186.965 111.071C190.311 129.23 188.265 135.095 185.292 126.872C184.97 125.975 182.218 125.854 180.898 122.035C179.185 117.087 177.502 110.98 177.774 107.11C177.996 103.845 179.225 101.336 181.765 98.2825C185.776 93.4554 192.477 91.7624 197.153 91.1175C201.829 90.4725 211.896 93.6066 213.358 101.517V101.527Z" fill="#263238"/>
<path d="M185.866 126.449C185.433 124.927 183.811 124.03 182.319 124.544C180.505 125.169 178.691 126.721 179.739 130.53C181.604 137.292 188.003 134.027 187.963 133.836C187.932 133.705 186.673 129.271 185.866 126.449Z" fill="#FFBF9D"/>
<path d="M185.786 131.699C185.786 131.699 185.695 131.81 185.514 131.961C185.342 132.102 185.03 132.254 184.637 132.223C183.851 132.153 182.934 131.185 182.571 129.976C182.39 129.361 182.349 128.747 182.44 128.202C182.511 127.648 182.732 127.215 183.075 127.054C183.407 126.872 183.72 127.013 183.861 127.185C184.002 127.346 184.002 127.497 184.032 127.497C184.052 127.507 184.143 127.346 184.012 127.084C183.952 126.953 183.821 126.822 183.629 126.731C183.428 126.64 183.176 126.64 182.934 126.731C182.42 126.913 182.087 127.517 181.997 128.122C181.876 128.726 181.896 129.432 182.107 130.117C182.521 131.468 183.569 132.546 184.627 132.566C185.141 132.566 185.494 132.304 185.655 132.092C185.816 131.871 185.816 131.709 185.786 131.699Z" fill="#FF9A6C"/>
<path d="M182.813 113.218C183.841 113.611 184.929 114.004 186.018 113.853C187.106 113.701 188.184 112.794 188.104 111.696C188.073 111.202 187.821 110.678 188.043 110.235C188.305 109.711 189.031 109.681 189.615 109.6C191.651 109.328 193.334 107.443 193.374 105.398C194.059 106.033 195.228 105.72 195.873 105.035C196.518 104.36 196.821 103.433 197.254 102.606C197.687 101.78 198.383 100.964 199.31 100.873C199.834 100.823 200.378 101.014 200.872 100.843C201.748 100.55 201.93 99.3915 201.849 98.4745C201.769 97.5575 201.627 96.4893 202.272 95.8241C202.867 95.2094 203.834 95.2497 204.691 95.1691C205.548 95.0885 206.565 94.6451 206.575 93.7885C206.575 93.335 206.293 92.942 205.971 92.6296C204.51 91.2188 202.01 91.0273 200.358 92.2165C199.148 90.1304 196.619 88.8808 194.231 89.1932C191.832 89.5056 189.716 91.37 189.091 93.6978C187.338 92.7405 185.111 92.6901 183.317 93.587C181.523 94.4738 180.213 96.2776 179.921 98.2528C178.157 98.2125 176.424 99.3109 175.698 100.923C174.973 102.536 175.305 104.551 176.505 105.851C175.446 106.849 174.691 108.32 175.003 109.731C175.315 111.152 177.029 112.22 178.298 111.525C178.016 112.754 178.822 114.135 180.032 114.498C181.241 114.85 182.672 114.135 183.095 112.946" fill="#263238"/>
<path d="M201.365 94.101C201.365 94.101 201.386 94.1413 201.396 94.2219C201.406 94.3025 201.436 94.4335 201.436 94.5947C201.446 94.9273 201.436 95.4211 201.255 96.0257C201.073 96.6203 200.741 97.3459 200.136 98.0009C199.541 98.6559 198.655 99.2606 197.536 99.4722L197.617 99.2908C197.969 99.8249 198.08 100.54 197.929 101.205C197.798 101.881 197.496 102.526 197.163 103.161C196.992 103.473 196.861 103.816 196.589 104.128C196.327 104.43 195.984 104.642 195.601 104.793C194.855 105.075 193.928 105.045 193.223 104.531L193.465 104.4C193.616 105.801 193.173 107.333 192.145 108.461C191.611 109.086 190.875 109.56 190.089 109.731C189.303 109.912 188.507 109.862 187.771 109.781L187.932 109.66C187.771 110.598 187.378 111.454 186.824 112.15C186.28 112.845 185.463 113.369 184.607 113.369C182.914 113.419 181.523 112.341 181.009 111.132L181.18 111.162C180.485 111.787 179.639 112.039 178.923 112.069C178.198 112.109 177.573 111.938 177.119 111.736C176.656 111.525 176.353 111.273 176.162 111.091C175.981 110.9 175.9 110.789 175.9 110.779C175.93 110.739 176.253 111.243 177.17 111.626C177.623 111.807 178.228 111.958 178.923 111.898C179.608 111.847 180.404 111.595 181.049 111.001L181.16 110.9L181.221 111.041C181.725 112.16 183.045 113.167 184.607 113.107C185.383 113.107 186.098 112.633 186.612 111.978C187.126 111.323 187.499 110.497 187.65 109.62L187.67 109.479H187.811C188.537 109.57 189.303 109.62 190.028 109.449C190.764 109.288 191.419 108.864 191.933 108.27C192.9 107.212 193.314 105.771 193.183 104.44L193.152 104.108L193.424 104.309C194.029 104.753 194.855 104.793 195.531 104.531C195.863 104.41 196.176 104.209 196.407 103.957C196.629 103.705 196.77 103.362 196.952 103.05C197.284 102.425 197.576 101.8 197.707 101.175C197.848 100.55 197.758 99.9257 197.445 99.442L197.355 99.2908L197.526 99.2606C198.584 99.0792 199.441 98.5148 200.025 97.9001C200.63 97.2753 200.962 96.5901 201.164 96.0157C201.537 94.8366 201.345 94.1211 201.396 94.1211L201.365 94.101Z" fill="#455A64"/>
<path d="M203.764 128.324C205.709 128.213 207.664 128.344 209.578 128.706L209.609 128.747C209.71 130.067 209.669 131.558 208.742 132.506C208.047 133.211 206.948 133.443 206.001 133.161C205.054 132.878 204.338 132.254 203.955 131.347C203.572 130.44 203.673 129.281 203.754 128.324H203.764Z" fill="#FF9A6C"/>
<path d="M207.674 132.999C207.654 132.909 206.928 133.372 205.83 132.939C205.296 132.727 204.731 132.304 204.379 131.639C204.016 130.974 203.865 130.127 203.915 129.23C203.925 129.029 203.945 128.737 203.986 128.616C204.026 128.565 203.945 128.616 204.016 128.596H204.318C204.751 128.626 205.165 128.646 205.578 128.666C206.324 128.696 207.039 128.716 207.714 128.737C208.934 128.767 209.689 128.747 209.689 128.676C209.689 128.606 208.944 128.495 207.734 128.384C207.059 128.323 206.354 128.263 205.608 128.203C205.195 128.172 204.782 128.142 204.348 128.112C204.227 128.112 204.147 128.092 203.996 128.092C203.834 128.061 203.542 128.263 203.522 128.444C203.441 128.757 203.451 128.938 203.421 129.2C203.371 130.158 203.542 131.115 203.986 131.861C204.409 132.616 205.104 133.09 205.719 133.271C206.334 133.473 206.888 133.402 207.22 133.292C207.563 133.171 207.704 133.03 207.684 133.009L207.674 132.999Z" fill="#263238"/>
<path d="M167.767 164.491L129.615 175.717L117.058 159.251C117.139 161.186 101.529 158.737 101.529 158.737C112.654 185.452 118.731 194.381 120.384 195.146C124.576 197.101 156.32 196.819 158.829 196.225C161.338 195.62 184.244 192.355 184.244 192.355L180.052 160.279L170.529 163.292C169.571 163.594 168.644 163.997 167.767 164.501V164.491Z" fill="#455A64"/>
<path d="M259.925 237.411C257.728 229.097 252.871 210.142 252.871 210.142L242.864 151.27L220.422 151.451L218.557 147.511C218.164 146.674 217.247 146.201 216.34 146.372L192.558 150.615C191.469 150.806 190.724 151.834 190.875 152.922L191.318 156.107L173.199 162.828L171.234 189.191L185.816 249.232L186.713 257.687C186.925 259.682 187.973 261.506 189.605 262.735L192.205 264.691L257.95 249.514L259.572 245.06C260.469 242.611 260.59 239.94 259.925 237.411Z" fill="#455A64"/>
<path d="M191.046 263.28L191.661 272.168L261.941 255.782L259.431 244.374L191.046 263.28Z" fill="#455A64"/>
<path d="M252.962 249.947C252.81 249.967 252.871 251.579 253.083 253.565C253.304 255.55 253.597 257.142 253.748 257.122C253.899 257.102 253.838 255.49 253.627 253.504C253.405 251.519 253.113 249.927 252.962 249.947Z" fill="#263238"/>
<path d="M241.786 252.537C241.635 252.567 241.816 254.2 242.189 256.185C242.562 258.17 242.975 259.752 243.126 259.732C243.277 259.702 243.096 258.069 242.723 256.084C242.35 254.099 241.937 252.517 241.786 252.537Z" fill="#263238"/>
<path d="M230.066 255.994C229.915 256.024 230.066 257.576 230.409 259.461C230.751 261.345 231.144 262.857 231.295 262.837C231.446 262.806 231.295 261.254 230.953 259.37C230.61 257.485 230.217 255.974 230.076 255.994H230.066Z" fill="#263238"/>
<path d="M215.433 259.41C215.282 259.44 215.484 261.194 215.887 263.33C216.28 265.466 216.723 267.18 216.875 267.149C217.026 267.119 216.824 265.366 216.421 263.229C216.028 261.093 215.585 259.38 215.433 259.41Z" fill="#263238"/>
<path d="M201.738 262.544C201.597 262.584 201.92 264.227 202.474 266.202C203.028 268.187 203.593 269.759 203.734 269.719C203.875 269.679 203.552 268.036 202.998 266.061C202.444 264.076 201.879 262.504 201.738 262.544Z" fill="#263238"/>
<path d="M242.854 151.28L245.393 151.33C248.477 151.39 251.5 152.237 254.161 153.799L276.331 166.738L270.95 134.632L288.444 131.054C288.444 131.054 298.723 172.805 298.693 179.426C298.632 192.768 288.373 197.363 278.105 194.209C275.041 193.272 238.4 176.594 238.4 176.594L242.854 151.29V151.28Z" fill="#455A64"/>
<path d="M252.377 213.991C252.528 213.971 250.906 201.465 248.749 186.056C246.603 170.648 244.738 158.172 244.587 158.193C244.436 158.213 246.059 170.719 248.215 186.137C250.362 201.545 252.226 214.021 252.377 214.001V213.991Z" fill="#263238"/>
<path d="M236.616 208.096C236.616 208.096 236.485 208.227 236.283 208.519C236.052 208.862 235.759 209.275 235.417 209.779C234.631 210.948 233.563 212.52 232.273 214.434C229.612 218.355 225.863 223.736 221.56 229.54C217.247 235.345 213.186 240.484 210.193 244.173C208.732 245.967 207.543 247.438 206.646 248.526L205.689 249.715C205.477 249.987 205.366 250.139 205.386 250.159C205.406 250.179 205.537 250.048 205.769 249.786C206.051 249.484 206.384 249.111 206.797 248.657C207.684 247.67 208.944 246.219 210.475 244.405C213.539 240.777 217.66 235.668 221.984 229.853C226.297 224.038 229.995 218.617 232.585 214.636C233.875 212.651 234.903 211.018 235.588 209.89C235.9 209.366 236.163 208.932 236.374 208.58C236.545 208.277 236.626 208.116 236.616 208.106V208.096Z" fill="#263238"/>
<path d="M228.927 193.816C228.927 193.816 228.605 194.25 228.121 195.086C227.587 196.013 226.891 197.192 226.065 198.623C224.332 201.606 221.913 205.718 219.132 210.192C216.35 214.666 213.74 218.657 211.826 221.529C210.919 222.9 210.153 224.049 209.568 224.935C209.034 225.742 208.762 226.205 208.792 226.225C208.823 226.245 209.155 225.832 209.74 225.056C210.324 224.29 211.151 223.152 212.138 221.741C214.133 218.919 216.804 214.949 219.585 210.474C222.367 205.99 224.745 201.848 226.398 198.805C227.224 197.283 227.879 196.044 228.302 195.187C228.736 194.32 228.957 193.837 228.927 193.816Z" fill="#263238"/>
<path d="M219.847 151.491C219.807 151.411 218.356 152.126 215.927 153.053C213.499 153.98 210.062 155.048 206.152 155.683C202.242 156.318 198.634 156.389 196.045 156.278C193.445 156.167 191.852 155.945 191.832 156.036C191.832 156.076 192.225 156.157 192.941 156.288C193.656 156.419 194.714 156.56 196.014 156.661C198.624 156.872 202.272 156.852 206.233 156.217C210.193 155.572 213.66 154.434 216.058 153.406C217.268 152.892 218.225 152.438 218.86 152.076C219.505 151.723 219.847 151.521 219.827 151.481L219.847 151.491Z" fill="#263238"/>
<g opacity="0.3">
<path d="M232.948 214.072C231.144 227.475 222.044 239.659 209.709 245.191L232.948 214.072Z" fill="black"/>
</g>
<path d="M169.027 177.43C168.876 177.471 170.66 185.281 173.008 194.874C175.356 204.478 177.371 212.227 177.522 212.197C177.663 212.157 175.89 204.347 173.542 194.753C171.194 185.16 169.178 177.4 169.027 177.44V177.43Z" fill="#263238"/>
<path d="M112.674 148.498C112.674 148.498 114.841 148.045 115.909 149.909C116.978 151.774 117.995 156.036 117.895 158.122C117.895 158.122 120.968 158.656 121.079 159.916C121.19 161.176 120.434 162.405 117.481 162.365C117.481 162.365 115.516 166.094 113.602 164.773C111.687 163.453 112.292 161.911 112.292 161.911C112.292 161.911 110.538 164.814 107.827 161.085C107.827 161.085 106.628 162.022 105.288 161.69C103.968 161.367 103.434 160.45 103.434 160.45C103.434 160.45 101.761 161.367 100.783 160.178C99.8057 158.989 96.591 154.041 96.0569 152.439C95.5228 150.836 96.0166 148.71 97.377 147.854C98.7375 146.997 101.015 147.793 101.015 147.793C101.015 147.793 103.151 145.556 105.761 147.34C105.761 147.34 109.591 143.943 112.664 148.488L112.674 148.498Z" fill="#FFBF9D"/>
<path d="M100.451 152.257C100.299 152.317 100.944 154.161 101.831 156.368C102.275 157.477 102.647 158.485 102.889 159.22C103.131 159.956 103.232 160.43 103.313 160.42C103.383 160.42 103.413 159.916 103.262 159.13C103.111 158.344 102.789 157.296 102.345 156.177C101.448 153.95 100.582 152.217 100.451 152.267V152.257Z" fill="#FF9A6C"/>
<path d="M104.713 151.229C104.572 151.269 105.086 153.526 105.913 156.268C106.739 159.009 107.676 161.145 107.817 161.084C107.958 161.034 107.243 158.837 106.426 156.106C105.6 153.375 104.854 151.189 104.703 151.229H104.713Z" fill="#FF9A6C"/>
<path d="M110.327 151.29C110.175 151.35 111.042 153.678 111.717 156.641C112.04 158.122 112.352 159.493 112.392 160.45C112.443 161.428 112.11 161.972 112.191 162.012C112.231 162.062 112.725 161.528 112.775 160.46C112.826 159.402 112.574 158.032 112.251 156.52C111.566 153.497 110.458 151.229 110.327 151.29Z" fill="#FF9A6C"/>
<path d="M116.726 151.965C116.554 152.015 117.29 154.394 117.572 157.387C117.703 158.878 117.673 160.269 117.602 161.226C117.522 162.194 117.129 162.687 117.189 162.738C117.229 162.798 117.784 162.335 117.975 161.287C118.157 160.269 118.237 158.888 118.106 157.336C117.804 154.243 116.826 151.925 116.716 151.965H116.726Z" fill="#FF9A6C"/>
<path d="M118.783 297.812C118.783 297.812 112.652 291.623 110.899 329.058C109.243 364.391 106.812 415.328 115.296 437.188C116.217 439.551 117.844 441.585 120.004 442.912C121.757 443.997 124.198 445.082 127.355 445.576C134.745 446.729 163.947 446.08 163.947 446.08C163.947 446.08 180.52 446.08 180.771 432.433C180.975 421.207 180.771 396.789 180.771 396.789L118.774 297.812H118.783Z" fill="#263238"/>
<g opacity="0.3">
<path d="M118.783 297.812C118.783 297.812 112.652 291.623 110.899 329.058C109.243 364.391 106.812 415.328 115.296 437.188C116.217 439.551 117.844 441.585 120.004 442.912C121.757 443.997 124.198 445.082 127.355 445.576C134.745 446.729 163.947 446.08 163.947 446.08C163.947 446.08 180.52 446.08 180.771 432.433C180.975 421.207 180.771 396.789 180.771 396.789L118.774 297.812H118.783Z" fill="black"/>
</g>
<path d="M208.976 233.043C208.976 233.043 207.116 239.368 203.3 240.027C199.474 240.685 169.342 241.605 169.342 241.605L166.398 247.669H160.722L156.596 223.348L160.112 224.074C161.313 224.326 162.32 225.14 162.805 226.273C163.337 227.522 164.509 228.384 165.856 228.52L208.986 233.034L208.976 233.043Z" fill="#263238"/>
<path d="M207.707 233.983C209.945 233.809 211.582 231.784 211.262 229.557C210.274 222.612 206.632 209.11 193.218 207.115C181.343 205.342 172.723 205.885 168.17 206.476C166.088 206.747 165.052 208.636 164.81 210.728C163.667 220.278 164.587 232.123 167.347 233.576C170.224 235.097 197.915 234.767 207.707 233.993V233.983Z" fill="#37F198"/>
<path d="M189.731 207.173C189.731 207.173 190.031 207.493 190.496 208.132C190.961 208.762 191.6 209.711 192.356 210.902C193.867 213.285 195.775 216.694 197.479 220.646C199.184 224.598 200.366 228.327 201.063 231.058C201.412 232.424 201.663 233.538 201.809 234.312C201.954 235.087 202.022 235.513 201.983 235.523C201.944 235.523 201.818 235.116 201.615 234.351C201.421 233.596 201.111 232.491 200.724 231.145C199.939 228.453 198.719 224.772 197.024 220.84C195.319 216.917 193.479 213.498 192.055 211.086C191.348 209.876 190.748 208.907 190.331 208.239C189.915 207.57 189.702 207.193 189.731 207.173Z" fill="#263238"/>
<path d="M202.167 323.159C202.167 323.159 208.298 316.969 210.051 354.404C211.707 389.738 214.138 440.674 205.654 462.535C204.734 464.898 203.107 466.932 200.947 468.259C199.194 469.344 196.753 470.429 193.595 470.923C186.205 472.075 157.003 471.426 157.003 471.426C157.003 471.426 140.431 471.426 140.179 457.779C139.976 446.554 140.179 422.136 140.179 422.136L202.177 323.159H202.167Z" fill="#263238"/>
<path d="M202.167 323.158C202.167 323.158 202.08 323.323 201.886 323.642C201.683 323.972 201.402 324.437 201.024 325.056C200.249 326.306 199.126 328.137 197.653 330.51C194.69 335.275 190.37 342.21 184.917 350.966C173.982 368.468 158.514 393.224 140.363 422.262L140.401 422.136C140.401 432.771 140.401 443.928 140.411 455.483C140.411 456.927 140.353 458.389 140.595 459.793C140.808 461.208 141.254 462.593 141.961 463.842C143.365 466.37 145.796 468.23 148.499 469.363C153.971 471.813 160.209 471.087 166.291 471.31C172.703 471.368 179.047 471.387 185.294 471.213C188.404 471.097 191.532 471.048 194.515 470.496C196.007 470.196 197.46 469.731 198.825 469.111C200.191 468.482 201.508 467.726 202.574 466.699C203.649 465.682 204.52 464.462 205.131 463.125C205.45 462.467 205.644 461.74 205.886 461.043C206.119 460.336 206.351 459.639 206.584 458.931C206.835 458.234 207.01 457.517 207.184 456.801C207.358 456.084 207.533 455.367 207.707 454.66C208.094 453.246 208.327 451.803 208.588 450.369C209.16 447.522 209.47 444.655 209.857 441.846C210.032 440.432 210.138 439.027 210.274 437.623C210.4 436.228 210.555 434.834 210.632 433.449C211.417 422.368 211.523 411.791 211.455 401.912C211.368 392.023 211.087 382.822 210.768 374.415C210.438 366.017 210.099 358.414 209.78 351.74C209.421 345.077 208.889 339.343 208.143 334.703C207.387 330.083 206.477 326.48 205.169 324.379C204.84 323.865 204.491 323.439 204.114 323.168C203.736 322.887 203.348 322.79 203.039 322.809C202.409 322.877 202.176 323.187 202.176 323.158C202.176 323.158 202.225 323.09 202.361 323.003C202.496 322.916 202.719 322.79 203.039 322.761C203.358 322.732 203.775 322.829 204.162 323.1C204.55 323.371 204.918 323.797 205.257 324.32C206.603 326.442 207.552 330.045 208.337 334.665C209.111 339.314 209.673 345.048 210.061 351.721C210.409 358.394 210.777 365.998 211.126 374.395C211.465 382.802 211.775 392.013 211.872 401.902C211.959 411.791 211.872 422.378 211.097 433.478C211.029 434.863 210.874 436.257 210.748 437.662C210.613 439.066 210.506 440.48 210.332 441.894C209.954 444.723 209.634 447.59 209.063 450.457C208.811 451.89 208.569 453.343 208.182 454.767C208.007 455.483 207.833 456.2 207.659 456.927C207.494 457.653 207.31 458.37 207.058 459.077C206.826 459.784 206.593 460.491 206.351 461.208C206.109 461.915 205.915 462.641 205.576 463.338C204.937 464.733 204.026 466.002 202.903 467.067C201.779 468.143 200.414 468.927 199.019 469.566C197.615 470.215 196.123 470.68 194.602 470.99C191.532 471.552 188.413 471.6 185.294 471.717C179.038 471.891 172.693 471.871 166.272 471.813C163.211 471.765 160.17 471.717 157.148 471.678C154.097 471.6 151.075 471 148.286 469.828C145.516 468.666 142.978 466.738 141.515 464.084C140.779 462.777 140.324 461.324 140.101 459.861C139.859 458.389 139.927 456.927 139.917 455.483C139.917 443.928 139.917 432.761 139.927 422.126V422.058L139.966 422C158.175 392.992 173.701 368.264 184.684 350.782C190.176 342.064 194.535 335.149 197.527 330.403C199.019 328.049 200.172 326.238 200.956 324.998C201.344 324.398 201.644 323.933 201.847 323.613C202.051 323.303 202.157 323.148 202.157 323.148L202.167 323.158Z" fill="#455A64"/>
<path d="M207.853 290.905L194.283 281.995C191.203 268.134 166.04 239.378 166.04 239.378C166.04 239.378 139.85 176.218 117.253 161.321C94.6563 146.425 -15.7018 148.304 -15.7018 148.304L-21.5423 148.391C-21.5423 148.391 -138.487 146.434 -161.083 161.321C-183.68 176.218 -209.87 239.378 -209.87 239.378C-209.87 239.378 -235.033 268.134 -238.113 281.995L-251.683 290.905C-254.424 292.707 -256.032 295.806 -255.915 299.09C-255.092 322.481 -250.588 415.356 -242.743 425.778C-235.227 435.754 -164.222 430.466 -144.918 430.437C-117.227 430.388 -31.0051 429.255 -31.0051 429.255L95.7121 428.945C110.086 427.405 189.14 437.071 198.893 425.778C207.417 415.908 211.242 322.481 212.066 299.09C212.182 295.806 210.574 292.707 207.833 290.905H207.853Z" fill="#37F198"/>
<path d="M111.132 165.554C110.56 164.556 109.514 163.927 108.371 163.869L-19.9344 158.367L-20.9418 158.328L-20.9611 158.416L-152.279 163.869C-153.432 163.917 -154.468 164.556 -155.039 165.554L-188.494 223.929C-189.627 225.895 -188.242 228.365 -185.975 228.423C-182.305 228.53 -176.852 228.588 -170.527 228.327C-160.241 227.9 -78.397 228.094 -35.199 228.239L-35.2184 228.327C-35.2184 228.327 -30.2109 228.307 -21.9587 228.278C-13.7066 228.307 -8.6991 228.327 -8.6991 228.327L-8.71848 228.239C34.4795 228.104 116.323 227.91 126.609 228.327C133.273 228.598 138.949 228.53 142.62 228.414C144.634 228.346 145.855 226.157 144.857 224.404L111.132 165.554Z" fill="#455A64"/>
<path d="M-176.038 217.334L132.547 216.501L135.046 222.632L-14.0552 223.61L-178.944 222.535L-176.038 217.334Z" fill="#F1BF37"/>
<g opacity="0.5">
<path d="M-176.038 217.334L131.665 216.501L135.046 222.632L-14.0552 223.61L-178.944 222.535L-176.038 217.334Z" fill="black"/>
</g>
<path d="M183.222 418.01C182.699 416.916 181.595 416.131 179.415 416.373C173.362 417.061 109.902 418.475 101.165 416.373C92.419 414.272 63.2846 381.205 50.9547 378.958C40.6105 377.069 -9.68706 376.062 -25.6296 376.517C-41.5819 376.052 -91.8794 377.069 -102.214 378.958C-114.544 381.214 -143.242 417.507 -151.989 419.608C-160.735 421.71 -224.631 417.061 -230.684 416.373C-232.873 416.121 -233.977 416.906 -234.491 418.01C-235.566 420.286 -233.823 422.911 -231.295 422.989C-217.783 423.366 -165.587 423.967 -155.824 423.793C-145.577 423.609 -40.7973 421.691 -23.2373 421.371C3.23358 421.536 93.6781 422.117 103.257 422.253C114.551 422.407 166.543 423.366 180.064 422.989C182.583 422.921 184.336 420.296 183.261 418.01H183.222Z" fill="#263238"/>
<path d="M-150.526 414.378C-150.526 414.378 -150.323 414.339 -149.993 414.126C-149.654 413.923 -149.18 413.594 -148.569 413.109C-147.359 412.16 -145.644 410.678 -143.475 408.702C-139.155 404.76 -133.034 398.91 -125.673 391.481C-123.832 389.622 -121.924 387.665 -119.948 385.592C-117.953 383.558 -116.074 381.234 -113.662 379.268C-111.251 377.33 -108.432 375.713 -105.333 374.589C-102.233 373.456 -98.8725 372.788 -95.405 372.526C-93.6713 372.4 -91.9085 372.4 -90.1457 372.381C-88.3732 372.362 -86.5814 372.342 -84.7702 372.333C-81.1477 372.294 -77.4575 372.265 -73.6898 372.226C-66.164 372.158 -58.3768 372.081 -50.3958 372.003C-18.472 371.742 10.4203 371.5 31.3607 371.325C41.8115 371.267 50.2671 371.209 56.1366 371.18C59.052 371.18 61.3184 371.17 62.8681 371.17C63.6236 371.17 64.2047 371.17 64.6212 371.17C65.0183 371.17 65.2217 371.19 65.2217 371.19C65.2217 371.19 65.0183 371.209 64.6212 371.219C64.2047 371.229 63.6236 371.238 62.8681 371.258C61.3087 371.287 59.0423 371.316 56.1366 371.364C50.2671 371.442 41.8115 371.538 31.3607 371.674C10.4203 371.887 -18.472 372.178 -50.3958 372.497C-58.3768 372.565 -66.164 372.643 -73.6898 372.71C-77.4478 372.739 -81.1477 372.778 -84.7702 372.807C-86.5814 372.827 -88.3732 372.836 -90.1457 372.856C-91.9182 372.875 -93.6616 372.875 -95.3759 372.991C-98.8047 373.253 -102.127 373.902 -105.178 375.006C-108.238 376.11 -111.018 377.689 -113.401 379.597C-115.774 381.515 -117.663 383.83 -119.677 385.864C-121.653 387.927 -123.581 389.873 -125.421 391.733C-132.811 399.143 -138.971 404.954 -143.339 408.857C-145.528 410.804 -147.262 412.267 -148.502 413.196C-149.112 413.661 -149.606 413.991 -149.955 414.175C-150.303 414.368 -150.516 414.378 -150.516 414.378H-150.526Z" fill="#263238"/>
<g opacity="0.3">
<path d="M-116.055 342.559C-59.3162 357.669 0.628242 353.872 58.9552 347.14C67.9628 346.104 77.755 344.603 83.8957 337.939" fill="black"/>
</g>
<path d="M95.4023 290.246C73.2416 287.118 26.6536 285.559 -19.5953 285.588C-65.8443 285.559 -112.442 287.118 -134.593 290.246C-141.538 291.225 -146.061 298.121 -144.075 304.852C-144.056 304.93 -144.027 305.007 -144.007 305.095C-141.586 313.056 -132.026 338.462 -116.81 342.268C-109.749 344.031 -69.9607 345.726 -27.4988 346.074V346.133C-24.8643 346.133 -22.2298 346.133 -19.5953 346.113C-16.9608 346.123 -14.3263 346.133 -11.6918 346.133V346.074C30.7603 345.735 70.5587 344.031 77.6195 342.268C92.8453 338.462 102.395 313.056 104.817 305.095C104.836 305.017 104.865 304.94 104.885 304.852C106.86 298.121 102.347 291.225 95.4023 290.246Z" fill="#263238"/>
<path d="M101.01 338.898C101.01 338.898 100.816 339.014 100.429 339.217C100.022 339.43 99.4412 339.721 98.6954 340.118C97.9205 340.515 96.981 340.99 95.8575 341.561C95.2957 341.842 94.6952 342.162 94.0365 342.462C93.3779 342.753 92.6709 343.072 91.9251 343.402C86.0072 346.162 77.1448 349.581 65.8513 352.584C54.5385 355.509 40.8043 358.008 25.4041 359.315C10.0136 360.739 -6.98468 361.049 -24.7966 360.981C-42.6182 360.894 -59.6165 360.09 -74.9489 358.056C-90.2715 356.07 -103.88 352.864 -114.96 349.145C-126.06 345.474 -134.622 341.358 -140.366 338.249C-141.819 337.493 -143.058 336.748 -144.153 336.118C-145.247 335.498 -146.148 334.936 -146.874 334.481C-147.591 334.026 -148.143 333.687 -148.531 333.445C-148.899 333.212 -149.083 333.077 -149.083 333.077C-149.083 333.077 -148.879 333.183 -148.502 333.406C-148.105 333.638 -147.552 333.968 -146.816 334.404C-146.08 334.849 -145.17 335.392 -144.066 336.002C-142.971 336.612 -141.722 337.348 -140.259 338.084C-134.496 341.135 -125.934 345.193 -114.834 348.816C-103.764 352.477 -90.1747 355.644 -74.8714 357.601C-59.5681 359.606 -42.5891 360.4 -24.7772 360.477C-6.97501 360.555 10.0136 360.255 25.375 358.86C40.7462 357.572 54.4707 355.121 65.7738 352.245C77.0673 349.29 85.92 345.93 91.8573 343.227C92.6031 342.908 93.3101 342.598 93.9784 342.317C94.6371 342.026 95.2376 341.707 95.7993 341.435C96.9229 340.883 97.8818 340.418 98.6566 340.041C99.4218 339.673 100.003 339.392 100.419 339.188C100.817 338.995 101.03 338.917 101.03 338.917L101.01 338.898Z" fill="#263238"/>
<path d="M103.741 302.615C103.741 302.751 48.4171 302.867 -19.828 302.867C-88.073 302.867 -143.407 302.751 -143.407 302.615C-143.407 302.48 -88.0924 302.363 -19.828 302.363C48.4364 302.363 103.741 302.48 103.741 302.615Z" fill="#455A64"/>
<path d="M103.741 295.089C103.741 295.225 48.4171 295.341 -19.828 295.341C-88.073 295.341 -143.407 295.225 -143.407 295.089C-143.407 294.954 -88.0924 294.837 -19.828 294.837C48.4364 294.837 103.741 294.954 103.741 295.089Z" fill="#455A64"/>
<path d="M68.7667 287.564C68.7667 287.7 29.1621 287.816 -19.6826 287.816C-68.5273 287.816 -108.142 287.7 -108.142 287.564C-108.142 287.429 -68.5467 287.312 -19.6826 287.312C29.1815 287.312 68.7667 287.429 68.7667 287.564Z" fill="#455A64"/>
<path d="M103.741 310.247C103.741 310.383 48.4171 310.499 -19.828 310.499C-88.073 310.499 -143.407 310.383 -143.407 310.247C-143.407 310.112 -88.0924 309.995 -19.828 309.995C48.4364 309.995 103.741 310.112 103.741 310.247Z" fill="#455A64"/>
<path d="M98.2498 317.88C98.2498 318.015 45.1241 318.132 -20.3993 318.132C-85.9227 318.132 -139.058 318.015 -139.058 317.88C-139.058 317.744 -85.942 317.628 -20.3993 317.628C45.1435 317.628 98.2498 317.744 98.2498 317.88Z" fill="#455A64"/>
<path d="M95.8479 325.512C95.8479 325.648 44.1556 325.764 -19.5953 325.764C-83.3462 325.764 -135.048 325.648 -135.048 325.512C-135.048 325.377 -83.3656 325.26 -19.5953 325.26C44.175 325.26 95.8479 325.377 95.8479 325.512Z" fill="#455A64"/>
<path d="M89.8814 333.145C89.8814 333.28 40.8527 333.397 -19.6051 333.397C-80.0629 333.397 -129.101 333.28 -129.101 333.145C-129.101 333.009 -80.0823 332.893 -19.6051 332.893C40.8721 332.893 89.8814 333.009 89.8814 333.145Z" fill="#455A64"/>
<path d="M82.4623 340.768C82.4623 340.903 37.0367 341.019 -18.9851 341.019C-75.0069 341.019 -120.442 340.903 -120.442 340.768C-120.442 340.632 -75.0263 340.516 -18.9851 340.516C37.056 340.516 82.4623 340.632 82.4623 340.768Z" fill="#455A64"/>
<path d="M91.9735 410.475C91.9735 410.611 40.0584 410.727 -23.9637 410.727C-87.9858 410.727 -139.911 410.611 -139.911 410.475C-139.911 410.339 -88.0052 410.223 -23.9637 410.223C40.0778 410.223 91.9735 410.339 91.9735 410.475Z" fill="#455A64"/>
<path d="M38.4119 418.921H31.6126L31.1283 410.475H38.9252L38.4119 418.921Z" fill="#455A64"/>
<path d="M88.3801 407.414C76.0793 396.818 59.5072 380.517 50.9838 378.958C40.6395 377.069 -9.65804 376.062 -25.6006 376.517C-41.5529 376.052 -91.8504 377.069 -102.185 378.958C-110.118 380.411 -124.83 395.956 -136.637 407.414H88.3994H88.3801Z" fill="#455A64"/>
<path d="M82.8108 403.589C82.8108 403.724 34.6829 403.84 -24.6804 403.84C-84.0437 403.84 -132.181 403.724 -132.181 403.589C-132.181 403.453 -84.0631 403.337 -24.6804 403.337C34.7023 403.337 82.8108 403.453 82.8108 403.589Z" fill="#263238"/>
<path d="M78.5977 398.726C78.5977 398.862 32.5327 398.978 -24.2639 398.978C-81.0605 398.978 -127.135 398.862 -127.135 398.726C-127.135 398.591 -81.0799 398.474 -24.2639 398.474C32.5521 398.474 78.5977 398.591 78.5977 398.726Z" fill="#263238"/>
<path d="M72.1955 393.747C72.1955 393.883 28.6294 393.999 -25.0968 393.999C-78.8231 393.999 -122.399 393.883 -122.399 393.747C-122.399 393.612 -78.8425 393.495 -25.0968 393.495C28.6488 393.495 72.1955 393.612 72.1955 393.747Z" fill="#263238"/>
<path d="M67.9241 388.769C67.9241 388.905 26.4308 389.021 -24.7481 389.021C-75.9271 389.021 -117.43 388.905 -117.43 388.769C-117.43 388.633 -75.9464 388.517 -24.7481 388.517C26.4502 388.517 67.9241 388.633 67.9241 388.769Z" fill="#263238"/>
<path d="M60.8148 384.023C60.8148 384.159 22.3434 384.275 -25.1066 384.275C-72.5565 384.275 -111.038 384.159 -111.038 384.023C-111.038 383.887 -72.5759 383.771 -25.1066 383.771C22.3628 383.771 60.8148 383.887 60.8148 384.023Z" fill="#263238"/>
<path d="M52.7563 379.287C52.7563 379.423 17.9946 379.539 -24.8644 379.539C-67.7234 379.539 -102.495 379.423 -102.495 379.287C-102.495 379.152 -67.7428 379.035 -24.8644 379.035C18.0139 379.035 52.7563 379.152 52.7563 379.287Z" fill="#263238"/>
<g opacity="0.3">
<path d="M-8.69911 228.326L-188.736 228.046C-188.736 228.046 -181.278 236.956 -167.563 236.879C-155.049 236.811 -33.2716 236.869 -11.8954 236.879C-11.8954 236.879 -11.3724 236.879 -10.4038 236.879C-9.28995 236.879 -8.69911 236.879 -8.69911 236.879C11.0305 236.869 115.829 236.811 126.658 236.879C138.62 236.956 144.489 228.326 144.489 228.326H-8.69911Z" fill="black"/>
</g>
<path d="M145.128 224.492L111.064 165.438C110.531 164.518 109.563 163.927 108.497 163.879L-8.69914 158.852L-19.9442 158.368C-21.2905 158.31 -22.6368 158.31 -23.9831 158.368L-35.2281 158.852L-152.424 163.879C-153.49 163.927 -154.458 164.508 -154.991 165.438L-189.056 224.492C-190.15 226.39 -188.997 228.802 -186.818 229.131C-186.334 229.199 -185.821 229.276 -185.268 229.334C-182.295 229.664 -63.4037 229.451 -21.9685 229.364C19.4764 229.451 138.368 229.664 141.331 229.334C141.874 229.276 142.397 229.209 142.881 229.131C145.051 228.802 146.213 226.4 145.119 224.492H145.128ZM129.447 222.012L-21.9588 223.039L-173.365 222.012C-175.757 221.993 -177.239 219.407 -176.038 217.344C-169.51 206.05 -153.112 177.787 -150.487 174.523C-145.722 168.605 -72.0142 167.821 -32.8067 167.831C-32.5743 167.889 -32.3321 167.918 -32.0803 167.918C-29.7848 167.898 -26.3173 167.879 -21.9588 167.86C-17.6003 167.879 -14.1328 167.898 -11.8373 167.918C-11.5855 167.918 -11.3433 167.889 -11.1109 167.831C28.0966 167.831 101.814 168.605 106.57 174.523C109.195 177.787 125.592 206.05 132.12 217.344C133.312 219.407 131.83 221.993 129.447 222.012Z" fill="#263238"/>
<path d="M16.4836 218.738C16.4836 215.367 17.7814 205.846 20.9002 203.308C23.3119 201.352 29.0168 200.761 31.8353 200.596C31.9225 200.596 32.0097 200.596 32.1065 200.596C33.5981 200.616 43.5743 200.877 46.5575 203.308C49.6763 205.846 50.9838 215.367 50.9741 218.738V218.835C50.9741 220.927 49.2792 222.622 47.1774 222.622H20.2707C18.1786 222.622 16.4739 220.927 16.4739 218.835V218.738H16.4836Z" fill="#263238"/>
<g opacity="0.3">
<path d="M16.4836 218.738C16.4836 215.367 17.7814 205.846 20.9002 203.308C23.3119 201.352 29.0168 200.761 31.8353 200.596C31.9225 200.596 32.0097 200.596 32.1065 200.596C33.5981 200.616 43.5743 200.877 46.5575 203.308C49.6763 205.846 50.9838 215.367 50.9741 218.738V218.835C50.9741 220.927 49.2792 222.622 47.1774 222.622H20.2707C18.1786 222.622 16.4739 220.927 16.4739 218.835V218.738H16.4836Z" fill="black"/>
</g>
<path d="M30.0725 216.259C30.0725 210.747 32.1937 195.163 37.3077 191.008C41.2594 187.802 50.5964 186.843 55.2067 186.572C55.352 186.572 55.4973 186.562 55.6426 186.572C58.0834 186.601 74.4134 187.037 79.3046 191.018C84.4186 195.173 86.5398 210.767 86.5398 216.268V216.433C86.5398 219.862 83.76 222.641 80.3313 222.641H36.281C32.8523 222.641 30.0725 219.862 30.0725 216.433V216.268V216.259Z" fill="#263238"/>
<g opacity="0.3">
<path d="M84.0312 377.408C84.0312 377.408 83.3048 381.815 93.62 396.392C96.7678 400.847 106.773 409.826 110.512 413.129C111.422 413.932 112.604 414.349 113.824 414.301C124.207 413.845 174.272 411.53 182.583 409.09C186.341 407.986 189.169 406.697 191.28 405.458C194.941 403.298 197.082 399.278 196.927 395.036C196.666 387.839 196.22 375.18 196.22 371.868C196.22 367.161 192.946 363.199 186.844 363.945C182.825 364.429 84.0312 377.418 84.0312 377.418V377.408ZM116.313 376.401L181.198 370.512L183.077 396.673L135.317 404.412L116.323 376.41L116.313 376.401Z" fill="black"/>
</g>
<g opacity="0.3">
<path d="M194.728 310.248C194.728 310.248 199.62 325.106 168.529 332.022C137.05 339.024 90.4722 351.713 90.4722 351.713L115.49 333.881C115.49 333.881 187.455 321.881 189.246 310.868C191.3 298.277 189.246 284.126 189.246 284.126L194.728 310.248Z" fill="black"/>
</g>
<path d="M73.2803 376.962C73.2803 376.962 73.3868 376.914 73.6096 376.846C73.8517 376.778 74.1714 376.681 74.5781 376.565C75.4692 376.323 76.7284 375.965 78.3265 375.519C81.6002 374.657 86.3365 373.427 92.2351 372.071C104.023 369.33 120.42 366.047 138.629 363.083C147.743 361.611 156.432 360.255 164.374 359.247C168.335 358.724 172.103 358.221 175.628 357.746C179.144 357.271 182.447 356.806 185.498 356.913C188.53 357 191.339 357.746 193.285 359.218C195.261 360.632 196.608 362.279 197.489 363.732C198.38 365.184 198.806 366.453 199 367.325C199.203 368.197 199.203 368.671 199.203 368.671C199.106 368.71 199.126 366.705 197.324 363.838C196.433 362.424 195.077 360.816 193.121 359.451C191.193 358.027 188.472 357.329 185.479 357.271C182.476 357.194 179.183 357.668 175.667 358.162C172.142 358.647 168.384 359.16 164.422 359.702C156.499 360.729 147.811 362.095 138.697 363.577C120.488 366.541 104.09 369.766 92.2932 372.42C86.3946 373.727 81.639 374.909 78.3556 375.703C76.7381 376.11 75.4692 376.43 74.5781 376.652C74.1617 376.749 73.8421 376.827 73.5902 376.885C73.3675 376.933 73.2512 376.953 73.2512 376.953L73.2803 376.962Z" fill="#263238"/>
<path d="M198.68 338.549C198.68 338.549 198.641 338.355 198.632 337.997C198.622 337.581 198.603 337.058 198.583 336.409C198.545 334.965 198.496 332.99 198.428 330.578C198.283 325.658 197.954 318.868 197.295 311.381C196.627 303.894 195.745 297.153 195.029 292.281C194.67 289.898 194.37 287.951 194.147 286.518C194.05 285.879 193.973 285.365 193.915 284.949C193.866 284.59 193.847 284.397 193.866 284.397C193.886 284.397 193.934 284.581 194.012 284.929C194.099 285.336 194.205 285.85 194.341 286.479C194.612 287.825 194.971 289.792 195.377 292.223C196.191 297.085 197.121 303.836 197.789 311.333C198.448 318.829 198.719 325.638 198.777 330.568C198.806 333.028 198.796 335.024 198.777 336.409C198.758 337.048 198.738 337.581 198.729 337.997C198.709 338.355 198.7 338.549 198.68 338.549Z" fill="#263238"/>
<path d="M177.062 271.621C176.965 271.621 176.946 269.936 176.442 267.253C175.948 264.58 174.989 260.938 173.74 256.967C172.49 252.996 171.202 249.451 170.272 246.894C169.827 245.693 169.459 244.676 169.158 243.862C168.897 243.145 168.771 242.738 168.8 242.729C168.829 242.719 169.023 243.097 169.342 243.785C169.652 244.482 170.098 245.499 170.602 246.768C171.628 249.305 172.965 252.841 174.214 256.821C175.473 260.802 176.384 264.483 176.791 267.195C176.917 267.863 176.946 268.493 177.013 269.035C177.081 269.577 177.101 270.042 177.101 270.43C177.101 271.195 177.101 271.621 177.062 271.621Z" fill="#263238"/>
<path d="M171.192 278.402C171.192 278.402 187.396 272.494 189.469 285.056C191.542 297.618 191.329 310.122 188.607 314.51C185.885 318.907 160.867 324.893 160.867 324.893L117.602 334.404C117.602 334.404 114.493 335.053 116.362 331.527C118.464 327.585 129.922 302.306 136.547 296.165C148.77 284.823 171.192 278.392 171.192 278.392V278.402Z" fill="#F5F5F5"/>
<g opacity="0.3">
<path d="M155.221 326.142C155.221 326.142 155.153 296.533 157.323 293.249C159.492 289.966 184.994 278.159 184.994 278.159C184.994 278.159 182.515 276.048 177.42 277.016C172.326 277.985 163.851 280.29 156.819 283.903C149.777 287.516 138.513 292.688 134.309 298.673C132.479 301.269 128.653 307.487 125.002 314.229C120.256 322.994 115.761 332.37 115.761 332.883C115.761 333.958 115.51 334.936 119.713 334.045C129.457 331.963 155.221 326.161 155.221 326.161V326.142Z" fill="black"/>
</g>
<path d="M141.118 323.469C146.917 323.469 151.618 318.768 151.618 312.97C151.618 307.171 146.917 302.47 141.118 302.47C135.32 302.47 130.619 307.171 130.619 312.97C130.619 318.768 135.32 323.469 141.118 323.469Z" fill="#F5F5F5"/>
<path d="M130.629 312.97C130.629 312.97 130.503 312.03 130.861 310.384C131.22 308.766 132.246 306.364 134.668 304.485C135.869 303.565 137.39 302.78 139.152 302.451C140.905 302.141 142.891 302.18 144.78 302.887C145.729 303.216 146.659 303.71 147.501 304.34C148.354 304.96 149.138 305.725 149.778 306.616C151.104 308.369 151.85 310.635 151.87 312.96C151.85 315.294 151.095 317.551 149.778 319.314C149.138 320.205 148.354 320.97 147.501 321.59C146.659 322.219 145.739 322.713 144.78 323.043C142.881 323.75 140.905 323.798 139.152 323.479C137.39 323.149 135.869 322.365 134.668 321.445C132.246 319.566 131.22 317.163 130.861 315.546C130.503 313.899 130.629 312.96 130.629 312.96C130.697 312.96 130.629 313.899 131.055 315.498C131.462 317.067 132.518 319.381 134.881 321.164C136.053 322.035 137.525 322.771 139.22 323.072C140.905 323.353 142.804 323.294 144.615 322.607C145.526 322.287 146.407 321.813 147.211 321.202C148.024 320.612 148.77 319.875 149.371 319.023C150.63 317.348 151.337 315.188 151.356 312.97C151.337 310.752 150.63 308.592 149.371 306.916C148.761 306.064 148.024 305.328 147.211 304.737C146.407 304.136 145.526 303.652 144.615 303.332C142.804 302.645 140.905 302.587 139.22 302.867C137.525 303.158 136.053 303.904 134.881 304.776C132.518 306.558 131.462 308.863 131.055 310.442C130.639 312.04 130.697 312.989 130.629 312.979V312.97Z" fill="#263238"/>
<path d="M141.119 312.514C137.264 312.514 133.912 314.655 132.179 317.802C131.375 316.34 130.92 314.674 130.92 312.892C130.92 307.255 135.491 302.683 141.128 302.683C146.765 302.683 151.337 307.255 151.337 312.892C151.337 314.674 150.882 316.35 150.078 317.802C148.344 314.645 144.993 312.514 141.138 312.514H141.119Z" fill="#E0E0E0"/>
<path d="M136.595 312.621C136.595 315.12 138.62 317.144 141.119 317.144C143.617 317.144 145.642 315.12 145.642 312.621C145.642 310.122 143.617 308.098 141.119 308.098C138.62 308.098 136.595 310.122 136.595 312.621Z" fill="white"/>
<path d="M136.595 312.621C136.595 312.621 136.566 312.524 136.557 312.33C136.547 312.136 136.557 311.856 136.644 311.497C136.779 310.79 137.215 309.725 138.281 308.892C139.298 308.049 141.041 307.545 142.746 308.165C144.441 308.727 145.923 310.519 145.903 312.63C145.923 314.742 144.441 316.543 142.746 317.096C141.041 317.706 139.298 317.202 138.281 316.369C137.225 315.526 136.789 314.471 136.653 313.764C136.576 313.405 136.557 313.115 136.566 312.931C136.566 312.737 136.586 312.64 136.605 312.64C136.653 312.64 136.644 313.047 136.837 313.725C137.031 314.393 137.486 315.362 138.494 316.098C139.462 316.844 141.051 317.25 142.581 316.679C144.102 316.146 145.409 314.539 145.39 312.65C145.409 310.761 144.102 309.153 142.581 308.621C141.051 308.049 139.462 308.456 138.494 309.192C137.486 309.928 137.031 310.897 136.837 311.565C136.644 312.243 136.653 312.65 136.605 312.65L136.595 312.621Z" fill="#263238"/>
<path d="M137.167 305.521C136.992 305.25 137.68 304.349 139.346 303.729C140.963 303.109 143.627 302.925 146.136 304.252C148.635 305.589 149.971 307.903 150.359 309.589C150.765 311.313 150.407 312.398 150.087 312.398C149.719 312.417 149.419 311.477 148.693 310.238C147.986 308.998 146.756 307.448 144.944 306.48C143.133 305.521 141.157 305.366 139.733 305.472C138.3 305.56 137.351 305.84 137.167 305.521Z" fill="white"/>
<path d="M134.532 307.187C133.961 306.79 133.68 306.199 133.97 305.918C134.261 305.637 134.842 305.928 135.22 306.519C135.598 307.1 135.82 307.633 135.724 307.73C135.627 307.817 135.104 307.584 134.523 307.187H134.532Z" fill="white"/>
<path d="M-227.139 418.01C-226.616 416.916 -225.512 416.131 -223.333 416.373C-217.279 417.061 -153.819 418.475 -145.083 416.373C-136.337 414.272 -107.202 381.205 -94.8723 378.958C-84.5281 377.069 -34.2305 376.062 -18.288 376.517C-2.33571 376.052 47.9618 377.069 58.2964 378.958C70.6262 381.214 99.3248 417.507 108.071 419.608C116.817 421.71 180.713 417.061 186.767 416.373C188.956 416.121 190.06 416.906 190.573 418.01C191.648 420.286 189.905 422.911 187.377 422.989C173.866 423.366 121.67 423.967 111.906 423.793C101.659 423.609 -3.12022 421.691 -20.6803 421.371C-47.1512 421.536 -137.596 422.117 -147.175 422.253C-158.468 422.407 -210.461 423.366 -223.982 422.989C-226.5 422.921 -228.253 420.296 -227.178 418.01H-227.139Z" fill="#263238"/>
<path d="M-3.73999 174.804C-2.71332 174.804 -1.75446 175.289 -1.15395 176.122C0.599155 178.514 4.10536 183.463 4.20221 185.013C4.32813 187.076 3.16586 188.761 1.03502 189.023C-0.989281 189.265 -39.7706 189.052 -43.7901 189.023C-44.042 189.023 -44.2841 188.994 -44.5263 188.926C-45.582 188.664 -48.3327 187.793 -48.1293 185.914C-47.9356 184.199 -44.9524 178.998 -43.3833 176.364C-42.8022 175.395 -41.7658 174.804 -40.6326 174.804H-3.73999Z" fill="#263238"/>
<path d="M114.88 160.256C114.88 160.256 114.938 160.323 115.025 160.459C115.122 160.624 115.248 160.827 115.393 161.079C115.732 161.66 116.197 162.464 116.778 163.481C117.989 165.622 119.704 168.653 121.805 172.372C126.028 179.937 131.82 190.33 138.232 201.817C143.414 211.193 148.189 219.832 151.995 226.728L151.947 226.67C156.519 230.273 160.286 233.247 162.94 235.339C164.219 236.365 165.226 237.169 165.952 237.751C166.272 238.012 166.534 238.225 166.727 238.39C166.902 238.535 166.989 238.622 166.979 238.622C166.979 238.622 166.873 238.564 166.689 238.438L165.875 237.838C165.139 237.276 164.103 236.501 162.795 235.513C160.112 233.45 156.315 230.535 151.686 226.98L151.656 226.951L151.637 226.912C147.802 220.035 142.997 211.406 137.787 202.049C131.433 190.543 125.68 180.121 121.495 172.537C119.442 168.779 117.786 165.718 116.604 163.559C116.052 162.522 115.616 161.699 115.297 161.108C115.161 160.847 115.054 160.633 114.967 160.469C114.899 160.323 114.861 160.246 114.87 160.236L114.88 160.256Z" fill="#263238"/>
<path d="M97.0003 154.802C97.0197 154.744 97.9882 154.928 99.5185 155.403C101.039 155.897 103.141 156.71 105.127 158.192C107.102 159.684 108.478 161.476 109.379 162.793C110.27 164.13 110.715 165.011 110.657 165.04C110.589 165.079 110.037 164.265 109.088 162.996C108.129 161.747 106.744 160.033 104.826 158.589C102.899 157.156 100.875 156.304 99.4023 155.732C97.9204 155.17 96.9809 154.87 97.0003 154.793V154.802Z" fill="#263238"/>
<path d="M106.609 414.378C106.609 414.378 106.395 414.378 106.047 414.175C105.698 413.981 105.204 413.661 104.594 413.196C103.354 412.276 101.62 410.804 99.4314 408.857C95.0632 404.954 88.9032 399.143 81.513 391.733C79.663 389.883 77.7453 387.927 75.7694 385.864C73.7645 383.83 71.8661 381.515 69.4931 379.597C67.1104 377.689 64.3307 376.11 61.27 375.006C58.2094 373.892 54.8969 373.243 51.4681 372.991C49.7538 372.865 48.0104 372.865 46.2379 372.856C44.4654 372.836 42.6736 372.827 40.8624 372.807C37.2399 372.778 33.5497 372.739 29.782 372.71C22.2562 372.643 14.469 372.575 6.48801 372.497C-25.4359 372.178 -54.3282 371.887 -75.2685 371.674C-85.7193 371.548 -94.1749 371.442 -100.044 371.364C-102.95 371.316 -105.217 371.277 -106.776 371.258C-107.531 371.238 -108.113 371.229 -108.529 371.219C-108.926 371.209 -109.13 371.19 -109.13 371.19C-109.13 371.19 -108.926 371.17 -108.529 371.17C-108.113 371.17 -107.531 371.17 -106.776 371.17C-105.217 371.17 -102.95 371.17 -100.044 371.18C-94.1749 371.219 -85.7193 371.267 -75.2685 371.325C-54.3282 371.5 -25.4359 371.732 6.48801 372.003C14.469 372.081 22.2562 372.149 29.782 372.226C33.54 372.265 37.2399 372.294 40.8624 372.333C42.6736 372.352 44.4654 372.371 46.2379 372.381C48.0007 372.4 49.7635 372.4 51.4972 372.526C54.9647 372.798 58.3159 373.456 61.425 374.589C64.5244 375.713 67.3429 377.33 69.7546 379.268C72.1664 381.234 74.0551 383.558 76.0406 385.592C78.0068 387.655 79.9246 389.622 81.7648 391.481C89.1259 398.91 95.2376 404.77 99.567 408.702C101.727 410.668 103.441 412.16 104.662 413.109C105.262 413.584 105.746 413.923 106.085 414.126C106.424 414.339 106.628 414.359 106.618 414.378H106.609Z" fill="#263238"/>
<g opacity="0.3">
<path d="M158.785 356.623C161.778 353.659 164.8 350.676 168.354 348.429C171.909 346.182 177.023 343.547 180.248 345.639C181.885 347.421 183.203 349.485 184.142 351.703C184.462 352.458 184.733 353.349 184.374 354.085C183.919 355.005 182.747 355.238 181.73 355.364C174.321 356.294 166.911 357.223 159.492 358.163C159.066 358.221 158.524 358.221 158.32 357.843C158.097 357.436 158.456 356.952 158.785 356.623Z" fill="white"/>
</g>
<path d="M164.461 419.851L164.441 419.919C163.967 421.565 165.207 423.396 166.921 423.357L183.019 423.086C184.278 423.057 185.324 421.807 185.479 420.558L185.585 419.667C185.779 418.078 184.307 416.626 182.718 416.742L166.747 417.914C165.681 417.991 164.742 418.814 164.451 419.851H164.461Z" fill="white"/>
<path d="M-135.891 410.475C-135.891 410.339 -83.9759 410.223 -19.9538 410.223C44.0683 410.223 95.993 410.339 95.993 410.475C95.993 410.611 44.0877 410.727 -19.9538 410.727C-83.9953 410.727 -135.891 410.611 -135.891 410.475Z" fill="#455A64"/>
<path d="M44.8723 418.921H51.6813L52.1559 410.475H44.3687L44.8723 418.921Z" fill="#455A64"/>
<path d="M-132.307 407.414C-120.006 396.818 -103.434 380.517 -94.9109 378.958C-84.5666 377.069 -34.269 376.062 -18.3265 376.517C-2.37421 376.052 47.9234 377.069 58.2579 378.958C66.1905 380.411 80.903 395.956 92.7098 407.414H-132.307Z" fill="#455A64"/>
<path d="M195.029 401.865C195.029 401.865 194.816 401.739 194.438 401.448L192.782 400.179C191.309 399.027 189.227 397.399 186.622 395.366L186.747 395.404C178.776 396.421 166.756 397.971 153.322 399.685C146.785 400.499 140.576 401.264 135.046 401.952L135.123 401.923C128.401 405.535 122.716 408.596 118.657 410.775C116.672 411.821 115.083 412.664 113.96 413.255C113.437 413.526 113.02 413.729 112.701 413.894C112.41 414.039 112.265 414.107 112.255 414.098C112.255 414.088 112.391 414.001 112.662 413.836C112.972 413.662 113.379 413.42 113.882 413.129C114.996 412.509 116.565 411.628 118.522 410.533C122.561 408.315 128.217 405.196 134.9 401.526L134.939 401.506H134.987C140.518 400.799 146.717 400.015 153.264 399.182C166.708 397.535 178.728 396.053 186.709 395.075H186.777L186.825 395.114C189.392 397.196 191.445 398.872 192.898 400.044C193.576 400.605 194.109 401.051 194.506 401.38C194.864 401.69 195.048 401.855 195.038 401.865H195.029Z" fill="#263238"/>
<path d="M112.255 383.374C112.255 383.374 108.962 377.815 112.255 376.41C116.033 374.802 179.105 367.238 181.672 367.005C186.786 366.55 188.646 368.865 189.847 374.87C191.048 380.875 193.692 395.772 188.646 400.101C183.6 404.431 175.667 406.349 160.054 407.307C144.431 408.266 136.217 408.799 128.527 404.47C120.837 400.14 112.265 383.365 112.265 383.365L112.255 383.374Z" fill="#263238"/>
<path d="M115.49 333.881C115.335 333.813 115.916 332.05 117.175 328.941C118.435 325.832 120.362 321.377 123.006 315.982C124.352 313.299 125.825 310.355 127.587 307.275C129.35 304.204 131.297 300.94 133.757 297.725C134.997 296.146 136.44 294.499 138.067 293.134C139.695 291.739 141.506 290.48 143.404 289.366C145.303 288.252 147.24 287.245 149.206 286.189C151.172 285.143 153.177 284.087 155.25 283.07C159.376 281.036 163.55 279.254 167.744 277.956C169.836 277.307 171.938 276.784 174.001 276.368C176.054 275.941 178.185 275.641 180.316 275.738C182.437 275.845 184.617 276.435 186.35 277.733C188.074 279.041 189.149 280.871 189.798 282.615C190.467 284.368 190.815 286.082 191.125 287.71C191.426 289.308 191.716 290.848 191.997 292.31C193.159 298.18 194.031 302.955 194.515 306.277C195 309.599 195.106 311.459 194.941 311.488C194.767 311.517 194.331 309.715 193.547 306.461C192.762 303.178 191.639 298.48 190.254 292.688C189.905 291.235 189.566 289.676 189.217 288.097C188.859 286.528 188.481 284.91 187.852 283.39C187.241 281.869 186.331 280.474 185.033 279.525C183.725 278.586 182.021 278.13 180.21 278.063C178.379 278.005 176.461 278.285 174.476 278.731C172.49 279.147 170.485 279.68 168.471 280.31C164.441 281.588 160.402 283.332 156.344 285.327C154.31 286.325 152.325 287.361 150.368 288.397C148.412 289.443 146.455 290.441 144.644 291.497C142.823 292.543 141.147 293.686 139.607 294.974C138.048 296.252 136.799 297.657 135.568 299.168C133.166 302.19 131.181 305.357 129.37 308.34C127.558 311.323 125.999 314.19 124.566 316.805C121.747 322.055 119.577 326.375 118.047 329.348C116.526 332.322 115.635 333.959 115.471 333.881H115.49Z" fill="#263238"/>
<path d="M172.403 302.131C167.492 302.131 163.221 304.853 161.013 308.872C159.986 307.012 159.405 304.882 159.405 302.615C159.405 295.438 165.226 289.617 172.403 289.617C179.58 289.617 185.401 295.438 185.401 302.615C185.401 304.882 184.82 307.012 183.793 308.872C181.585 304.853 177.314 302.131 172.403 302.131Z" fill="#E0E0E0"/>
<path d="M166.795 302.189C166.795 305.279 169.304 307.787 172.393 307.787C175.483 307.787 177.992 305.279 177.992 302.189C177.992 299.099 175.483 296.591 172.393 296.591C169.304 296.591 166.795 299.099 166.795 302.189Z" fill="white"/>
<path d="M166.795 302.189C166.795 302.189 166.766 302.063 166.766 301.831C166.766 301.598 166.785 301.24 166.882 300.804C167.066 299.932 167.599 298.625 168.906 297.598C170.166 296.571 172.296 295.961 174.388 296.717C175.415 297.075 176.403 297.773 177.11 298.741C177.837 299.7 178.243 300.93 178.253 302.199C178.243 303.468 177.837 304.698 177.11 305.657C176.403 306.625 175.415 307.323 174.388 307.681C172.296 308.436 170.166 307.826 168.906 306.8C167.599 305.773 167.066 304.465 166.882 303.594C166.785 303.148 166.756 302.799 166.766 302.567C166.766 302.334 166.785 302.209 166.795 302.209C166.843 302.209 166.834 302.712 167.066 303.555C167.299 304.388 167.87 305.589 169.12 306.519C170.33 307.448 172.316 307.971 174.234 307.255C176.132 306.596 177.778 304.572 177.749 302.209C177.769 299.845 176.132 297.821 174.234 297.162C172.316 296.446 170.33 296.959 169.12 297.898C167.87 298.828 167.299 300.039 167.066 300.862C166.834 301.705 166.843 302.209 166.795 302.209V302.189Z" fill="#263238"/>
<path d="M159.405 302.616C159.405 302.616 159.386 302.335 159.405 301.783C159.405 301.512 159.415 301.173 159.483 300.775C159.531 300.378 159.579 299.923 159.725 299.42C160.17 297.424 161.449 294.46 164.442 292.146C165.924 291.012 167.803 290.044 169.972 289.647C172.132 289.259 174.583 289.317 176.917 290.189C178.089 290.596 179.232 291.206 180.268 291.981C181.324 292.746 182.283 293.686 183.077 294.79C184.714 296.95 185.634 299.749 185.663 302.616C185.643 305.492 184.714 308.282 183.077 310.442C182.283 311.536 181.324 312.485 180.268 313.251C179.222 314.025 178.089 314.636 176.917 315.042C174.583 315.924 172.132 315.972 169.972 315.585C167.793 315.188 165.914 314.219 164.442 313.086C161.449 310.771 160.18 307.807 159.725 305.812C159.579 305.308 159.531 304.853 159.483 304.456C159.415 304.059 159.405 303.72 159.405 303.449C159.395 302.906 159.405 302.616 159.405 302.616C159.483 302.616 159.405 303.778 159.909 305.764C160.412 307.71 161.71 310.587 164.645 312.805C166.098 313.89 167.928 314.81 170.04 315.178C172.132 315.536 174.495 315.469 176.752 314.607C177.885 314.21 178.98 313.619 179.977 312.863C180.994 312.127 181.915 311.207 182.67 310.151C184.239 308.059 185.12 305.376 185.15 302.616C185.12 299.855 184.239 297.172 182.67 295.08C181.915 294.025 180.994 293.104 179.977 292.368C178.97 291.613 177.885 291.022 176.752 290.625C174.505 289.763 172.142 289.695 170.04 290.053C167.928 290.422 166.098 291.342 164.645 292.426C161.71 294.645 160.403 297.511 159.909 299.468C159.405 301.454 159.483 302.625 159.405 302.616Z" fill="#263238"/>
<path d="M167.492 293.395C167.318 293.133 168.209 292.087 170.233 291.38C172.209 290.673 175.435 290.489 178.447 292.087C181.449 293.705 183.106 296.475 183.619 298.509C184.161 300.591 183.793 301.908 183.483 301.908C183.106 301.928 182.815 300.746 181.963 299.158C181.13 297.569 179.59 295.554 177.275 294.315C174.95 293.085 172.422 292.93 170.64 293.123C168.839 293.298 167.696 293.724 167.502 293.395H167.492Z" fill="white"/>
<path d="M164.238 295.458C163.667 295.061 163.415 294.431 163.754 294.102C164.093 293.773 164.722 294.044 165.1 294.625C165.478 295.206 165.652 295.768 165.517 295.913C165.371 296.049 164.819 295.855 164.248 295.458H164.238Z" fill="white"/>
<path d="M90.4721 351.711C90.2977 351.033 107.403 346.132 128.672 340.757C149.942 335.381 167.328 331.575 167.492 332.253C167.667 332.931 150.562 337.832 129.282 343.207C108.013 348.583 90.6367 352.389 90.4624 351.711H90.4721Z" fill="#263238"/>
<path d="M192.937 280.58C192.937 280.58 192.908 280.483 192.869 280.29C192.83 280.096 192.772 279.805 192.675 279.437C192.472 278.701 192.133 277.607 191.406 276.338C190.68 275.088 189.508 273.674 187.735 272.628C187.3 272.357 186.796 272.163 186.302 271.931C185.769 271.776 185.246 271.553 184.675 271.447C184.103 271.35 183.512 271.185 182.902 271.175C182.292 271.137 181.653 271.156 181.014 271.214C178.418 271.437 175.619 272.095 172.645 272.909C169.672 273.723 166.543 274.73 163.269 275.863C156.741 278.159 149.613 280.909 142.368 284.28C141.467 284.706 140.576 285.142 139.714 285.607C138.852 286.062 138.077 286.634 137.312 287.234C135.801 288.435 134.435 289.781 133.263 291.234C131.055 294.247 129.031 297.317 127.094 300.174C123.229 305.927 119.897 311.216 117.176 315.7C114.464 320.194 112.362 323.875 110.928 326.432C110.221 327.691 109.669 328.679 109.272 329.376C109.088 329.696 108.943 329.938 108.836 330.142C108.739 330.316 108.681 330.393 108.672 330.393C108.672 330.393 108.701 330.297 108.788 330.122C108.885 329.919 109.02 329.657 109.185 329.338C109.534 328.65 110.057 327.633 110.754 326.345C112.139 323.759 114.192 320.039 116.866 315.516C119.548 311.003 122.851 305.695 126.706 299.922C128.653 297.036 130.629 294.014 132.876 290.934C134.067 289.442 135.462 288.077 136.992 286.847C137.767 286.246 138.571 285.646 139.462 285.171C140.344 284.697 141.235 284.261 142.145 283.825C149.419 280.445 156.557 277.713 163.114 275.427C166.398 274.304 169.546 273.306 172.539 272.502C175.522 271.708 178.35 271.069 180.984 270.856C181.643 270.798 182.292 270.788 182.931 270.836C183.571 270.856 184.161 271.03 184.752 271.137C185.343 271.253 185.876 271.485 186.418 271.65C186.922 271.902 187.435 272.105 187.881 272.386C189.692 273.49 190.874 274.953 191.581 276.241C192.288 277.549 192.607 278.662 192.772 279.418C192.859 279.796 192.898 280.086 192.917 280.29C192.937 280.483 192.937 280.59 192.927 280.59L192.937 280.58Z" fill="#263238"/>
<g opacity="0.3">
<path d="M196.966 286.063C197.925 286.382 203.184 289.656 205.412 290.906C207.639 292.155 209.586 294.121 210.235 296.591C210.874 299.051 210.167 301.647 209.47 304.088C207.175 312.078 204.511 326.442 202.215 334.423C200.424 319.933 198.467 295.254 196.966 286.053" fill="white"/>
</g>
<path d="M124.837 401.012C124.818 400.876 139.763 398.687 158.223 396.14C176.684 393.583 191.658 391.626 191.678 391.762C191.697 391.898 176.752 394.087 158.291 396.634C139.84 399.191 124.856 401.147 124.837 401.012Z" fill="#455A64"/>
<path d="M129.602 404.673C129.602 404.673 129.815 404.605 130.222 404.537C130.677 404.46 131.268 404.363 132.004 404.247C133.554 404.005 135.801 403.675 138.581 403.288C144.14 402.513 151.821 401.554 160.325 400.547C168.79 399.54 176.461 398.619 182.079 397.951C184.82 397.622 187.057 397.351 188.675 397.157C189.411 397.079 190.012 397.012 190.467 396.963C190.874 396.924 191.096 396.915 191.096 396.924C191.096 396.944 190.883 396.992 190.476 397.06C190.021 397.137 189.43 397.234 188.694 397.351C187.145 397.593 184.898 397.922 182.118 398.309C176.558 399.084 168.877 400.043 160.373 401.05C151.908 402.058 144.247 402.978 138.62 403.646C135.878 403.976 133.641 404.247 132.024 404.44C131.287 404.518 130.687 404.586 130.232 404.634C129.825 404.673 129.602 404.683 129.602 404.673Z" fill="#455A64"/>
<path d="M140.072 407.414C140.024 407.414 140.663 407.317 141.758 407.182C142.939 407.027 144.518 406.833 146.436 406.591C150.465 406.107 155.889 405.458 161.884 404.731C167.88 404.053 173.313 403.443 177.343 402.978C179.26 402.784 180.849 402.62 182.03 402.504C183.135 402.407 183.755 402.358 183.755 402.397C183.755 402.436 183.154 402.542 182.05 402.697C180.868 402.862 179.289 403.075 177.381 403.337C173.43 403.85 167.977 404.528 161.942 405.235C155.908 405.942 150.446 406.543 146.484 406.949C142.532 407.346 140.034 407.55 140.082 407.424L140.072 407.414Z" fill="#455A64"/>
<path d="M121.34 396.847C121.321 396.712 137.051 394.523 156.47 391.975C175.9 389.418 191.658 387.462 191.668 387.597C191.687 387.733 175.958 389.922 156.528 392.469C137.109 395.026 121.35 396.983 121.331 396.847H121.34Z" fill="#455A64"/>
<path d="M118.609 392.973C118.59 392.837 134.881 390.581 154.978 387.936C175.086 385.292 191.406 383.258 191.426 383.394C191.445 383.53 175.163 385.786 155.046 388.43C134.939 391.075 118.628 393.109 118.609 392.963V392.973Z" fill="#455A64"/>
<path d="M115.539 388.402C115.519 388.266 132.266 385.951 152.935 383.23C173.614 380.508 190.389 378.416 190.399 378.561C190.418 378.697 173.672 381.012 152.993 383.733C132.324 386.455 115.548 388.547 115.529 388.402H115.539Z" fill="#455A64"/>
<path d="M113.185 383.733C113.166 383.597 130.212 381.244 151.25 378.473C172.297 375.703 189.363 373.573 189.382 373.718C189.401 373.853 172.364 376.207 151.317 378.977C130.28 381.747 113.204 383.878 113.185 383.733Z" fill="#455A64"/>
<path d="M110.802 379.065C110.783 378.929 127.965 376.556 149.177 373.767C170.388 370.977 187.6 368.827 187.619 368.963C187.638 369.098 170.456 371.471 149.245 374.261C128.033 377.05 110.822 379.2 110.802 379.065Z" fill="#455A64"/>
<path d="M166.35 368.41C166.485 368.381 168.374 376.72 170.573 387.036C172.771 397.351 174.437 405.739 174.302 405.768C174.166 405.797 172.277 397.457 170.079 387.142C167.88 376.827 166.214 368.439 166.35 368.41Z" fill="#455A64"/>
<path d="M172.694 367.354C172.829 367.325 174.718 375.665 176.917 385.98C179.115 396.295 180.781 404.683 180.646 404.712C180.51 404.741 178.621 396.402 176.423 386.086C174.224 375.771 172.558 367.383 172.694 367.354Z" fill="#455A64"/>
<path d="M179.028 366.298C179.164 366.269 180.956 374.163 183.038 383.917C185.12 393.68 186.689 401.612 186.554 401.641C186.418 401.67 184.626 393.786 182.544 384.023C180.471 374.27 178.893 366.327 179.028 366.298Z" fill="#455A64"/>
<path d="M185.905 367.742C185.905 367.742 186.05 368.1 186.225 368.769C186.399 369.437 186.631 370.406 186.893 371.616C187.435 374.028 188.094 377.37 188.743 381.079C189.402 384.721 189.992 388.014 190.448 390.561C190.651 391.695 190.825 392.653 190.961 393.438C191.077 394.116 191.116 394.503 191.087 394.503C191.048 394.503 190.942 394.145 190.767 393.477C190.593 392.808 190.36 391.84 190.099 390.629C189.557 388.217 188.898 384.876 188.249 381.157C187.59 377.515 187 374.222 186.544 371.674C186.341 370.541 186.167 369.582 186.031 368.798C185.915 368.12 185.876 367.732 185.905 367.732V367.742Z" fill="#455A64"/>
<path d="M159.027 369.727C159.163 369.698 160.993 377.747 163.115 387.704C165.236 397.661 166.844 405.758 166.708 405.787C166.572 405.816 164.742 397.767 162.621 387.81C160.5 377.853 158.892 369.756 159.027 369.727Z" fill="#455A64"/>
<path d="M151.734 371.199C151.869 371.17 153.7 379.238 155.831 389.224C157.952 399.21 159.57 407.327 159.434 407.356C159.298 407.385 157.468 399.317 155.337 389.331C153.216 379.355 151.598 371.238 151.734 371.209V371.199Z" fill="#455A64"/>
<path d="M144.218 371.597C144.353 371.568 146.174 379.568 148.276 389.457C150.388 399.356 151.976 407.395 151.84 407.424C151.705 407.453 149.884 399.462 147.782 389.563C145.68 379.674 144.082 371.626 144.218 371.597Z" fill="#455A64"/>
<path d="M136.818 372.565C136.954 372.536 138.765 380.488 140.857 390.328C142.949 400.169 144.537 408.169 144.402 408.198C144.266 408.227 142.455 400.276 140.363 390.435C138.271 380.594 136.682 372.594 136.818 372.565Z" fill="#455A64"/>
<path d="M129.515 374.008C129.651 373.979 131.346 381.418 133.312 390.619C135.268 399.82 136.75 407.307 136.615 407.336C136.479 407.365 134.784 399.927 132.818 390.726C130.862 381.524 129.38 374.037 129.515 374.008Z" fill="#455A64"/>
<path d="M122.047 374.629C122.183 374.6 123.781 381.554 125.612 390.155C127.442 398.756 128.818 405.758 128.682 405.787C128.547 405.817 126.948 398.872 125.118 390.261C123.287 381.661 121.912 374.668 122.047 374.638V374.629Z" fill="#455A64"/>
<path d="M114.696 375.83C114.832 375.801 115.82 379.898 116.904 384.973C117.989 390.048 118.754 394.194 118.619 394.223C118.483 394.252 117.495 390.155 116.41 385.08C115.326 380.004 114.56 375.859 114.696 375.83Z" fill="#455A64"/>
<path d="M-126.738 403.589C-126.738 403.453 -78.6101 403.337 -19.2468 403.337C40.1165 403.337 88.2542 403.453 88.2542 403.589C88.2542 403.724 40.1359 403.84 -19.2468 403.84C-78.6294 403.84 -126.738 403.724 -126.738 403.589Z" fill="#263238"/>
<path d="M-122.515 398.726C-122.515 398.591 -76.4502 398.474 -19.6536 398.474C37.1431 398.474 83.2177 398.591 83.2177 398.726C83.2177 398.862 37.1624 398.978 -19.6536 398.978C-76.4696 398.978 -122.515 398.862 -122.515 398.726Z" fill="#263238"/>
<path d="M-116.113 393.747C-116.113 393.612 -72.5468 393.495 -18.8205 393.495C34.9058 393.495 78.4815 393.612 78.4815 393.747C78.4815 393.883 34.9251 393.999 -18.8205 393.999C-72.5661 393.999 -116.113 393.883 -116.113 393.747Z" fill="#263238"/>
<path d="M-111.851 388.769C-111.851 388.633 -70.3579 388.517 -19.1789 388.517C32 388.517 73.503 388.633 73.503 388.769C73.503 388.905 32.0194 389.021 -19.1789 389.021C-70.3773 389.021 -111.851 388.905 -111.851 388.769Z" fill="#263238"/>
<path d="M-104.732 384.023C-104.732 383.887 -66.2608 383.771 -18.8108 383.771C28.6391 383.771 67.1202 383.887 67.1202 384.023C67.1202 384.159 28.6585 384.275 -18.8108 384.275C-66.2802 384.275 -104.732 384.159 -104.732 384.023Z" fill="#263238"/>
<path d="M-96.6738 379.287C-96.6738 379.152 -61.912 379.035 -19.0531 379.035C23.8059 379.035 58.5774 379.152 58.5774 379.287C58.5774 379.423 23.8253 379.539 -19.0531 379.539C-61.9314 379.539 -96.6738 379.423 -96.6738 379.287Z" fill="#263238"/>
</svg>
