<svg width="13" height="14" viewBox="0 0 13 14" fill="none" xmlns="http://www.w3.org/2000/svg">
<path d="M6.4999 9.65269C7.93584 9.65269 9.0999 8.4179 9.0999 6.8947C9.0999 5.37151 7.93584 4.13672 6.4999 4.13672C5.06396 4.13672 3.8999 5.37151 3.8999 6.8947C3.8999 8.4179 5.06396 9.65269 6.4999 9.65269Z" fill="#00A8A8"/>
<path d="M7.15 1.42657V0H5.85V1.42657C4.70619 1.58149 3.64323 2.1348 2.82787 2.9997C2.01251 3.86461 1.49089 4.99216 1.34485 6.20547H0V7.58446H1.34485C1.49068 8.79786 2.01223 9.92554 2.82763 10.7905C3.64303 11.6554 4.70611 12.2087 5.85 12.3634V13.7899H7.15V12.3634C8.29393 12.2088 9.35707 11.6556 10.1725 10.7906C10.9879 9.92564 11.5094 8.7979 11.6551 7.58446H13V6.20547H11.6551C11.5093 4.99207 10.9878 3.86439 10.1724 2.99944C9.35697 2.1345 8.29389 1.58126 7.15 1.42657V1.42657ZM6.5 11.0319C4.34915 11.0319 2.6 9.17651 2.6 6.89496C2.6 4.61342 4.34915 2.75799 6.5 2.75799C8.65085 2.75799 10.4 4.61342 10.4 6.89496C10.4 9.17651 8.65085 11.0319 6.5 11.0319Z" fill="#00A8A8"/>
</svg>
