<svg width="23" height="29" viewBox="0 0 23 29" fill="none" xmlns="http://www.w3.org/2000/svg">
<path d="M5.75 25.0373L8.94444 18.8299H7.02778V14.1743L3.83333 20.3817H5.75V25.0373ZM2.55556 11.0706H10.2222V3.31124H2.55556V11.0706ZM2.55556 25.0373H10.2222V14.1743H2.55556V25.0373ZM0 28.141V3.31124C0 2.45772 0.250444 1.72679 0.751333 1.11846C1.25137 0.511167 1.85278 0.20752 2.55556 0.20752H10.2222C10.925 0.20752 11.5268 0.511167 12.0277 1.11846C12.5278 1.72679 12.7778 2.45772 12.7778 3.31124V14.1743H14.375C14.9926 14.1743 15.5199 14.4391 15.9569 14.9688C16.393 15.4996 16.6111 16.14 16.6111 16.89V24.0674C16.6111 24.5071 16.7602 24.908 17.0583 25.2701C17.3565 25.6322 17.6866 25.8132 18.0486 25.8132C18.4319 25.8132 18.7676 25.6322 19.0555 25.2701C19.3426 24.908 19.4861 24.5071 19.4861 24.0674V9.51869H19.1667C18.8046 9.51869 18.5014 9.36971 18.2569 9.07175C18.0116 8.77483 17.8889 8.40652 17.8889 7.96683V4.8631H18.5278V2.53531H19.8056V4.8631H21.0833V2.53531H22.3611V4.8631H23V7.96683C23 8.40652 22.8773 8.77483 22.632 9.07175C22.3875 9.36971 22.0843 9.51869 21.7222 9.51869H21.4028V24.0674C21.4028 25.1537 21.0782 26.104 20.4291 26.9182C19.7791 27.7334 18.9856 28.141 18.0486 28.141C17.1329 28.141 16.3449 27.7334 15.6847 26.9182C15.0245 26.104 14.6944 25.1537 14.6944 24.0674V16.89C14.6944 16.7607 14.668 16.6635 14.6152 16.5983C14.5616 16.5341 14.4815 16.5021 14.375 16.5021H12.7778V28.141H0Z" fill="white"/>
</svg>
