<svg width="20" height="18" viewBox="0 0 20 18" fill="none" xmlns="http://www.w3.org/2000/svg">
<path d="M17.264 10.0377L11.7229 15.8064C11.3555 16.1886 10.8573 16.4034 10.3378 16.4034C9.81835 16.4034 9.32014 16.1886 8.95277 15.8064L3.4116 10.0387C2.95354 9.56613 2.58968 9.00399 2.3409 8.38461C2.09213 7.76524 1.96334 7.10081 1.96193 6.42949C1.96051 5.75816 2.08651 5.09316 2.33267 4.47265C2.57884 3.85214 2.94033 3.28836 3.3964 2.81366C3.85246 2.33896 4.39411 1.96269 4.99025 1.70647C5.5864 1.45024 6.2253 1.3191 6.87026 1.32057C7.51523 1.32204 8.15357 1.45609 8.74863 1.71503C9.34369 1.97398 9.88376 2.35271 10.3378 2.82948C11.2601 1.8934 12.4996 1.37322 13.7877 1.38162C15.0759 1.39002 16.309 1.92633 17.2199 2.87436C18.1309 3.8224 18.6463 5.10583 18.6546 6.44662C18.6628 7.78742 18.1632 9.07761 17.264 10.0377Z" stroke="#00A8A8" stroke-width="2.55528" stroke-linecap="round" stroke-linejoin="round"/>
</svg>
