<svg width="25" height="26" viewBox="0 0 25 26" fill="none" xmlns="http://www.w3.org/2000/svg">
<path d="M19.264 14.0377L13.7229 19.8064C13.3555 20.1886 12.8573 20.4034 12.3378 20.4034C11.8183 20.4034 11.3201 20.1886 10.9528 19.8064L5.4116 14.0387C4.95354 13.5661 4.58968 13.004 4.3409 12.3846C4.09213 11.7652 3.96334 11.1008 3.96193 10.4295C3.96051 9.75816 4.08651 9.09316 4.33267 8.47265C4.57884 7.85214 4.94033 7.28836 5.3964 6.81366C5.85246 6.33896 6.39411 5.96269 6.99025 5.70647C7.5864 5.45024 8.2253 5.3191 8.87026 5.32057C9.51523 5.32204 10.1536 5.45609 10.7486 5.71503C11.3437 5.97398 11.8838 6.35271 12.3378 6.82948C13.2601 5.8934 14.4996 5.37322 15.7877 5.38162C17.0759 5.39002 18.309 5.92633 19.2199 6.87436C20.1309 7.8224 20.6463 9.10583 20.6546 10.4466C20.6628 11.7874 20.1632 13.0776 19.264 14.0377Z" fill="#00A8A8" stroke="#00A8A8" stroke-width="2.55528" stroke-linecap="round" stroke-linejoin="round"/>
</svg>
