<svg width="25" height="23" viewBox="0 0 25 23" fill="none" xmlns="http://www.w3.org/2000/svg">
<path d="M2.59876 3.08606H6.18488L8.57563 0.695312H15.7479L18.1386 3.08606H21.7247C22.3588 3.08606 22.9669 3.33794 23.4153 3.78629C23.8636 4.23465 24.1155 4.84274 24.1155 5.47681V19.8213C24.1155 20.4554 23.8636 21.0635 23.4153 21.5118C22.9669 21.9602 22.3588 22.212 21.7247 22.212H2.59876C1.96469 22.212 1.35659 21.9602 0.908242 21.5118C0.459889 21.0635 0.208008 20.4554 0.208008 19.8213V5.47681C0.208008 4.84274 0.459889 4.23465 0.908242 3.78629C1.35659 3.33794 1.96469 3.08606 2.59876 3.08606ZM12.1617 6.67218C10.5766 6.67218 9.05634 7.30189 7.93546 8.42277C6.81458 9.54365 6.18488 11.0639 6.18488 12.6491C6.18488 14.2342 6.81458 15.7545 7.93546 16.8753C9.05634 17.9962 10.5766 18.6259 12.1617 18.6259C13.7469 18.6259 15.2672 17.9962 16.388 16.8753C17.5089 15.7545 18.1386 14.2342 18.1386 12.6491C18.1386 11.0639 17.5089 9.54365 16.388 8.42277C15.2672 7.30189 13.7469 6.67218 12.1617 6.67218ZM12.1617 9.06293C13.1128 9.06293 14.025 9.44075 14.6975 10.1133C15.37 10.7858 15.7479 11.698 15.7479 12.6491C15.7479 13.6002 15.37 14.5123 14.6975 15.1848C14.025 15.8574 13.1128 16.2352 12.1617 16.2352C11.2106 16.2352 10.2985 15.8574 9.62598 15.1848C8.95345 14.5123 8.57563 13.6002 8.57563 12.6491C8.57563 11.698 8.95345 10.7858 9.62598 10.1133C10.2985 9.44075 11.2106 9.06293 12.1617 9.06293Z" fill="#00A8A8"/>
</svg>
