<svg width="18" height="21" viewBox="0 0 18 21" fill="none" xmlns="http://www.w3.org/2000/svg">
<path fill-rule="evenodd" clip-rule="evenodd" d="M4.25 9C4.25 7.74022 4.75045 6.53204 5.64124 5.64124C6.53204 4.75045 7.74022 4.25 9 4.25C10.2598 4.25 11.468 4.75045 12.3588 5.64124C13.2496 6.53204 13.75 7.74022 13.75 9C13.75 10.2598 13.2496 11.468 12.3588 12.3588C11.468 13.2496 10.2598 13.75 9 13.75C7.74022 13.75 6.53204 13.2496 5.64124 12.3588C4.75045 11.468 4.25 10.2598 4.25 9ZM9 5.75C8.13805 5.75 7.3114 6.09241 6.7019 6.7019C6.09241 7.3114 5.75 8.13805 5.75 9C5.75 9.86195 6.09241 10.6886 6.7019 11.2981C7.3114 11.9076 8.13805 12.25 9 12.25C9.86195 12.25 10.6886 11.9076 11.2981 11.2981C11.9076 10.6886 12.25 9.86195 12.25 9C12.25 8.13805 11.9076 7.3114 11.2981 6.7019C10.6886 6.09241 9.86195 5.75 9 5.75Z" fill="#00A8A8"/>
<path fill-rule="evenodd" clip-rule="evenodd" d="M0.52401 7.857C0.694937 5.7838 1.63924 3.85069 3.16942 2.44147C4.69961 1.03226 6.70378 0.249994 8.78401 0.25H9.21601C11.2962 0.249994 13.3004 1.03226 14.8306 2.44147C16.3608 3.85069 17.3051 5.7838 17.476 7.857C17.6662 10.1663 16.9528 12.4593 15.486 14.253L10.693 20.114C10.4879 20.3648 10.2296 20.567 9.9368 20.7057C9.64401 20.8445 9.32403 20.9165 9.00001 20.9165C8.67599 20.9165 8.35601 20.8445 8.06322 20.7057C7.77042 20.567 7.51213 20.3648 7.30701 20.114L2.51401 14.253C1.04713 12.4593 0.333696 10.1663 0.52401 7.857ZM8.78401 1.75C7.08049 1.75026 5.43935 2.39103 4.18633 3.54512C2.93332 4.69921 2.16005 6.28225 2.02001 7.98C1.86161 9.90186 2.4553 11.8102 3.67601 13.303L8.46901 19.165C8.53344 19.2439 8.6146 19.3074 8.70661 19.351C8.79862 19.3947 8.89918 19.4173 9.00101 19.4173C9.10284 19.4173 9.2034 19.3947 9.29541 19.351C9.38742 19.3074 9.46858 19.2439 9.53301 19.165L14.326 13.303C15.546 11.8099 16.139 9.90159 15.98 7.98C15.84 6.28208 15.0665 4.6989 13.8133 3.54478C12.5601 2.39066 10.9187 1.75001 9.21501 1.75H8.78301H8.78401Z" fill="#00A8A8"/>
</svg>
