<svg width="429" height="489" viewBox="0 0 429 489" fill="none" xmlns="http://www.w3.org/2000/svg">
<path d="M277.403 128.431C277.954 124.387 272.256 121.07 267.97 120.717C265.931 120.552 263.804 120.861 261.865 120.188C257.666 118.723 255.991 113.312 251.902 111.582C248.839 110.292 245.323 111.438 242.348 112.937C239.384 114.425 236.452 116.309 233.135 116.519C230.248 116.706 227.118 115.637 224.595 117.048C222.71 118.095 221.729 120.265 219.999 121.544C218.302 122.789 216.098 123.054 213.993 123.175C211.888 123.285 209.717 123.307 207.8 124.189C205.882 125.07 204.296 127.087 204.703 129.159L277.403 128.442V128.431Z" fill="#F5F5F5"/>
<path d="M295.677 414.535C296 410.679 295.471 405.69 290.975 404.203C283.364 401.687 278.854 395.785 279.104 389.118C279.353 382.436 271.346 375.945 265.337 382.2C259.327 388.455 260.135 377.387 252.128 374.694C244.12 372.001 237.333 378.535 239.522 384.496C241.711 390.457 233.806 394.181 224.344 389.118C214.882 384.04 204.465 393.268 206.478 400.495C208.491 407.721 206.845 408.516 200.851 406.117C196.017 404.174 188.098 408.251 187.216 414.55H295.677V414.535Z" fill="#E0E0E0"/>
<path d="M292.057 51.0184C292.057 47.4272 294.966 44.4984 298.565 44.4984C299.212 44.4984 299.844 44.6014 300.431 44.778C300.343 44.1304 300.285 43.4534 300.285 42.7764C300.285 35.1525 306.455 28.9857 314.052 28.9857C314.918 28.9857 315.771 29.074 316.593 29.2212C318.709 25.7478 322.514 23.4224 326.863 23.4224C333.46 23.4224 338.809 28.7355 338.897 35.3144C338.97 35.3144 339.029 35.3144 339.102 35.3144C345.229 35.3144 350.195 40.2891 350.195 46.4264C350.195 52.5638 345.229 57.5384 339.102 57.5384H298.374C294.863 57.4354 292.057 54.5654 292.057 51.0184V51.0184Z" fill="#F5F5F5"/>
<path d="M-144.953 417.126V436.171H390.696V417.126C390.696 413.814 388.389 411.15 385.083 411.15H-139.355C-142.661 411.15 -144.968 413.814 -144.968 417.126H-144.953Z" fill="#E0E0E0"/>
<path d="M360.165 411.15H326.856V436.171H360.165V411.15Z" fill="#F5F5F5"/>
<path d="M296.325 411.15H264.413V436.171H296.325V411.15Z" fill="#F5F5F5"/>
<path d="M233.881 411.15H200.573V436.171H233.881V411.15Z" fill="#F5F5F5"/>
<path d="M170.042 411.15H138.13V436.171H170.042V411.15Z" fill="#F5F5F5"/>
<path d="M107.598 411.15H75.6859V436.171H107.598V411.15Z" fill="#F5F5F5"/>
<path d="M45.1546 411.15H11.8464V436.171H45.1546V411.15Z" fill="#F5F5F5"/>
<path d="M209.433 167.31C210.868 156.896 196.164 148.319 185.117 147.439C179.852 147.017 174.376 147.821 169.379 146.079C158.562 142.308 154.254 128.333 143.685 123.891C135.797 120.56 126.722 123.527 119.064 127.375C111.425 131.223 103.862 136.067 95.3037 136.622C87.8751 137.101 79.7955 134.344 73.305 137.981C68.4611 140.681 65.9147 146.271 61.4537 149.564C57.0885 152.78 51.383 153.469 45.9647 153.756C40.5464 154.043 34.9366 154.101 29.997 156.36C25.0573 158.619 20.9793 163.845 21.994 169.167L209.413 167.31H209.433Z" fill="#F5F5F5"/>
<path d="M89.1851 89.3674C90.0766 83.2551 80.9471 78.2215 74.088 77.7046C70.819 77.4574 67.4192 77.9293 64.3166 76.9069C57.6002 74.6934 54.9255 66.4913 48.3636 63.8846C43.466 61.9295 37.8313 63.6711 33.0764 65.9295C28.3333 68.1879 23.6377 71.0305 18.324 71.3564C13.7117 71.6373 8.6952 70.0193 4.66536 72.1541C1.65783 73.7384 0.0767986 77.0192 -2.69298 78.9518C-5.40331 80.8394 -8.94577 81.2439 -12.3099 81.4124C-15.6741 81.581 -19.1571 81.6147 -22.224 82.9405C-25.291 84.2663 -27.823 87.3337 -27.193 90.4573L89.1732 89.3674H89.1851Z" fill="#F5F5F5"/>
<path d="M359.88 478.82L199.439 478.084C180.138 477.999 164.567 462.282 164.651 442.98L166.353 40.7258C166.438 21.4116 182.154 5.82746 201.467 5.91196L361.908 6.64832C381.209 6.73282 396.78 22.4497 396.695 41.7519L394.993 444.018C394.909 463.333 379.193 478.917 359.88 478.82V478.82Z" fill="#455A64"/>
<path d="M361.679 20.5423L330.573 20.3974C326.396 20.3733 323.005 23.8981 322.993 28.2559L322.968 33.8932C322.956 38.251 319.552 41.7758 315.388 41.7517L254.758 41.474C250.581 41.4499 247.214 37.9009 247.238 33.5431L247.262 27.9058C247.274 23.548 243.919 19.987 239.742 19.9749L228.806 19.9266L201.575 19.8059C188.056 19.7456 177.048 30.6581 176.988 44.178L175.322 436.811C175.261 450.331 186.173 461.328 199.68 461.389L359.808 462.125C373.327 462.185 384.335 451.273 384.395 437.753L386.061 45.1196C386.121 31.5996 375.21 20.6026 361.703 20.5423H361.679Z" fill="#FAFAFA"/>
<path d="M201.599 67.3673C201.479 67.4881 198.787 65.1462 195.576 62.1284C195.576 61.2109 195.576 61.8749 195.576 61.6697H195.588L195.612 61.6334L195.648 61.5972L195.721 61.5248L195.866 61.3799L196.168 61.1023C196.361 60.9212 196.554 60.7402 196.747 60.5591C197.121 60.209 197.495 59.871 197.857 59.5451C198.521 58.9536 199.149 58.3983 199.752 57.8551C200.839 56.9015 201.551 56.3583 201.611 56.4186C201.672 56.479 201.068 57.155 200.054 58.181C199.475 58.7484 198.883 59.3399 198.256 59.9676L197.181 61.0057L196.602 61.5489L196.312 61.8266L196.168 61.9714L196.095 62.0439L196.059 62.0801H196.035V62.1042H196.023C196.023 61.9111 196.023 62.5629 196.023 61.6576C199.233 64.6875 201.744 67.2346 201.623 67.3553L201.599 67.3673Z" fill="#263238"/>
<path d="M368.438 58.1567C368.438 58.881 367.847 59.4604 367.134 59.4604C366.422 59.4604 365.831 58.8689 365.831 58.1567C365.831 57.4445 366.422 56.853 367.134 56.853C367.847 56.853 368.438 57.4445 368.438 58.1567Z" fill="#263238"/>
<path d="M368.064 61.7303C368.571 62.2373 368.571 63.0703 368.064 63.5773C367.557 64.0843 366.724 64.0843 366.217 63.5773C365.71 63.0703 365.71 62.2373 366.217 61.7303C366.724 61.2233 367.557 61.2233 368.064 61.7303Z" fill="#263238"/>
<path d="M368.438 67.1621C368.438 67.8864 367.847 68.4658 367.134 68.4658C366.422 68.4658 365.831 67.8743 365.831 67.1621C365.831 66.4499 366.422 65.8584 367.134 65.8584C367.847 65.8584 368.438 66.4499 368.438 67.1621Z" fill="#263238"/>
<path d="M311.876 63.5044H255.41V68.2122H311.876V63.5044Z" fill="#263238"/>
<path d="M379.442 237.279V361.78C379.442 365.264 376.62 368.086 373.148 368.086H189.238C185.754 368.086 182.931 365.264 182.931 361.78V237.279C182.931 233.808 185.754 230.985 189.238 230.985H373.148C376.62 230.985 379.442 233.808 379.442 237.279Z" fill="#EBEBEB"/>
<path d="M379.442 276.428C354.377 284.27 328.501 292.399 303.673 300.241L326.315 342.462L379.442 344.26V356.76L318.709 354.699L291.546 304.075C279.982 307.734 268.729 311.305 257.964 314.714L282.379 368.086H268.654L245.975 318.536C220.46 326.665 198.467 333.758 182.931 338.878V325.741C187.502 324.242 192.61 322.569 198.205 320.758C210.069 316.912 224.294 312.342 240.742 307.097L219.586 260.831L182.931 272.481V259.382L214.353 249.392L205.936 230.985H219.661L252.731 303.276C265.744 299.142 279.969 294.634 295.368 289.777C304.322 286.955 313.277 284.12 322.106 281.348L298.902 230.985H312.665L334.121 277.564C350.256 272.494 365.68 267.661 379.442 263.341V276.428V276.428Z" fill="white"/>
<rect x="181.789" y="384.082" width="195.369" height="45.7002" rx="6.85504" fill="#EBEBEB"/>
<path d="M372.906 95.0273H189.468C186.489 95.0273 184.074 97.7103 184.074 101.02V207.856C184.074 211.165 186.489 213.848 189.468 213.848H372.906C375.885 213.848 378.3 211.165 378.3 207.856V101.02C378.3 97.7103 375.885 95.0273 372.906 95.0273Z" fill="#EBEBEB"/>
<path d="M329.58 103.554H233.356C230.868 103.554 228.852 105.574 228.852 108.065V200.798C228.852 203.29 230.868 205.31 233.356 205.31H329.58C332.067 205.31 334.084 203.29 334.084 200.798V108.065C334.084 105.574 332.067 103.554 329.58 103.554Z" fill="white"/>
<path d="M243.959 156.204H317.392L315.92 143.017L294.762 138.48L275.101 141.914L251.42 144.244L245.543 150.986L243.959 156.204Z" fill="#263238"/>
<path opacity="0.2" d="M243.959 156.204H317.392L315.92 143.017L294.762 138.48L275.101 141.914L251.42 144.244L245.543 150.986L243.959 156.204Z" fill="black"/>
<path d="M264.387 156.204C264.387 160.505 260.91 163.988 256.617 163.988C252.323 163.988 248.846 160.505 248.846 156.204C248.846 151.904 252.323 148.421 256.617 148.421C260.91 148.421 264.387 151.904 264.387 156.204Z" fill="#263238"/>
<path opacity="0.2" d="M256.616 161.41C259.486 161.41 261.813 159.08 261.813 156.205C261.813 153.33 259.486 150.999 256.616 150.999C253.746 150.999 251.42 153.33 251.42 156.205C251.42 159.08 253.746 161.41 256.616 161.41Z" fill="black"/>
<path d="M315.116 156.204C315.116 160.505 311.639 163.988 307.345 163.988C303.052 163.988 299.575 160.505 299.575 156.204C299.575 151.904 303.052 148.421 307.345 148.421C311.639 148.421 315.116 151.904 315.116 156.204Z" fill="#263238"/>
<path opacity="0.2" d="M307.345 161.41C310.215 161.41 312.542 159.08 312.542 156.205C312.542 153.33 310.215 150.999 307.345 150.999C304.475 150.999 302.148 153.33 302.148 156.205C302.148 159.08 304.475 161.41 307.345 161.41Z" fill="black"/>
<path d="M322.403 149.276L321.55 155.361L316.774 156.873C316.774 156.873 316.65 146.586 306.257 146.586C295.864 146.586 297.2 158.844 297.2 158.844H295.381L291.954 157.369H269.509L267.554 158.844H266.231C266.231 158.844 267.332 146.586 256.617 146.586C245.902 146.586 247.263 158.844 247.263 158.844L241.138 156.204L240.532 150.019L243.093 148.42L243.712 144.665C243.984 144.454 244.269 144.256 244.553 144.07C251.717 139.261 261.516 138.617 261.516 138.617C269.942 130.027 273.357 128.813 273.357 128.813C292.696 127.462 311.144 129.544 311.144 129.544L316.774 136.77L318.098 137.848L319.471 138.976C320.325 142.905 320.077 146.586 320.077 146.586L322.403 149.276V149.276Z" fill="#407BFF"/>
<path opacity="0.6" d="M249.873 144.491L245.58 148.42H243.093L243.711 144.665C243.984 144.454 244.268 144.256 244.553 144.07L247.671 143.599L249.873 144.491V144.491Z" fill="white"/>
<path opacity="0.6" d="M320.077 146.587L318.518 146.004C318.518 142.744 316.563 139.472 316.563 139.472L318.097 137.849L319.471 138.976C320.324 142.905 320.077 146.587 320.077 146.587V146.587Z" fill="white"/>
<path d="M316.773 136.77C306.591 139.212 261.516 138.617 261.516 138.617C261.776 138.357 262.023 138.097 262.283 137.849C266.923 133.188 269.942 130.883 271.637 129.78C272.813 128.999 273.357 128.813 273.357 128.813C292.696 127.462 311.144 129.545 311.144 129.545L316.773 136.77V136.77Z" fill="#263238"/>
<path opacity="0.2" d="M322.403 149.276L321.55 155.362L316.774 156.874C316.774 156.874 316.65 146.587 306.257 146.587C295.863 146.587 297.2 158.845 297.2 158.845H295.381L291.954 157.37H269.509L267.554 158.845H266.23C266.23 158.845 267.332 146.587 256.617 146.587C245.902 146.587 247.263 158.845 247.263 158.845L241.138 156.205L240.532 150.02H245.58C245.58 150.02 249.255 144.009 257.334 144.009C265.414 144.009 268.012 150.02 268.012 150.02H293.921C293.921 150.02 298.326 143.922 304.809 143.6C311.292 143.277 315.116 146.004 315.116 146.004H318.518L320.077 146.587L322.403 149.276V149.276Z" fill="black"/>
<path d="M378.812 142.372V159.005H353.472C353.472 159.005 355.155 153.316 356.467 149.449C357.11 147.528 357.667 146.041 357.877 145.929C361.23 144.095 369.099 142.992 378.812 142.372V142.372Z" fill="#263238"/>
<path opacity="0.2" d="M378.812 142.372V159.005H353.472C353.472 159.005 355.155 153.316 356.467 149.449C357.11 147.528 357.667 146.041 357.877 145.929C361.23 144.095 369.099 142.992 378.812 142.372V142.372Z" fill="black"/>
<path d="M367.552 163.975C371.639 163.975 374.951 160.657 374.951 156.564C374.951 152.47 371.639 149.152 367.552 149.152C363.466 149.152 360.153 152.47 360.153 156.564C360.153 160.657 363.466 163.975 367.552 163.975Z" fill="#263238"/>
<path opacity="0.2" d="M367.553 163.119C371.167 163.119 374.098 160.184 374.098 156.563C374.098 152.942 371.167 150.006 367.553 150.006C363.938 150.006 361.007 152.942 361.007 156.563C361.007 160.184 363.938 163.119 367.553 163.119Z" fill="white"/>
<path d="M369.297 135.295C372.922 133.076 376.053 131.267 378.812 129.804V161.199H376.399L375.991 159.005L375.051 153.936C374.494 150.899 371.858 148.705 368.778 148.705H365.82C362.962 148.705 360.463 150.602 359.683 153.353L358.087 159.005L357.469 161.199L347.434 159.897L348.709 151.358L348.907 150.007L350.862 148.705L354.697 139.881L358.261 138.765L369.297 135.295V135.295Z" fill="#407BFF"/>
<path opacity="0.7" d="M360.154 139.385L355.439 147.392L350.874 148.706L354.709 139.881L358.273 138.766C359.386 139.088 360.154 139.385 360.154 139.385Z" fill="white"/>
<path opacity="0.4" d="M378.812 131.998V136.782C376.201 136.819 373.652 136.683 371.462 136.286C371.462 136.286 375.001 134.167 378.812 131.998V131.998Z" fill="black"/>
<path opacity="0.2" d="M378.812 151.557V161.199H376.399L375.991 159.006L375.05 153.936C374.494 150.9 371.858 148.706 368.777 148.706H365.82C362.962 148.706 360.463 150.602 359.683 153.354L358.087 159.006L357.469 161.199L347.434 159.898L348.709 151.358L356.244 149.152L356.466 149.45L357.877 151.321C357.877 151.321 360.339 146.574 368.74 146.574C375.446 146.574 378.045 150.131 378.812 151.557V151.557Z" fill="black"/>
<path d="M299.44 195.444H263.509C260.279 195.444 257.669 192.829 257.669 189.594C257.669 186.359 260.279 183.744 263.509 183.744H299.44C302.669 183.744 305.28 186.359 305.28 189.594C305.28 192.829 302.669 195.444 299.44 195.444Z" fill="#407BFF"/>
<mask id="mask0_0_1" style="mask-type:alpha" maskUnits="userSpaceOnUse" x="184" y="115" width="195" height="96">
<path d="M372.906 115.592H189.468C186.489 115.592 184.074 117.733 184.074 120.375V205.638C184.074 208.279 186.489 210.42 189.468 210.42H372.906C375.885 210.42 378.3 208.279 378.3 205.638V120.375C378.3 117.733 375.885 115.592 372.906 115.592Z" fill="white"/>
</mask>
<g mask="url(#mask0_0_1)">
<path d="M127.171 156.892L209.165 157.021L209.184 144.886L127.19 144.757L127.171 156.892Z" fill="#455A64"/>
<path d="M213.454 135.946C213.454 135.946 211.402 136.175 211.04 135.942C210.215 135.412 192.269 128.18 176.848 128.16C164.48 128.143 153.343 131.425 142.51 138.655C142.51 138.655 129.321 140.11 124.17 143.971C122.964 144.669 120.507 147.423 121.444 153.68C122.042 157.672 125.013 157.84 129.072 157.749C129.072 157.749 127.561 145.629 138.365 146.555C147.543 147.343 145.786 158.548 145.786 158.548L191.777 158.618C191.777 158.618 191.978 153.643 192.172 152.435C192.563 150.02 195.563 146.064 201.168 146.652C207.314 147.297 209.359 152.905 208.965 157.638C208.965 157.638 215.449 159.04 216.326 153.824L217.872 153.343C217.872 153.343 218.467 142.523 213.064 137.972L214.225 137.201L213.454 135.944V135.946Z" fill="#407BFF"/>
<path d="M210.396 135.6C210.396 135.6 210.012 136.643 208.695 136.526C207.621 136.432 201.482 134.106 199.247 133.248C198.605 133.002 198.093 132.481 197.91 131.817C197.866 131.652 197.847 131.501 197.88 131.39C197.88 131.39 207.421 133.681 210.396 135.6V135.6Z" fill="#263238"/>
<g opacity="0.3">
<path d="M201.301 136.527C201.301 136.527 201.948 137.089 201.299 137.755C200.65 138.418 197.547 140.726 196.107 140.865C194.667 141.003 150.93 143.925 148.338 143.183C145.746 142.442 144.235 141.129 144.884 140.38L146.06 139.992L166.68 140.413L201.303 136.527H201.301Z" fill="white"/>
</g>
<g opacity="0.7">
<path d="M217.212 145.827C217.212 145.827 214.666 146.582 213.578 144.574C212.493 142.566 211.293 140.443 211.293 139.984C211.293 139.407 211.704 137.56 213.066 137.936C213.066 137.936 216.851 140.951 217.212 145.827Z" fill="white"/>
</g>
<path d="M200.868 136.526C200.868 136.526 197.045 139.855 195.388 139.851C193.731 139.849 150.067 142.499 148.124 141.713C146.18 140.927 145.169 140.284 145.169 140.284C145.169 140.284 159.417 130.022 176.021 130.515C188.206 130.876 200.868 136.525 200.868 136.525V136.526Z" fill="#263238"/>
<path d="M205.296 160.689C208.153 157.831 208.153 153.199 205.296 150.342C202.439 147.484 197.806 147.484 194.949 150.342C192.091 153.199 192.091 157.831 194.949 160.689C197.806 163.546 202.439 163.546 205.296 160.689Z" fill="#263238"/>
<path d="M200.13 150.642C197.438 150.638 195.258 152.818 195.253 155.511C195.249 158.195 197.422 160.383 200.114 160.388C202.806 160.392 204.986 158.212 204.992 155.527C204.995 152.835 202.823 150.648 200.13 150.644V150.642ZM196.22 155.512C196.224 153.356 197.973 151.605 200.129 151.609C202.285 151.613 204.028 153.369 204.024 155.525C204.021 157.681 202.272 159.425 200.116 159.421C197.96 159.417 196.216 157.668 196.22 155.512Z" fill="#1E282D"/>
<path d="M200.129 151.607C197.973 151.603 196.224 153.356 196.22 155.51C196.216 157.666 197.962 159.415 200.116 159.419C202.272 159.423 204.021 157.677 204.025 155.523C204.028 153.369 202.283 151.611 200.129 151.607Z" fill="#1E282D"/>
</g>
<path opacity="0.2" d="M219.778 162.52L225.804 170.576V154.476L219.778 162.52Z" fill="black"/>
<path opacity="0.2" d="M343.157 162.52L337.131 154.476V170.576L343.157 162.52Z" fill="black"/>
<path d="M210.993 351.869H198.976V477.778H210.993V351.869Z" fill="#263238"/>
<path opacity="0.2" d="M210.993 351.869H198.976V477.778H210.993V351.869Z" fill="black"/>
<path d="M297.025 351.869H285.008V477.778H297.025V351.869Z" fill="#263238"/>
<path opacity="0.2" d="M297.025 351.869H285.008V477.778H297.025V351.869Z" fill="black"/>
<path d="M96.2785 351.869H84.2614V477.778H96.2785V351.869Z" fill="#263238"/>
<path d="M10.2466 351.869H-1.77051V477.778H10.2466V351.869Z" fill="#263238"/>
<path d="M321.653 347.212V356.525C321.653 358.028 320.449 359.25 318.949 359.25H-13.1449C-14.645 359.25 -15.8649 358.028 -15.8649 356.525V347.212C-15.8649 345.726 -14.645 344.504 -13.1449 344.504H318.949C320.449 344.504 321.653 345.726 321.653 347.212Z" fill="#263238"/>
<path opacity="0.1" d="M321.653 347.212V356.525C321.653 358.028 320.449 359.25 318.949 359.25H-13.1449C-14.645 359.25 -15.8649 358.028 -15.8649 356.525V347.212C-15.8649 345.726 -14.645 344.504 -13.1449 344.504H318.949C320.449 344.504 321.653 345.726 321.653 347.212Z" fill="white"/>
<path opacity="0.2" d="M77.8818 347.212V356.525C77.8818 358.028 76.6784 359.25 75.1783 359.25H-13.1449C-14.645 359.25 -15.8649 358.028 -15.8649 356.525V347.212C-15.8649 345.726 -14.645 344.504 -13.1449 344.504H75.1783C76.6784 344.504 77.8818 345.726 77.8818 347.212Z" fill="white"/>
<path d="M157.662 233.703L171.969 208.356L179.399 207.393C179.399 207.393 177.675 225.073 174.462 232.499C174.462 232.499 171.829 241.317 162.205 241.448C152.581 241.579 157.665 233.712 157.665 233.712L157.662 233.703Z" fill="#FFC7B1"/>
<path d="M150.683 200.043C156.435 204.169 155.45 215.735 157.713 219.042C159.698 233.295 164.329 221.688 164.329 221.688L176.9 223.673C176.9 223.673 177.616 231.244 170.945 240.875C164.275 250.523 151.568 249.101 144.591 233.624C137.614 218.146 150.7 200.043 150.7 200.043H150.683Z" fill="#407BFF"/>
<path d="M150.683 200.043C156.435 204.169 155.45 215.735 157.713 219.042C159.698 233.295 164.329 221.688 164.329 221.688L176.9 223.673C176.9 223.673 177.616 231.244 170.945 240.875C164.275 250.523 151.568 249.101 144.591 233.624C137.614 218.146 150.7 200.043 150.7 200.043H150.683Z" fill="white" fill-opacity="0.2"/>
<path d="M226.305 468.787L237.791 465.634L235.732 437.577L224.28 440.747L226.305 468.787Z" fill="#EBB376"/>
<path d="M238.488 464.099L225.181 465.02C224.722 465.02 224.348 465.412 224.365 465.889L224.45 476.509C224.535 477.651 225.522 478.537 226.662 478.469C231.307 478.077 233.502 477.651 239.356 477.191C242.947 476.935 250.076 476.764 254.943 475.622C259.81 474.497 258.551 469.708 256.407 469.759C251.285 469.844 244.121 467.031 240.598 464.628C239.986 464.219 239.254 464.031 238.505 464.082L238.488 464.099Z" fill="#263238"/>
<path d="M242.827 465.838C241.755 465.889 240.683 465.821 239.628 465.634C239.526 465.634 239.424 465.548 239.407 465.446C239.39 465.344 239.407 465.224 239.492 465.156C239.849 464.866 243.066 462.344 244.546 462.804C244.886 462.923 245.159 463.196 245.244 463.554C245.482 464.082 245.38 464.696 245.005 465.122C244.393 465.634 243.61 465.889 242.81 465.855L242.827 465.838ZM244.393 463.366C243.593 463.111 241.687 464.253 240.377 465.224C242.521 465.497 244.087 465.327 244.597 464.73C244.818 464.44 244.869 464.065 244.733 463.724C244.699 463.554 244.563 463.418 244.393 463.366Z" fill="#263238"/>
<path d="M239.696 465.633C239.696 465.633 239.628 465.667 239.577 465.65C239.492 465.616 239.441 465.531 239.407 465.445C239.407 465.343 238.88 461.9 239.986 460.655C240.292 460.332 240.7 460.161 241.143 460.195C241.636 460.178 242.062 460.502 242.198 460.962C242.555 462.241 240.956 464.849 239.833 465.633C239.781 465.65 239.73 465.65 239.679 465.633H239.696ZM241.007 460.792C240.785 460.792 240.581 460.911 240.428 461.082C239.764 461.815 239.815 463.792 239.918 464.9C240.87 463.962 241.874 462.002 241.687 461.15C241.653 460.996 241.534 460.809 241.143 460.792H241.007V460.792Z" fill="#263238"/>
<path opacity="0.2" d="M224.28 440.746L235.732 437.593L236.906 453.633L225.386 456.207L224.28 440.746Z" fill="black"/>
<path d="M211.313 468.377L200.473 473.32L197.717 461.661L194.007 445.979L204.813 441.019L208.522 456.684L211.313 468.377Z" fill="#EBB376"/>
<path opacity="0.2" d="M208.522 456.684L197.717 461.661L194.007 445.979L204.813 441.019L208.522 456.684Z" fill="black"/>
<path d="M211.755 466.759L198.755 469.793C198.295 469.879 197.989 470.322 198.074 470.782L199.844 481.248C200.099 482.373 201.222 483.072 202.345 482.833C206.872 481.691 208.965 480.924 214.665 479.544C218.17 478.708 225.181 477.413 229.81 475.521C234.438 473.629 232.43 469.112 230.32 469.504C225.283 470.407 217.762 468.771 213.899 466.964C213.219 466.657 212.47 466.589 211.755 466.759V466.759Z" fill="#263238"/>
<path d="M216.316 467.781C215.261 468.003 214.206 468.105 213.134 468.088C213.032 468.088 212.93 468.037 212.879 467.934C212.845 467.832 212.862 467.713 212.913 467.628C213.219 467.287 215.976 464.27 217.541 464.491C217.898 464.542 218.205 464.781 218.341 465.122C218.647 465.599 218.664 466.213 218.358 466.707C217.83 467.304 217.116 467.696 216.316 467.781V467.781ZM217.473 465.088C216.639 464.968 214.955 466.383 213.797 467.559C215.959 467.491 217.473 467.065 217.898 466.4C218.069 466.076 218.052 465.701 217.864 465.395C217.796 465.224 217.643 465.105 217.473 465.088Z" fill="#263238"/>
<path d="M213.185 468.071C213.185 468.071 213.117 468.123 213.083 468.123C212.998 468.088 212.93 468.037 212.879 467.952C212.862 467.85 211.806 464.543 212.691 463.128C212.93 462.77 213.321 462.532 213.763 462.48C214.24 462.378 214.733 462.634 214.938 463.077C215.482 464.27 214.325 467.117 213.338 468.054C213.287 468.088 213.236 468.088 213.185 468.088V468.071ZM213.695 463.077C213.474 463.128 213.287 463.265 213.185 463.452C212.64 464.287 212.998 466.213 213.287 467.304C214.087 466.23 214.767 464.134 214.444 463.333C214.376 463.179 214.24 463.009 213.848 463.06H213.712L213.695 463.077Z" fill="#263238"/>
<path d="M130.978 309.085L127.49 270.323L62.8782 271.84C62.8782 271.84 55.2208 325.841 60.7852 335.762C70.7058 353.472 135.845 343.415 151.075 344.932C157.286 348.256 190.587 458.747 190.587 458.747L209.22 451.213C209.22 451.213 189.175 357.955 184.614 340.381C178.267 315.955 152.385 316.381 130.995 309.068L130.978 309.085Z" fill="#407BFF"/>
<path opacity="0.6" d="M130.978 309.085L127.49 270.323L62.8782 271.84C62.8782 271.84 55.2208 325.841 60.7852 335.762C70.7058 353.472 135.845 343.415 151.075 344.932C157.286 348.256 190.587 458.747 190.587 458.747L209.22 451.213C209.22 451.213 189.175 357.955 184.614 340.381C178.267 315.955 152.385 316.381 130.995 309.068L130.978 309.085Z" fill="white"/>
<path d="M238.046 449.32L221.608 450.837C221.608 450.837 201.444 348 199.895 347.574C197.087 346.773 188.919 345.852 184.529 344.71C154.019 336.767 78.9078 322.142 78.9078 322.142L106.611 295.414C106.611 295.414 232.209 310.517 235 340.04C236.344 354.239 238.063 449.32 238.063 449.32H238.046Z" fill="#407BFF"/>
<path opacity="0.6" d="M238.046 449.32L221.608 450.837C221.608 450.837 201.444 348 199.895 347.574C197.087 346.773 188.919 345.852 184.529 344.71C154.019 336.767 78.9078 322.142 78.9078 322.142L106.611 295.414C106.611 295.414 232.209 310.517 235 340.04C236.344 354.239 238.063 449.32 238.063 449.32H238.046Z" fill="white"/>
<path opacity="0.2" d="M195.436 347.66C192.629 346.859 188.902 345.87 184.512 344.728C185.72 345.376 182.198 329.353 178.675 325.211C171.681 316.961 143.621 312.495 133.565 310.875C125.141 309.529 96.911 307.023 96.911 307.023C96.911 307.023 143.057 305.773 180.646 316.102C189.519 320.878 199.606 336.308 195.454 347.66H195.436Z" fill="black"/>
<path d="M128.953 278.25C132.731 256.55 139.095 227.47 150.853 200.282C144.659 197.657 138.295 195.493 131.795 193.805C122.3 191.231 112.668 189.203 102.952 187.737C96.2302 187.021 89.4577 186.833 82.7021 187.174C82.7021 187.174 68.136 214.43 60.7509 278.25H128.953V278.25Z" fill="#407BFF"/>
<path d="M107.921 206.13C107.921 206.13 90.9723 192.579 88.8282 184.567C86.6841 176.556 96.6388 171.152 110.592 174.238C124.546 177.323 137.461 186.118 133.343 196.482C129.225 206.846 122.01 209.198 122.01 209.198C122.01 209.198 119.015 203.249 107.921 206.13Z" fill="#407BFF"/>
<path d="M142.497 213.625L145.805 212.301L153.032 208.769L155.198 199.61C155.541 198.179 156.419 196.938 157.649 196.137C158.956 195.288 160.559 195.021 162.076 195.383L168.343 197.95C168.868 198.16 169.269 198.608 169.374 199.161C169.46 199.629 169.345 200.077 168.544 200.01C166.989 199.886 163.745 199.543 163.745 199.543L165.224 204.762C165.615 206.126 165.462 207.595 164.804 208.855L163.86 210.658L162.076 212.301L160.36 213.625C160.36 213.625 150.127 226.144 138.527 227.518C131.553 228.348 125.956 222.225 125.956 222.225L127.941 219.969L142.497 213.625Z" fill="#FFC7B1"/>
<path d="M163.936 199.905C163.936 199.905 163.774 199.686 163.421 199.447C163.068 199.218 162.505 198.923 161.808 198.951C161.093 198.989 160.568 199.457 160.387 199.867C160.196 200.296 160.32 200.583 160.349 200.573C160.406 200.573 160.368 200.296 160.578 199.972C160.778 199.657 161.246 199.295 161.827 199.266C162.419 199.237 162.944 199.466 163.316 199.648C163.688 199.829 163.917 199.953 163.936 199.915V199.905Z" fill="#AA6550"/>
<path d="M161.256 203.159C161.256 203.159 161.389 202.987 161.599 202.729C161.799 202.481 162.133 202.166 162.582 201.995C163.03 201.813 163.488 201.813 163.803 201.861C164.127 201.909 164.318 201.976 164.347 201.937C164.366 201.909 164.194 201.756 163.851 201.642C163.517 201.537 162.992 201.499 162.467 201.699C161.943 201.909 161.59 202.29 161.418 202.605C161.237 202.92 161.218 203.14 161.256 203.159V203.159Z" fill="#AA6550"/>
<path opacity="0.2" d="M107.921 206.13C107.921 206.13 90.9723 192.579 88.8282 184.567C86.6841 176.556 96.6388 171.152 110.592 174.238C124.546 177.323 137.461 186.118 133.343 196.482C129.225 206.846 122.01 209.198 122.01 209.198C122.01 209.198 119.015 203.249 107.921 206.13Z" fill="white"/>
<path d="M117.754 164.376C115.168 173.7 109.579 189.223 100.815 191.917C100.815 191.917 106.744 203.377 116.41 204.263C122.553 204.826 125.956 197.871 125.956 197.871C119.694 196.695 122.076 192.092 127.028 186.331L117.754 164.393V164.376Z" fill="#FFBF9D"/>
<path opacity="0.2" d="M122.793 172.311L128.272 185.299C127.098 186.629 126.043 188.061 125.124 189.578C118.964 190.038 114.54 180.254 116.055 176.282C116.599 174.646 121.704 173.64 122.81 172.311H122.793Z" fill="black"/>
<path d="M128.272 243.443H128.238C128 243.443 127.83 243.221 127.847 242.983C129.259 222.102 122.283 208.465 122.215 208.346C122.112 208.141 122.18 207.886 122.402 207.766C122.606 207.664 122.861 207.732 122.98 207.954C123.048 208.09 130.144 221.914 128.715 243.051C128.715 243.272 128.511 243.443 128.289 243.443H128.272Z" fill="white"/>
<path d="M102.493 236.011C102.493 236.011 102.34 235.994 102.272 235.96C102.067 235.841 101.999 235.585 102.118 235.38C109.759 222.375 107.513 204.749 107.496 204.562C107.462 204.323 107.632 204.119 107.853 204.084C108.074 204.05 108.295 204.221 108.329 204.442C108.346 204.63 110.627 222.528 102.85 235.807C102.765 235.943 102.629 236.011 102.476 236.011H102.493Z" fill="white"/>
<path d="M127.949 242.727C127.949 242.727 129.31 242.795 129.072 245.011L127.081 244.807C127.081 244.807 126.86 242.949 127.949 242.727Z" fill="white"/>
<path d="M102.629 234.801C102.629 234.801 103.769 235.568 102.424 237.341L100.808 236.148C100.808 236.148 101.557 234.443 102.629 234.801V234.801Z" fill="white"/>
<path d="M84.3189 187.191C90.8703 188.708 106.577 215.913 114.966 220.925C123.355 225.936 146.565 209.811 146.565 209.811L154.512 219.715C154.512 219.715 135.709 236.317 119.254 236.709C102.799 237.101 79.4692 213.8 75.9979 205.243C72.5265 196.703 76.3552 185.333 84.3189 187.174V187.191Z" fill="#407BFF"/>
<path opacity="0.2" d="M84.3189 187.191C90.8703 188.708 106.577 215.913 114.966 220.925C123.355 225.936 146.565 209.811 146.565 209.811L154.512 219.715C154.512 219.715 135.709 236.317 119.254 236.709C102.799 237.101 79.4692 213.8 75.9979 205.243C72.5265 196.703 76.3552 185.333 84.3189 187.174V187.191Z" fill="white"/>
<path d="M140.674 156.466C142.811 157.079 145.315 155.848 146.142 153.781C146.969 151.713 145.996 149.098 144.025 148.069C145.617 146.903 146.33 144.687 145.73 142.806C145.125 140.934 143.242 139.545 141.269 139.532C141.507 137.6 140.67 135.573 139.136 134.377C137.601 133.181 135.432 132.852 133.616 133.558C131.8 131.39 128.404 130.748 125.922 132.11C124.115 131.449 121.923 132.105 120.772 133.637C119.621 135.168 119.595 137.456 120.723 139.01" fill="#263238"/>
<path d="M138.522 181.687C139.414 176.773 140.425 166.505 141.225 157.197C142.088 147.197 135.127 138.203 125.225 136.542L124.245 136.378C113.535 135.212 106.557 143.663 105.689 154.401L100.816 191.916L125.957 197.871L126.208 191.74C126.208 191.74 136.673 191.873 138.518 181.696L138.522 181.687Z" fill="#FFBF9D"/>
<path d="M126.298 191.734C126.298 191.734 119.724 191.029 113.597 185.574C113.597 185.574 115.502 193.439 125.839 194.235L126.308 191.738L126.298 191.734Z" fill="#FF9A6C"/>
<path d="M135.368 165.353C135.269 166.128 134.527 166.674 133.716 166.582C132.904 166.49 132.329 165.791 132.437 165.02C132.536 164.244 133.277 163.698 134.089 163.79C134.901 163.882 135.476 164.581 135.368 165.353Z" fill="#263238"/>
<path d="M138.193 161.815C137.979 161.979 137.017 160.971 135.448 160.71C133.887 160.431 132.598 161.042 132.462 160.818C132.392 160.722 132.637 160.406 133.199 160.126C133.751 159.843 134.659 159.633 135.625 159.802C136.601 159.976 137.364 160.467 137.769 160.916C138.184 161.37 138.293 161.736 138.197 161.806L138.193 161.815Z" fill="#263238"/>
<path d="M121.471 163.157C121.372 163.933 120.631 164.479 119.819 164.387C119.007 164.295 118.432 163.596 118.54 162.824C118.639 162.049 119.381 161.503 120.192 161.595C121.004 161.687 121.579 162.386 121.471 163.157Z" fill="#263238"/>
<path d="M122.897 159.61C122.698 159.791 121.658 158.861 120.069 158.724C118.493 158.56 117.26 159.272 117.106 159.063C117.024 158.972 117.245 158.635 117.79 158.316C118.326 157.992 119.197 157.711 120.187 157.802C121.176 157.892 121.972 158.332 122.412 158.752C122.865 159.166 122.997 159.532 122.897 159.61V159.61Z" fill="#263238"/>
<path d="M126.466 172.097C126.469 172.011 127.48 172 129.087 172.067C129.494 172.097 129.89 172.077 130.001 171.816C130.14 171.543 130.048 171.084 129.931 170.581C129.719 169.551 129.494 168.471 129.261 167.333C128.345 162.72 127.763 158.956 127.947 158.913C128.127 158.88 129.02 162.588 129.937 167.201C130.151 168.331 130.358 169.426 130.557 170.461C130.627 170.944 130.807 171.507 130.504 172.063C130.348 172.35 130.016 172.507 129.749 172.537C129.478 172.576 129.252 172.535 129.051 172.515C127.45 172.329 126.466 172.175 126.47 172.088L126.466 172.097Z" fill="#263238"/>
<path d="M123.227 154.225C123.066 154.654 121.656 154.384 119.966 154.536C118.283 154.647 116.915 155.135 116.708 154.738C116.615 154.543 116.869 154.154 117.437 153.755C117.992 153.362 118.876 152.999 119.883 152.92C120.889 152.841 121.804 153.054 122.401 153.364C123.002 153.665 123.292 154.021 123.227 154.225Z" fill="#263238"/>
<path d="M138.798 157.443C138.414 157.722 137.337 157.085 135.936 156.742C134.546 156.347 133.286 156.373 133.105 155.942C133.029 155.733 133.293 155.425 133.89 155.216C134.479 155.003 135.404 154.934 136.357 155.186C137.311 155.438 138.075 155.952 138.482 156.424C138.897 156.9 138.967 157.306 138.798 157.443V157.443Z" fill="#263238"/>
<path d="M141.023 152.358C141.023 152.358 139.408 145.524 136.576 143.508C133.15 141.074 130.857 144.892 127.478 143.306C124.089 141.716 120.828 139.385 116.734 141.518C112.257 143.852 113.765 146.275 112.756 150.763C108.67 168.937 104.45 173.569 104.948 164.762C105.003 163.802 102.499 162.601 102.786 158.534C103.156 153.265 104.012 146.932 105.797 143.449C107.295 140.508 109.43 138.666 112.995 136.839C118.628 133.948 125.516 135.03 130.11 136.283C134.704 137.536 142.804 144.431 141.027 152.349L141.023 152.358Z" fill="#263238"/>
<path d="M105.648 164.597C105.848 163.013 104.698 161.539 103.111 161.425C101.18 161.287 98.8829 162.008 98.347 165.958C97.3995 172.97 104.63 172.474 104.668 172.281C104.692 172.147 105.279 167.534 105.648 164.597Z" fill="#FFBF9D"/>
<path d="M103.495 169.435C103.495 169.435 103.367 169.502 103.139 169.571C102.924 169.634 102.574 169.65 102.221 169.467C101.52 169.09 101.052 167.829 101.194 166.564C101.269 165.921 101.475 165.335 101.775 164.866C102.06 164.38 102.437 164.065 102.819 164.052C103.199 164.015 103.433 164.27 103.496 164.484C103.564 164.69 103.504 164.83 103.532 164.842C103.546 164.859 103.694 164.746 103.677 164.451C103.672 164.305 103.603 164.132 103.461 163.972C103.31 163.808 103.076 163.708 102.816 163.696C102.267 163.661 101.719 164.091 101.396 164.616C101.044 165.129 100.783 165.791 100.708 166.511C100.557 167.928 101.103 169.343 102.076 169.781C102.553 169.984 102.984 169.881 103.218 169.748C103.455 169.606 103.519 169.457 103.495 169.435V169.435Z" fill="#FF9A6C"/>
<path d="M108.053 151.112C108.852 151.883 109.706 152.679 110.775 152.97C111.845 153.26 113.205 152.846 113.565 151.794C113.732 151.324 113.706 150.738 114.087 150.415C114.538 150.032 115.223 150.292 115.797 150.448C117.794 151.002 120.102 149.92 120.949 148.037C121.333 148.898 122.542 149.071 123.411 148.69C124.277 148.319 124.925 147.579 125.654 146.984C126.383 146.388 127.352 145.906 128.248 146.189C128.754 146.35 129.183 146.743 129.709 146.78C130.638 146.856 131.265 145.852 131.554 144.969C131.842 144.087 132.134 143.04 132.996 142.678C133.791 142.343 134.673 142.763 135.499 143.028C136.326 143.292 137.446 143.284 137.794 142.493C137.974 142.072 137.868 141.596 137.692 141.178C136.895 139.291 134.652 138.123 132.648 138.572C132.352 136.158 130.5 133.997 128.16 133.341C125.811 132.681 123.109 133.573 121.608 135.486C120.36 133.903 118.313 132.975 116.294 133.097C114.278 133.209 112.348 134.364 111.295 136.081C109.675 135.346 107.632 135.678 106.32 136.887C105.008 138.096 104.519 140.098 105.117 141.779C103.74 142.285 102.456 143.351 102.188 144.784C101.915 146.226 103.081 147.896 104.535 147.753C103.786 148.782 103.988 150.382 104.966 151.198C105.948 152.004 107.559 151.907 108.423 150.971" fill="#263238"/>
<path d="M132.837 140.719C132.837 140.719 132.84 140.765 132.817 140.843C132.794 140.922 132.771 141.056 132.707 141.205C132.585 141.518 132.38 141.972 131.972 142.461C131.568 142.941 130.972 143.483 130.152 143.851C129.341 144.223 128.279 144.433 127.157 144.187L127.304 144.05C127.419 144.686 127.239 145.393 126.835 145.951C126.446 146.525 125.911 147.004 125.351 147.461C125.068 147.683 124.811 147.949 124.435 148.131C124.072 148.308 123.67 148.369 123.255 148.358C122.451 148.324 121.603 147.929 121.152 147.173L121.428 147.147C121.014 148.507 119.996 149.752 118.595 150.392C117.852 150.761 116.982 150.909 116.185 150.757C115.384 150.614 114.665 150.252 114.015 149.886L114.212 149.837C113.692 150.643 112.988 151.282 112.198 151.708C111.418 152.138 110.453 152.301 109.658 151.962C108.067 151.338 107.204 149.787 107.206 148.461L107.353 148.557C106.46 148.862 105.575 148.76 104.899 148.505C104.21 148.255 103.698 147.849 103.357 147.482C103.011 147.102 102.83 146.749 102.724 146.505C102.632 146.255 102.601 146.12 102.605 146.111C102.649 146.086 102.749 146.681 103.448 147.399C103.797 147.747 104.298 148.127 104.967 148.346C105.623 148.571 106.461 148.652 107.295 148.356L107.438 148.306L107.438 148.461C107.463 149.698 108.289 151.156 109.762 151.718C110.482 152.026 111.333 151.869 112.07 151.465C112.806 151.061 113.479 150.442 113.966 149.688L114.041 149.565L114.172 149.621C114.809 149.993 115.5 150.343 116.241 150.471C116.987 150.613 117.763 150.479 118.475 150.131C119.791 149.532 120.745 148.359 121.151 147.073L121.254 146.752L121.427 147.047C121.812 147.698 122.563 148.062 123.293 148.087C123.65 148.106 124.019 148.043 124.334 147.901C124.64 147.755 124.906 147.493 125.198 147.275C125.754 146.827 126.273 146.363 126.642 145.835C127.02 145.311 127.183 144.695 127.085 144.123L127.061 143.947L127.231 143.986C128.285 144.237 129.303 144.053 130.089 143.714C130.897 143.373 131.477 142.869 131.892 142.416C132.705 141.47 132.81 140.73 132.857 140.75L132.837 140.719Z" fill="#455A64"/>
<path d="M121.512 173.423C123.36 174.09 125.122 174.986 126.755 176.081L126.767 176.13C126.338 177.395 125.71 178.763 124.475 179.275C123.55 179.654 122.439 179.434 121.672 178.797C120.905 178.16 120.488 177.297 120.492 176.304C120.496 175.311 121.048 174.276 121.502 173.419L121.512 173.423Z" fill="#FF9A6C"/>
<path d="M123.288 179.309C123.305 179.216 122.449 179.359 121.601 178.522C121.189 178.114 120.833 177.498 120.769 176.742C120.696 175.981 120.891 175.135 121.293 174.323C121.382 174.14 121.516 173.877 121.602 173.781C121.659 173.75 121.564 173.765 121.638 173.774L121.918 173.894C122.308 174.093 122.684 174.276 123.059 174.458C123.739 174.781 124.395 175.083 125.013 175.369C126.133 175.88 126.842 176.161 126.87 176.095C126.898 176.03 126.25 175.632 125.172 175.05C124.569 174.727 123.939 174.391 123.271 174.04C122.899 173.848 122.528 173.657 122.138 173.457C122.026 173.409 121.959 173.358 121.818 173.299C121.681 173.207 121.33 173.278 121.239 173.438C121.041 173.696 120.978 173.869 120.847 174.1C120.421 174.968 120.201 175.924 120.317 176.792C120.41 177.66 120.868 178.375 121.366 178.787C121.857 179.217 122.399 179.371 122.752 179.4C123.117 179.424 123.304 179.349 123.294 179.322L123.288 179.309Z" fill="#263238"/>
<path d="M168.415 186.122L177.559 183.873C178.939 183.534 180.574 184.831 180.398 186.27L175.604 206.441C175.422 207.222 174.807 207.835 174.029 208.027L162.878 210.74C161.556 210.878 160.744 209.575 161.083 208.676L165.644 188.955C165.948 187.554 167.023 186.455 168.413 186.113L168.415 186.122Z" fill="#455A64"/>
<path d="M169.3 187.046L178.443 184.797C179.592 184.515 180.629 185.537 180.352 186.686L175.685 206.412C175.503 207.194 174.888 207.807 174.11 207.998L163.086 210.71C162.41 210.876 161.801 210.279 161.959 209.602L166.52 189.881C166.824 188.48 167.899 187.381 169.289 187.039L169.3 187.046Z" fill="#263238"/>
<path d="M171.507 193.667L177.678 193.846L180.421 197.758L179.149 210.017L171.196 210.017L172.938 206.148L171.671 203.798C171.671 203.798 168.714 203.936 168.504 203.556C168.294 203.175 168.189 201.669 168.566 201.45C168.946 201.24 172.109 201.25 172.109 201.25C172.109 201.25 167.858 199.85 167.802 199.393C167.738 198.939 167.706 197.742 168.314 197.377C168.925 197.021 175.161 197.571 175.161 197.571L176.743 199.227L176.344 195.807C176.344 195.807 171.138 196.21 171.518 193.643L171.507 193.667Z" fill="#FFC7B1"/>
<path d="M174.55 204.085C174.55 204.085 174.615 203.847 174.532 203.482C174.458 203.113 174.247 202.621 173.872 202.179C173.497 201.737 173.039 201.458 172.694 201.32C172.34 201.186 172.114 201.177 172.106 201.211C172.075 201.293 172.957 201.539 173.649 202.373C174.351 203.182 174.463 204.096 174.55 204.085V204.085Z" fill="#AA6550"/>
<path d="M176.767 202.204C176.767 202.204 176.412 201.735 176.037 200.877C175.832 200.454 175.614 199.914 175.198 199.416C174.985 199.169 174.733 198.926 174.4 198.764C174.066 198.601 173.69 198.546 173.318 198.53C171.858 198.536 170.564 198.583 169.612 198.617C168.662 198.66 168.078 198.701 168.082 198.74C168.086 198.78 168.667 198.811 169.615 198.819C170.557 198.84 171.872 198.826 173.303 198.82C173.653 198.834 173.987 198.884 174.268 199.015C174.55 199.146 174.792 199.362 174.985 199.586C175.385 200.039 175.623 200.551 175.847 200.967C176.282 201.823 176.738 202.236 176.767 202.204V202.204Z" fill="#AA6550"/>
<path d="M177.646 200.777C177.715 200.742 177.532 200.27 177.223 199.733C176.915 199.196 176.613 198.788 176.548 198.832C176.48 198.868 176.662 199.339 176.971 199.876C177.279 200.414 177.581 200.821 177.646 200.777Z" fill="#AA6550"/>
<path d="M174.282 189.406C174.439 190.045 174.05 190.701 173.402 190.86C172.753 191.02 172.107 190.629 171.947 189.98C171.788 189.332 172.179 188.685 172.828 188.526C173.476 188.366 174.122 188.758 174.282 189.406Z" fill="#FAFAFA"/>
<path d="M67.358 277.394C67.358 277.394 78.0881 285.438 81.9371 303.551C85.7861 321.65 100.227 361.69 67.358 345.879L68.2026 342.134C68.2026 342.134 78.6834 351.094 82.5186 345.061C86.3399 339.028 84.36 306.657 68.9225 289.46L67.358 277.394V277.394Z" fill="#263238"/>
<path d="M45.2196 269.89C45.2196 269.89 49.124 262.026 54.8697 261.846C60.6155 261.666 62.6231 263.302 62.2631 268.975L59.6741 269.155C59.6741 269.155 62.2908 264.412 56.0466 264.218C49.8024 264.024 48.0164 269.89 48.0164 269.89H45.2196V269.89Z" fill="#263238"/>
<path d="M13.8876 348.957C13.8876 348.957 8.83412 317.627 21.9871 308.127C21.9871 308.127 19.8965 301.553 30.4881 279.945C34.877 270.986 38.6014 268.517 42.3119 268.364L67.9533 267.296C70.6532 267.186 72.993 269.141 73.353 271.832C75.1529 285.229 79.5003 324.063 73.4776 348.957H13.9015H13.8876Z" fill="#263238"/>
<path opacity="0.1" d="M13.8876 348.957C13.8876 348.957 8.83412 317.627 21.9871 308.127C21.9871 308.127 19.8965 301.553 30.4881 279.945C34.877 270.986 38.6014 268.517 42.3119 268.364L67.9533 267.296C70.6532 267.186 72.993 269.141 73.353 271.832C75.1529 285.229 79.5003 324.063 73.4776 348.957H13.9015H13.8876Z" fill="white"/>
<path d="M55.0773 301.553C57.6109 301.65 59.5908 299.306 59.0093 296.838C57.8186 291.734 54.4958 284.272 45.2194 282.885C35.2786 281.401 28.979 290.402 26.0576 296.061C25.0192 298.086 26.4314 300.499 28.7159 300.582L55.0773 301.553V301.553Z" fill="#263238"/>
<path d="M18.069 315.977C18.7197 313.73 51.8514 315.062 54.0389 315.977C56.2265 316.892 53.5821 339.929 51.616 342.134C49.65 344.325 17.3352 342.869 14.8707 342.134C12.4063 341.399 12.7662 334.451 18.069 315.977V315.977Z" fill="#263238"/>
<path opacity="0.2" d="M55.0773 301.553C57.6109 301.65 59.5908 299.306 59.0093 296.838C57.8186 291.734 54.4958 284.272 45.2194 282.885C35.2786 281.401 28.979 290.402 26.0576 296.061C25.0192 298.086 26.4314 300.499 28.7159 300.582L55.0773 301.553V301.553Z" fill="white"/>
<path opacity="0.2" d="M18.069 315.977C18.7197 313.73 51.8514 315.062 54.0389 315.977C56.2265 316.892 53.5821 339.929 51.616 342.134C49.65 344.325 17.3352 342.869 14.8707 342.134C12.4063 341.399 12.7662 334.451 18.069 315.977V315.977Z" fill="white"/>
<path d="M71.1929 324.354C71.1929 324.354 71.1376 324.354 71.096 324.354C70.7222 324.299 70.4453 323.952 70.5007 323.577C72.2729 310.222 69.4623 277.712 68.8669 275.369C68.2993 273.066 66.8455 271.832 64.5749 271.679C61.7228 271.499 38.9196 271.679 38.6981 271.679C38.3243 271.679 38.0059 271.374 38.0059 270.986C38.0059 270.598 38.3105 270.293 38.6981 270.293C39.6396 270.293 61.7782 270.112 64.6857 270.293C67.5516 270.473 69.5176 272.151 70.2376 275.022C70.7914 277.227 73.7682 309.694 71.899 323.744C71.8575 324.091 71.5529 324.34 71.2068 324.34L71.1929 324.354Z" fill="#263238"/>
<path d="M50.273 321.067C50.273 321.067 50.1761 321.067 50.1345 321.067C42.1597 319.458 19.1904 320.332 18.9688 320.345C18.6089 320.345 18.2627 320.068 18.2489 319.68C18.235 319.291 18.5258 318.972 18.9135 318.958C19.8688 318.917 42.2843 318.057 50.4114 319.707C50.7852 319.777 51.0345 320.151 50.9514 320.526C50.8822 320.859 50.5914 321.08 50.273 321.08V321.067Z" fill="#263238"/>
<path d="M56.7802 296.561C56.4894 296.561 56.2125 296.381 56.1156 296.076C54.5926 291.388 50.799 283.649 42.4642 284.301C33.9217 284.994 30.2527 294.3 30.225 294.384C30.0865 294.744 29.685 294.924 29.325 294.786C28.965 294.647 28.7851 294.245 28.9235 293.884C29.0897 293.468 32.9386 283.663 42.3534 282.914C51.6436 282.137 55.7971 290.57 57.4309 295.646C57.5555 296.006 57.3478 296.395 56.9878 296.519C56.9186 296.547 56.8494 296.547 56.7802 296.547V296.561Z" fill="#263238"/>
</svg>
