<svg width="428" height="489" viewBox="0 0 428 489" fill="none" xmlns="http://www.w3.org/2000/svg">
<g clip-path="url(#clip0_104_227)">
<path d="M361.919 472.684L201.478 471.947C182.177 471.863 166.606 456.146 166.691 436.844L168.393 34.5893C168.477 15.2751 184.193 -0.309011 203.506 -0.224512L363.947 0.511842C383.248 0.596342 398.819 16.3133 398.734 35.6154L397.032 437.882C396.948 457.196 381.232 472.78 361.919 472.684V472.684Z" fill="#455A64"/>
<path d="M363.718 14.4058L332.612 14.2609C328.436 14.2368 325.044 17.7616 325.032 22.1194L325.008 27.7567C324.995 32.1145 321.592 35.6393 317.427 35.6152L256.797 35.3375C252.621 35.3134 249.253 31.7644 249.277 27.4067L249.301 21.7693C249.313 17.4116 245.958 13.8505 241.781 13.8384L230.845 13.7902L203.614 13.6694C190.095 13.6091 179.087 24.5216 179.027 38.0415L177.361 430.675C177.301 444.195 188.212 455.192 201.719 455.252L361.847 455.989C375.366 456.049 386.374 445.136 386.434 431.617L388.1 38.9831C388.161 25.4632 377.249 14.4661 363.742 14.4058H363.718Z" fill="#FAFAFA"/>
<path d="M178.809 85.156H205.051L228.48 108.574L204.121 132.922L179.087 107.886L178.809 85.156Z" fill="#EBEBEB"/>
<path d="M233.815 98.3017L220.67 85.156H250.255L233.815 98.3017Z" fill="#EBEBEB"/>
<path d="M245.318 109.034L268.361 85.9893H348.871C348.871 85.9893 361.195 141.035 312.708 176.368L245.318 109.021V109.034Z" fill="#EBEBEB"/>
<path d="M235.456 116.385L210.808 141.047L279.019 209.262L303.667 183.779L235.456 116.385Z" fill="#EBEBEB"/>
<path d="M178.508 155.013L193.958 138.982L178.809 123.833L178.508 155.013Z" fill="#EBEBEB"/>
<path d="M203.204 148.434L179.473 172.167V205.146L228.48 255.29L269.978 216.65L203.204 148.434Z" fill="#EBEBEB"/>
<path d="M321.869 183.296C321.869 183.296 372.698 146.02 356.27 86.001H387.883L387.497 255.435L321.869 183.308V183.296Z" fill="#EBEBEB"/>
<path d="M312.346 193.074L287.758 218.75L363.138 294.124L386.193 269.691L312.346 193.074Z" fill="#EBEBEB"/>
<path d="M277.486 225.775L238.86 264.138L316.124 340.876L354.689 303.587L277.486 225.775Z" fill="#EBEBEB"/>
<path d="M257.244 417.988L316.305 356.75L372.493 414.029L257.244 417.988Z" fill="#EBEBEB"/>
<path d="M325.515 348.856L387.026 287.919C387.026 290.623 386.495 414.331 386.495 414.331L325.515 348.868V348.856Z" fill="#EBEBEB"/>
<path d="M272.851 314.609L307.747 349.507L238.86 420.62L207.018 382.426L272.851 314.609Z" fill="#EBEBEB"/>
<path d="M178.568 387.387C181.863 387.061 266.248 308.03 266.248 308.03L178.568 217.169V387.387V387.387Z" fill="#EBEBEB"/>
<path d="M177.349 405.398L197.664 387.387L225.8 420.62H177.349V407.909" fill="#EBEBEB"/>
<path d="M203.638 61.2306C203.518 61.3513 200.826 59.0095 197.615 55.9917C197.615 55.0742 197.615 55.7382 197.615 55.5329H197.627L197.651 55.4967L197.688 55.4605L197.76 55.3881L197.905 55.2432L198.207 54.9656C198.4 54.7845 198.593 54.6034 198.786 54.4224C199.16 54.0723 199.534 53.7343 199.897 53.4084C200.56 52.8169 201.188 52.2616 201.792 51.7184C202.878 50.7647 203.59 50.2215 203.65 50.2819C203.711 50.3423 203.107 51.0182 202.093 52.0443C201.514 52.6117 200.923 53.2032 200.295 53.8309L199.221 54.869L198.641 55.4122L198.352 55.6899L198.207 55.8347L198.134 55.9072L198.098 55.9434H198.074V55.9675H198.062C198.062 55.7744 198.062 56.4262 198.062 55.5209C201.273 58.5508 203.783 61.0978 203.663 61.2186L203.638 61.2306Z" fill="#263238"/>
<path d="M370.477 52.0203C370.477 52.7445 369.886 53.324 369.174 53.324C368.461 53.324 367.87 52.7325 367.87 52.0203C367.87 51.308 368.461 50.7166 369.174 50.7166C369.886 50.7166 370.477 51.308 370.477 52.0203Z" fill="#263238"/>
<path d="M370.103 55.5939C370.61 56.1009 370.61 56.9338 370.103 57.4408C369.596 57.9478 368.763 57.9478 368.256 57.4408C367.749 56.9338 367.749 56.1009 368.256 55.5939C368.763 55.0869 369.596 55.0869 370.103 55.5939Z" fill="#263238"/>
<path d="M370.477 61.0259C370.477 61.7502 369.886 62.3296 369.174 62.3296C368.461 62.3296 367.87 61.7381 367.87 61.0259C367.87 60.3137 368.461 59.7222 369.174 59.7222C369.886 59.7222 370.477 60.3137 370.477 61.0259Z" fill="#263238"/>
<path d="M313.915 57.3678H257.449V62.0756H313.915V57.3678Z" fill="#263238"/>
<path d="M307.783 141.88C307.783 119.886 284.668 105.943 261.106 116.976C255.783 119.463 251.377 123.676 248.71 128.867C242.783 140.347 245.403 153.468 250.774 164.357L269.109 210.844C271.752 217.543 281.252 217.507 283.835 210.783L301.82 164.055C308.049 149.823 307.783 141.892 307.783 141.892V141.88ZM285.646 161.025C269.809 170.235 253.755 153.215 262.434 136.411C263.593 134.178 265.355 132.295 267.467 131.076C283.304 121.865 299.37 138.886 290.679 155.689C289.52 157.923 287.758 159.806 285.646 161.025V161.025Z" fill="#8672E7"/>
<path d="M827.697 299.299H113.774V404.062H827.697V299.299Z" fill="#8672E7"/>
<g opacity="0.5">
<path d="M827.697 299.299H113.774V404.062H827.697V299.299Z" fill="black"/>
</g>
<path d="M214.328 472.053C252.262 469.5 280.945 436.676 278.392 398.739C275.839 360.802 243.017 332.117 205.083 334.671C167.148 337.224 138.466 370.047 141.019 407.985C143.571 445.922 176.393 474.606 214.328 472.053Z" fill="#343F44"/>
<path d="M140.887 402.197C140.887 402.197 140.887 402.312 140.887 402.377C140.333 440.39 170.714 471.661 208.725 472.201C246.736 472.755 278.004 442.372 278.558 404.358C278.558 404.294 278.558 404.243 278.558 404.178L140.912 402.197H140.887Z" fill="#343F44"/>
<path d="M161.385 402.673C160.999 429.363 182.32 451.317 209.008 451.703C235.695 452.089 257.648 430.765 258.034 404.076C258.42 377.387 237.098 355.433 210.41 355.047C183.723 354.661 161.771 375.984 161.385 402.673Z" fill="#FAFAFA"/>
<path d="M210.411 355.034C183.723 354.648 161.771 375.971 161.385 402.66L258.034 404.05C258.42 377.361 237.098 355.407 210.411 355.021V355.034Z" fill="#E0E0E0"/>
<path d="M180.274 402.943C180.043 419.196 193.026 432.567 209.291 432.811C225.543 433.043 238.925 420.058 239.157 403.792C239.388 387.539 226.405 374.156 210.14 373.925C193.888 373.693 180.519 386.677 180.274 402.943Z" fill="#343F44"/>
<path d="M299.944 240.361C299.944 240.361 198.572 247.838 160.999 256.267C134.517 262.212 83.4584 272.456 84.076 304.588L88.1293 327.61C88.1293 327.61 69.1881 336.258 69.1881 358.34C69.1881 380.423 64.5687 414.666 108.769 416.03C116.052 416.262 129.898 416.03 129.898 416.03C129.898 416.03 121.405 321.871 207.914 319.104C295.916 316.299 290.074 415.168 290.074 415.168H657.343C657.343 415.168 642.275 318.847 737.006 318.718C831.738 318.577 817.326 415.799 817.326 415.799C817.326 415.799 852.172 418.81 868.385 389.521C884.598 360.232 880.378 339.385 880.378 339.385L879.837 320.867C879.657 314.562 874.613 309.479 868.321 309.234C868.321 309.234 874.652 262.611 864.936 254.543C855.221 246.474 801.988 197.805 801.988 197.805L804.523 196.209C808.769 193.546 808.036 187.137 803.288 185.503C783.072 178.554 743.106 164.797 733.712 161.516C732.297 161.027 730.843 160.718 729.35 160.602C723.74 160.177 707.874 159.161 678.729 158.852C643.227 158.479 502.275 158.852 502.275 158.852C502.275 158.852 453.764 162.841 426.742 174.745C398.33 187.253 299.957 240.361 299.957 240.361H299.944Z" fill="#8672E7"/>
<g opacity="0.4">
<path d="M94.8847 355.793C91.2046 355.046 85.5686 354.969 82.7634 357.466C80.6789 359.319 80.1255 362.304 79.8167 365.084C79.3792 368.88 79.1605 372.779 80.0741 376.498C80.9748 380.217 83.1494 383.769 86.5079 385.596C89.8664 387.424 94.4858 387.128 97.098 384.335C99.4914 381.787 99.7616 377.952 99.6972 374.452C99.6072 369.485 100.006 365.277 99.0925 360.4C98.9123 359.473 98.4233 358.289 97.8314 357.569C96.8535 356.385 96.1072 355.883 94.8976 355.806" fill="black"/>
</g>
<path d="M88.1292 327.611C98.8866 327.636 109.335 327.019 120.067 326.298C121.225 326.221 122.486 326.092 123.335 325.307C124.365 324.355 124.442 322.785 124.455 321.382C124.506 315.617 124.223 309.054 119.848 305.297C117.172 303.006 113.504 302.285 110.004 301.951C101.37 301.14 92.3112 301.809 84.0759 304.563L88.1292 327.585V327.611Z" fill="#FAFAFA"/>
<path d="M311.589 412.221C311.589 412.221 311.55 411.912 311.499 411.307C311.46 410.677 311.396 409.776 311.319 408.605C311.19 406.212 310.997 402.711 310.753 398.22C310.495 393.716 310.199 388.196 309.556 381.813C308.887 375.443 307.909 368.185 305.76 360.412C303.598 352.653 300.291 344.391 295.401 336.271C290.486 328.215 284.026 320.159 275.379 313.931C258.008 301.577 234.55 294.59 210.025 294.294C185.422 293.998 162.054 301.77 145.133 314.729C136.589 321.073 129.512 328.485 124.069 336.232C118.574 343.953 114.559 351.893 111.741 359.434C108.885 366.975 107.379 374.169 106.53 380.5C105.604 386.844 105.745 392.391 105.9 396.895C106.247 401.386 106.646 404.873 107.161 407.19C107.366 408.348 107.534 409.236 107.637 409.853C107.74 410.458 107.778 410.767 107.778 410.767C107.778 410.767 107.701 410.471 107.572 409.866C107.444 409.248 107.264 408.361 107.019 407.215C106.466 404.899 106.028 401.412 105.629 396.908C105.436 392.404 105.256 386.831 106.144 380.462C106.968 374.092 108.434 366.872 111.278 359.28C114.096 351.7 118.098 343.696 123.605 335.923C129.061 328.125 136.164 320.648 144.76 314.253C161.771 301.191 185.293 293.341 210.037 293.637C234.705 293.946 258.265 300.972 275.753 313.442C284.477 319.748 290.962 327.881 295.89 335.988C300.793 344.159 304.1 352.485 306.236 360.284C308.372 368.108 309.311 375.391 309.942 381.774C310.56 388.17 310.817 393.69 311.023 398.207C311.216 402.711 311.357 406.199 311.46 408.605C311.512 409.776 311.55 410.677 311.576 411.307C311.602 411.912 311.589 412.234 311.589 412.234V412.221Z" fill="white"/>
<path d="M315.072 413.844C315.072 413.844 315.046 413.587 315.033 413.072L314.956 410.794C314.892 408.774 314.802 405.789 314.686 401.902C314.467 394.104 314.133 382.677 313.721 368.161C313.322 353.632 312.846 335.99 312.293 315.786C312.151 310.729 312.01 305.517 311.868 300.151C311.688 297.474 311.971 294.733 312.215 291.979C312.408 290.602 312.601 289.225 312.807 287.835C313.09 286.458 313.374 285.082 313.657 283.679C314.956 278.145 316.848 272.599 319.383 267.194C321.931 261.802 324.954 256.475 328.815 251.533L328.84 251.495L328.879 251.469C348.528 239.089 369.888 225.629 392.484 211.396C398.133 207.832 403.859 204.228 409.662 200.574C415.35 196.713 421.5 193.419 427.844 190.42C434.201 187.435 440.802 184.823 447.583 182.532C450.967 181.348 454.429 180.37 457.89 179.341C461.39 178.453 464.877 177.462 468.454 176.741C482.146 173.704 495.94 172.199 509.451 171.568C522.975 170.937 536.241 170.976 549.135 171.697L549.508 171.722L549.431 172.096C543.344 199.325 537.605 225.011 532.342 248.548V248.599L532.304 248.651C529.1 253.927 526.539 259.473 524.635 265.071C522.807 270.682 521.624 276.447 522.035 282.07C522.473 287.72 522.627 293.253 522.769 298.606C522.872 303.973 522.975 309.184 523.078 314.229C523.374 334.432 523.451 352.049 523.502 366.578C523.515 381.094 523.528 392.495 523.541 400.294C523.528 404.18 523.515 407.153 523.502 409.186C523.502 410.19 523.489 410.936 523.477 411.464C523.477 411.978 523.451 412.236 523.451 412.236C523.451 412.236 523.438 411.978 523.425 411.464C523.425 410.936 523.412 410.177 523.399 409.186C523.399 407.166 523.374 404.18 523.348 400.294C523.296 392.495 523.232 381.081 523.155 366.578C523.052 352.062 522.923 334.432 522.589 314.242C522.486 309.197 522.37 303.985 522.254 298.619C522.1 293.253 521.932 287.745 521.495 282.109C521.07 276.382 522.254 270.553 524.094 264.891C526.011 259.241 528.559 253.669 531.802 248.329L531.763 248.419C537 224.87 542.727 199.184 548.787 171.954L549.083 172.353C536.228 171.632 522.962 171.607 509.477 172.237C495.991 172.868 482.249 174.373 468.596 177.397C465.032 178.105 461.557 179.109 458.07 179.984C454.622 181.013 451.173 181.979 447.802 183.163C441.046 185.44 434.458 188.04 428.127 191.012C421.809 193.998 415.684 197.279 410.035 201.101C404.232 204.756 398.506 208.359 392.857 211.911C370.236 226.131 348.862 239.578 329.201 251.932L329.265 251.868C325.456 256.732 322.432 262.047 319.897 267.4C317.362 272.766 315.484 278.274 314.184 283.769C311.289 294.797 312.743 305.684 312.769 315.76C313.271 335.964 313.708 353.607 314.068 368.135C314.416 382.651 314.686 394.078 314.866 401.877C314.943 405.763 315.008 408.748 315.059 410.769C315.072 411.772 315.085 412.532 315.098 413.046C315.098 413.561 315.098 413.819 315.098 413.819L315.072 413.844Z" fill="#263238"/>
<path d="M334.262 251.596L530.789 247.98L658.694 245.638L700.874 221.29C704.284 219.321 705.198 214.792 702.817 211.652L676.567 177.151C673.826 173.548 669.58 171.425 665.063 171.386L522.001 170.228C522.001 170.228 468.124 167.101 425.686 190.869C381.01 215.886 334.262 251.609 334.262 251.609V251.596Z" fill="#263238"/>
<path d="M424.335 173.78C424.335 173.78 434.192 178.271 427.771 182.441C421.363 186.597 321.793 249.383 321.793 249.383L298.901 239.024C339.447 216.427 380.405 194.499 424.335 173.793V173.78Z" fill="#455A64"/>
<path d="M325.01 250.952C325.01 250.952 324.804 251.017 324.392 251.107L322.578 251.506C320.957 251.84 318.602 252.329 315.591 252.947C309.517 254.157 300.716 255.855 289.804 257.721C267.98 261.479 237.664 265.854 203.99 268.775C195.574 269.509 187.339 270.114 179.387 270.628C171.434 271.156 163.765 271.632 156.482 272.301C141.916 273.575 128.855 275.699 118.252 278.851C107.624 281.901 99.4914 285.813 94.1513 288.902C91.4105 290.343 89.4675 291.759 88.0778 292.608C87.4087 293.033 86.894 293.367 86.508 293.599C86.1477 293.817 85.9547 293.92 85.9547 293.92C85.9547 293.92 86.1219 293.779 86.4565 293.547C86.8297 293.29 87.3315 292.942 87.9877 292.492C89.3517 291.604 91.2819 290.15 94.0098 288.67C99.3241 285.504 107.456 281.502 118.111 278.388C128.74 275.158 141.826 272.983 156.418 271.684C163.714 271.002 171.383 270.5 179.335 269.972C187.287 269.444 195.51 268.84 203.925 268.106C237.587 265.198 267.89 260.9 289.727 257.258C300.651 255.443 309.453 253.822 315.552 252.69C318.576 252.123 320.931 251.673 322.565 251.364C323.35 251.223 323.955 251.12 324.392 251.03C324.804 250.965 325.023 250.939 325.023 250.939L325.01 250.952Z" fill="#263238"/>
<path d="M638.826 372.392C638.826 372.573 564.889 372.727 473.695 372.727C382.502 372.727 308.552 372.573 308.552 372.392C308.552 372.212 382.477 372.058 473.695 372.058C564.914 372.058 638.826 372.212 638.826 372.392Z" fill="#263238"/>
<path d="M121.109 340.067C121.109 340.247 110.648 340.401 97.7543 340.401C84.8609 340.401 74.3995 340.247 74.3995 340.067C74.3995 339.887 84.8481 339.732 97.7543 339.732C110.661 339.732 121.109 339.887 121.109 340.067V340.067Z" fill="#263238"/>
<path d="M358.916 244.943C358.916 244.943 421.736 199.568 446.519 190.56C470.44 181.861 482.909 179.673 505.376 179.043C526.852 178.438 539.938 179.03 539.938 179.03L523.339 242.922L358.916 244.968V244.943Z" fill="#455A64"/>
<path d="M349.729 245.148C349.729 241.172 351.877 237.504 355.339 235.548L369.763 227.441C373.881 225.125 378.513 223.915 383.236 223.915C386.17 223.915 389.065 224.378 391.806 225.279C397.969 227.3 402.074 233.155 402.332 239.641C402.679 248.649 395.46 256.151 386.44 256.151H360.73C354.657 256.151 349.729 251.222 349.729 245.148V245.148Z" fill="#8672E7"/>
<path d="M349.729 245.149C349.729 245.149 349.767 245.638 349.896 246.538C350.012 247.439 350.346 248.777 351.157 250.309C352.006 251.814 353.422 253.487 355.583 254.658C356.664 255.225 357.925 255.649 359.289 255.829C360.653 255.997 362.159 255.894 363.729 255.907C370.008 255.881 377.471 255.868 385.745 255.829C387.804 255.829 389.876 255.585 391.87 254.826C393.865 254.079 395.73 252.908 397.313 251.364C398.883 249.82 400.183 247.928 400.98 245.792C401.791 243.656 402.113 241.314 401.946 238.984C401.585 234.3 399.089 229.977 395.447 227.467C393.646 226.18 391.574 225.447 389.49 224.958C387.405 224.456 385.308 224.224 383.262 224.224C379.157 224.224 375.284 225.138 371.964 226.644C370.304 227.39 368.786 228.329 367.28 229.14C365.787 229.977 364.346 230.774 362.982 231.534C360.241 233.052 357.771 234.416 355.583 235.639C353.409 236.81 351.993 238.495 351.17 240.001C350.333 241.52 350.025 242.871 349.896 243.772C349.767 244.685 349.78 245.161 349.741 245.161C349.741 245.161 349.677 244.672 349.767 243.746C349.857 242.832 350.127 241.455 350.951 239.872C351.762 238.315 353.203 236.539 355.416 235.304C357.591 234.069 360.048 232.666 362.764 231.122C364.127 230.35 365.556 229.539 367.036 228.69C368.528 227.866 370.047 226.914 371.745 226.142C375.116 224.585 379.08 223.619 383.275 223.607C385.372 223.607 387.521 223.838 389.657 224.34C391.78 224.829 393.968 225.588 395.846 226.94C399.642 229.552 402.267 234.069 402.628 238.946C402.808 241.378 402.473 243.823 401.624 246.049C400.787 248.276 399.436 250.257 397.789 251.853C396.142 253.462 394.186 254.684 392.115 255.443C390.043 256.228 387.843 256.486 385.758 256.46C377.484 256.434 370.034 256.409 363.741 256.383C362.172 256.357 360.692 256.434 359.251 256.254C357.822 256.061 356.523 255.598 355.416 254.993C353.19 253.745 351.775 251.982 350.938 250.438C350.14 248.855 349.844 247.478 349.767 246.564C349.69 245.638 349.741 245.149 349.741 245.149H349.729Z" fill="#263238"/>
<path d="M520.585 251.595C520.585 251.595 520.482 251.621 520.289 251.634C520.058 251.634 519.762 251.659 519.414 251.672C518.591 251.685 517.471 251.711 516.056 251.749C513.083 251.801 508.876 251.878 503.716 251.968C493.293 252.161 478.907 252.547 463.002 252.985C447.098 253.422 432.699 253.731 422.276 253.795C417.065 253.834 412.844 253.834 409.923 253.795C408.508 253.77 407.388 253.757 406.565 253.744L405.69 253.718C405.497 253.718 405.394 253.693 405.394 253.68C405.394 253.667 405.497 253.654 405.69 253.641C405.921 253.641 406.217 253.615 406.565 253.602C407.388 253.59 408.508 253.564 409.923 253.525C412.896 253.474 417.103 253.397 422.263 253.306C432.686 253.113 447.085 252.727 462.989 252.29C478.894 251.852 493.293 251.543 503.716 251.479C508.927 251.441 513.148 251.441 516.069 251.479C517.484 251.505 518.603 251.518 519.427 251.531C519.774 251.531 520.058 251.556 520.302 251.556C520.495 251.556 520.598 251.582 520.598 251.595H520.585Z" fill="white"/>
<path d="M479.306 206.479C479.383 206.646 466.052 212.514 449.543 219.592C433.034 226.67 419.587 232.254 419.523 232.087C419.445 231.92 432.776 226.052 449.285 218.974C465.795 211.909 479.241 206.311 479.306 206.479Z" fill="white"/>
<path d="M159.789 260.359C159.789 260.359 159.532 260.436 159.03 260.5C158.464 260.577 157.743 260.668 156.842 260.783C155.89 260.886 154.732 261.041 153.394 261.259C152.056 261.478 150.524 261.671 148.852 262.006C145.493 262.585 141.53 263.473 137.168 264.631C132.831 265.841 128.096 267.346 123.258 269.225C118.42 271.143 113.929 273.24 109.927 275.312C105.938 277.422 102.438 279.468 99.5685 281.334C98.1145 282.222 96.8535 283.123 95.734 283.882C94.6016 284.629 93.6494 285.311 92.8902 285.877C92.1568 286.392 91.5649 286.816 91.1016 287.151C90.6899 287.434 90.4582 287.576 90.4454 287.563C90.4325 287.55 90.6255 287.37 91.0115 287.048C91.4619 286.688 92.0281 286.237 92.7358 285.671C93.4821 285.066 94.4086 284.359 95.5281 283.574C96.6347 282.789 97.8829 281.862 99.324 280.936C102.168 279.018 105.668 276.921 109.644 274.771C113.646 272.661 118.162 270.525 123.026 268.607C127.903 266.716 132.651 265.21 137.026 264.039C141.414 262.907 145.403 262.07 148.787 261.543C150.473 261.234 152.017 261.066 153.355 260.899C154.706 260.706 155.865 260.603 156.817 260.539C157.717 260.474 158.438 260.423 159.017 260.372C159.519 260.346 159.789 260.333 159.789 260.372V260.359Z" fill="white"/>
<path d="M389.567 230.002C389.567 230.002 389.181 229.5 388.331 228.805C387.482 228.123 386.028 227.338 384.085 227.094C382.129 226.837 379.774 227.171 377.227 227.84C374.666 228.484 371.912 229.385 369.12 230.594C363.523 233.001 358.967 236.205 355.944 238.791C352.881 241.365 351.273 243.257 351.17 243.167C351.131 243.141 351.517 242.652 352.251 241.803C352.997 240.966 354.116 239.782 355.622 238.444C358.594 235.742 363.175 232.434 368.85 229.989C371.681 228.767 374.473 227.866 377.072 227.248C379.646 226.605 382.103 226.309 384.149 226.631C386.195 226.952 387.675 227.84 388.512 228.625C388.936 229.011 389.206 229.372 389.374 229.616C389.528 229.874 389.605 230.015 389.58 230.028L389.567 230.002Z" fill="white"/>
<path d="M184.752 197.779C179.618 169.623 176.157 165.299 173.236 155.609C170.366 146.035 165.708 139.626 159.956 137.413C156.07 135.92 136.717 128.933 129.962 131.249C122.46 133.823 115.91 137.567 111.265 140.643C106.749 143.641 103.326 148.017 101.512 153.126L91.1531 182.17L109.271 200.25L118.355 180.947L128.212 204.059L126.758 227.416L183.298 242.626C188.445 234.39 187.673 213.775 184.752 197.805V197.779Z" fill="#8672E7"/>
<g opacity="0.2">
<path d="M170.032 167.075C167.536 181.732 167.137 183.753 164.64 198.41C163.778 203.442 161.282 211.291 157.692 214.92C155.041 217.61 152.429 220.209 148.749 221.084C145.313 221.895 140.115 221.985 136.885 220.557C133.655 219.128 130.914 212.874 132.24 209.606C137.026 210.635 138.519 212.231 142.65 209.606C146.252 207.315 151.374 202.245 153.33 198.449C161.578 182.492 163.843 181.912 170.006 167.062" fill="black"/>
</g>
<path d="M129.113 195.464C129.036 195.515 128.096 194.009 126.616 191.564C125.034 188.978 123.014 185.696 120.787 182.067C118.51 178.464 116.438 175.221 114.817 172.661C113.273 170.254 112.346 168.761 112.423 168.71C112.462 168.684 112.745 169.019 113.234 169.662C113.723 170.293 114.392 171.232 115.216 172.403C116.863 174.745 119.05 178.027 121.354 181.72C123.657 185.426 125.639 188.836 127.015 191.333C127.71 192.581 128.251 193.611 128.611 194.318C128.971 195.039 129.151 195.438 129.113 195.464Z" fill="#263238"/>
<path d="M168.565 221.754C168.565 221.754 168.102 221.972 167.24 222.255C166.802 222.397 166.275 222.564 165.631 222.706C165.001 222.847 164.28 223.04 163.469 223.156C161.861 223.452 159.918 223.632 157.743 223.671C155.581 223.671 153.188 223.504 150.73 223.066C148.273 222.603 145.982 221.921 143.949 221.149C141.942 220.351 140.179 219.489 138.776 218.639C138.056 218.253 137.451 217.816 136.911 217.455C136.37 217.108 135.92 216.761 135.572 216.477C134.852 215.911 134.479 215.577 134.504 215.538C134.581 215.435 136.164 216.683 139.008 218.228C140.423 219.013 142.173 219.81 144.168 220.57C146.175 221.29 148.427 221.947 150.846 222.397C153.265 222.822 155.607 223.002 157.743 223.04C159.879 223.04 161.797 222.912 163.392 222.667C166.596 222.217 168.513 221.612 168.552 221.741L168.565 221.754Z" fill="#263238"/>
<path d="M145.879 177.884C145.776 178.386 139.703 190.483 139.703 190.483L111.034 175.375L108.113 163.021C107.65 161.091 106.466 159.418 104.806 158.337C103.043 157.192 100.881 156.832 98.8353 157.321L90.3813 160.782C89.6735 161.065 89.1331 161.67 88.9915 162.416C88.8757 163.047 89.0302 163.652 90.111 163.562C92.2085 163.394 96.5835 162.931 96.5835 162.931L94.589 169.97C94.0614 171.81 94.2673 173.792 95.1552 175.491L96.4291 177.923L99.2213 182.44L99.1699 182.479C99.1699 182.479 127.041 211.111 142.688 212.964C152.095 214.084 162.749 187.716 162.749 187.716L145.905 177.859L145.879 177.884Z" fill="#FFC7B1"/>
<path d="M96.3261 163.42C96.3261 163.42 96.5449 163.124 97.021 162.802C97.4971 162.493 98.2563 162.094 99.1956 162.133C100.161 162.184 100.868 162.815 101.113 163.368C101.37 163.947 101.203 164.333 101.164 164.321C101.087 164.321 101.139 163.947 100.856 163.51C100.585 163.085 99.9548 162.596 99.1699 162.558C98.3721 162.519 97.6643 162.828 97.1625 163.072C96.6607 163.317 96.3518 163.484 96.3261 163.433V163.42Z" fill="#AA6550"/>
<path d="M99.9417 167.808C99.9417 167.808 99.7616 167.577 99.4785 167.229C99.2083 166.895 98.7579 166.47 98.1531 166.238C97.5483 165.994 96.9307 165.994 96.506 166.058C96.0685 166.123 95.8112 166.213 95.7726 166.161C95.7469 166.123 95.9785 165.917 96.4417 165.762C96.8921 165.621 97.5998 165.569 98.3075 165.84C99.0152 166.123 99.4913 166.637 99.723 167.062C99.9674 167.487 99.9932 167.783 99.9417 167.808V167.808Z" fill="#AA6550"/>
<path d="M151.824 139.703L144.065 176.495L164.64 188.861L172.541 166.251C172.541 166.251 169.273 138.803 151.824 139.703V139.703Z" fill="#8672E7"/>
<path d="M162.916 140.361C162.916 140.361 162.749 140.489 162.389 140.695C162.028 140.888 161.514 141.171 160.819 141.519C159.455 142.214 157.46 143.192 154.951 144.311C149.946 146.525 142.804 149.356 134.491 150.758C126.179 152.174 118.407 151.518 113.105 150.038C110.442 149.317 108.357 148.506 106.968 147.837C106.26 147.528 105.745 147.22 105.385 147.039C105.025 146.846 104.844 146.731 104.857 146.718C104.883 146.666 105.655 147.027 107.071 147.606C108.486 148.198 110.571 148.931 113.221 149.587C118.497 150.926 126.153 151.505 134.376 150.102C142.598 148.712 149.714 145.984 154.758 143.887C157.28 142.831 159.313 141.918 160.703 141.3C162.105 140.669 162.878 140.335 162.903 140.386L162.916 140.361Z" fill="#EBEBEB"/>
<path d="M168.333 144.414C168.333 144.414 168.153 144.581 167.767 144.839C167.317 145.135 166.751 145.495 166.056 145.933C165.31 146.409 164.396 146.975 163.276 147.541C162.17 148.12 160.934 148.841 159.48 149.472C158.76 149.806 158.014 150.141 157.229 150.501C156.444 150.861 155.594 151.157 154.732 151.492C153.021 152.213 151.116 152.792 149.135 153.435C145.133 154.606 140.642 155.61 135.855 156.202C131.069 156.742 126.462 156.819 122.293 156.614C120.208 156.446 118.227 156.33 116.4 156.034C115.486 155.893 114.585 155.803 113.749 155.648C112.912 155.481 112.102 155.327 111.317 155.172C109.76 154.902 108.396 154.49 107.186 154.181C105.964 153.885 104.947 153.551 104.111 153.255C103.339 152.985 102.708 152.766 102.194 152.586C101.756 152.431 101.537 152.328 101.537 152.315C101.537 152.303 101.782 152.341 102.232 152.457C102.747 152.599 103.39 152.779 104.175 152.998C105.012 153.255 106.041 153.551 107.264 153.808C108.473 154.078 109.85 154.465 111.394 154.696C112.166 154.838 112.977 154.979 113.813 155.134C114.65 155.275 115.537 155.352 116.451 155.481C118.278 155.751 120.247 155.854 122.306 155.996C126.436 156.163 131.004 156.073 135.753 155.533C140.501 154.941 144.953 153.963 148.929 152.843C150.898 152.213 152.789 151.659 154.501 150.977C155.363 150.643 156.199 150.359 156.984 150.025C157.769 149.677 158.515 149.356 159.236 149.034C160.69 148.442 161.925 147.747 163.045 147.207C164.164 146.666 165.104 146.139 165.863 145.701C166.583 145.302 167.162 144.98 167.626 144.723C168.037 144.504 168.256 144.401 168.269 144.414H168.333Z" fill="#EBEBEB"/>
<path d="M164.64 188.862C164.64 188.862 164.036 188.591 162.967 188.012C161.822 187.369 160.304 186.519 158.438 185.464C154.513 183.199 149.148 180.111 142.958 176.546L142.765 176.431L142.804 176.212C143.357 173.458 143.949 170.511 144.554 167.474C145.493 162.893 146.381 158.543 147.192 154.567C147.616 152.585 147.964 150.693 148.35 148.93C148.762 147.167 149.276 145.533 149.997 144.143C151.412 141.325 153.677 139.794 155.311 139.266C156.148 138.996 156.83 138.932 157.28 138.944C157.73 138.944 157.975 138.996 157.975 139.022C157.975 139.112 156.997 138.932 155.401 139.524C153.844 140.103 151.721 141.634 150.422 144.362C149.752 145.713 149.263 147.309 148.89 149.046C148.543 150.822 148.183 152.701 147.797 154.683C146.999 158.659 146.124 163.021 145.21 167.603C144.592 170.64 143.988 173.587 143.434 176.34L143.28 176.006C149.418 179.648 154.745 182.813 158.631 185.13C160.458 186.249 161.951 187.15 163.07 187.832C164.1 188.476 164.653 188.836 164.627 188.874L164.64 188.862Z" fill="#263238"/>
<path d="M170.945 165.17C171.023 165.17 171.048 166.483 170.842 168.606C170.637 170.716 170.186 173.625 169.363 176.752C168.539 179.892 167.497 182.633 166.635 184.576C165.773 186.519 165.116 187.652 165.039 187.613C164.949 187.574 165.451 186.365 166.197 184.396C166.944 182.427 167.896 179.686 168.719 176.585C169.53 173.483 170.058 170.626 170.379 168.542C170.701 166.457 170.855 165.157 170.958 165.17H170.945Z" fill="#263238"/>
<path d="M59.3065 369.806L59.0749 389.456C59.0749 389.456 39.0271 395.826 38.6411 399.455L76.7164 401.269L78.3249 370.668L59.3065 369.819V369.806Z" fill="#455A64"/>
<path d="M70.9253 388.362C71.6587 388.594 72.122 389.456 71.9161 390.19C71.7102 390.923 70.8481 391.412 70.1146 391.194C69.3812 390.975 68.7892 389.958 69.0723 389.25C69.3554 388.543 70.4106 388.028 71.0668 388.414" fill="#E0E0E0"/>
<path d="M76.7157 401.257L76.7543 398.168L40.2359 397.589C40.2359 397.589 38.5117 398.246 38.6403 399.455L76.7157 401.27V401.257Z" fill="#E0E0E0"/>
<path d="M58.4696 389.224C58.4696 389.405 59.396 389.533 60.2839 390.177C61.1847 390.794 61.6221 391.618 61.7894 391.554C61.9567 391.528 61.738 390.396 60.6571 389.649C59.5762 388.877 58.4438 389.044 58.4696 389.224V389.224Z" fill="#263238"/>
<path d="M54.4033 390.692C54.3518 390.872 55.1367 391.219 55.7415 392.043C56.3591 392.841 56.475 393.703 56.668 393.703C56.8353 393.742 57.0154 392.661 56.2691 391.657C55.5228 390.653 54.429 390.524 54.4161 390.692H54.4033Z" fill="#263238"/>
<path d="M51.907 395.364C52.0742 395.415 52.3831 394.489 51.9456 393.459C51.5209 392.417 50.6717 391.966 50.5816 392.121C50.4658 392.262 51.0062 392.841 51.3408 393.704C51.7011 394.553 51.7139 395.338 51.8941 395.364H51.907Z" fill="#263238"/>
<path d="M59.0228 384.759C59.0871 384.926 59.9621 384.72 61.0044 384.836C62.0596 384.939 62.8574 385.325 62.9603 385.171C63.0761 385.042 62.304 384.321 61.0687 384.193C59.8335 384.064 58.9327 384.604 59.0228 384.759Z" fill="#263238"/>
<g opacity="0.3">
<path d="M59.2673 373.693L59.2158 377.193L77.9382 377.914L78.1184 374.774L59.2673 373.693Z" fill="black"/>
</g>
<path d="M59.1385 380.796C59.1385 380.873 59.8591 381.028 61.0429 380.873C61.6348 380.796 62.3297 380.642 63.0631 380.359C63.4363 380.217 63.8095 380.037 64.1826 379.831C64.3628 379.728 64.5815 379.625 64.7745 379.406C64.9933 379.226 65.1348 378.737 64.9032 378.415C64.7231 378.12 64.3885 377.965 64.1054 377.952C63.8223 377.927 63.5907 377.978 63.3848 378.017C62.9602 378.094 62.5484 378.222 62.1753 378.364C61.4289 378.66 60.8242 379.046 60.3609 379.432C59.4345 380.204 59.0999 380.886 59.1642 380.925C59.2414 380.989 59.7047 380.423 60.6311 379.792C61.0944 379.484 61.6863 379.162 62.3811 378.917C62.7286 378.802 63.1017 378.699 63.4878 378.634C63.8995 378.544 64.2341 378.557 64.337 378.75C64.3756 378.814 64.3756 378.853 64.2856 378.956C64.1955 379.059 64.0282 379.162 63.8481 379.265C63.5006 379.471 63.1532 379.638 62.8186 379.792C62.1367 380.088 61.4933 380.281 60.94 380.41C59.8333 380.668 59.1128 380.68 59.1128 380.783L59.1385 380.796Z" fill="#263238"/>
<path d="M59.3703 381.079C59.4346 381.105 59.8335 380.462 59.9622 379.265C60.0265 378.673 60.0008 377.939 59.7949 377.167C59.692 376.781 59.5504 376.382 59.3703 375.983C59.1644 375.597 58.9199 375.083 58.1993 374.967C57.8262 374.941 57.4916 375.211 57.3758 375.456C57.2343 375.713 57.2085 375.932 57.1442 376.151C57.0541 376.588 57.0412 377.026 57.0798 377.438C57.1571 378.248 57.4659 378.943 57.8004 379.445C58.4953 380.462 59.2673 380.732 59.2802 380.668C59.3445 380.577 58.714 380.191 58.1865 379.213C57.9291 378.737 57.7104 378.107 57.6718 377.399C57.646 377.039 57.6718 376.665 57.7618 376.305C57.839 375.906 58.0063 375.584 58.1607 375.636C58.3537 375.636 58.6626 375.958 58.8041 376.292C58.9843 376.64 59.1258 377 59.2287 377.347C59.4346 378.042 59.5118 378.712 59.5118 379.265C59.5118 380.384 59.2802 381.066 59.3832 381.105L59.3703 381.079Z" fill="#263238"/>
<path d="M136.898 227.596C136.898 227.596 77.4362 202.657 59.0226 201.589C47.4803 200.92 38.7432 208.332 40.3131 220.287C41.098 226.258 57.53 296.224 57.53 296.224L82.5961 284.771L70.552 236.398L119.398 260.141L136.898 227.583V227.596Z" fill="#263238"/>
<path d="M63.0503 224.161C62.8573 224.328 64.826 226.863 66.8977 230.222C68.9823 233.581 70.372 236.476 70.6036 236.373C70.8223 236.296 69.7672 233.182 67.644 229.759C65.5337 226.323 63.2176 223.994 63.0503 224.148V224.161Z" fill="#455A64"/>
<path d="M58.1862 226.94C58.0575 227.158 61.0686 229.063 64.5814 231.662C68.1072 234.249 70.8222 236.54 70.9895 236.359C71.1439 236.192 68.6733 233.58 65.0961 230.955C61.5318 228.329 58.2891 226.734 58.1862 226.94Z" fill="#455A64"/>
<path d="M183.299 242.601C183.299 242.601 175.822 252.239 168.681 254.877C159.725 258.185 93.4566 289.455 93.4566 289.455C93.4566 289.455 81.4383 378.737 82.3905 375.018L54.6607 374.349L57.6717 292.106C58.032 281.567 66.4732 269.483 75.532 264.104L136.885 227.596L183.286 242.601H183.299Z" fill="#263238"/>
<path d="M57.1441 307.15C57.1441 307.15 57.2084 306.763 57.2599 306.017C57.2985 305.194 57.3628 304.113 57.4272 302.787C57.5816 299.982 57.736 295.902 58.5209 290.961C59.3444 286.058 60.8371 280.138 64.5172 274.656C66.3444 271.928 68.7893 269.457 71.6459 267.296C74.5025 265.134 77.7194 263.229 81.0522 261.337C94.3959 253.694 105.912 245.895 114.431 240.555C118.677 237.852 122.126 235.703 124.519 234.236C125.651 233.541 126.565 232.975 127.273 232.538C127.903 232.139 128.225 231.92 128.212 231.894C128.199 231.868 127.852 232.036 127.196 232.383C126.539 232.731 125.574 233.245 124.352 233.94C121.894 235.317 118.394 237.389 114.109 240.027C105.501 245.239 93.9327 252.96 80.6275 260.578C77.2948 262.47 74.0393 264.387 71.1312 266.614C68.2231 268.827 65.7139 271.388 63.8481 274.206C60.1165 279.868 58.6624 285.904 57.9161 290.858C57.2084 295.864 57.1441 299.956 57.0926 302.761C57.0926 304.1 57.0926 305.168 57.0926 306.004C57.0926 306.751 57.1312 307.137 57.1569 307.137L57.1441 307.15Z" fill="#455A64"/>
<path d="M158.824 252.02C158.927 251.905 158.117 251.158 157.126 249.73C156.135 248.314 155.028 246.152 154.501 243.579C153.986 240.992 154.153 238.573 154.526 236.887C154.887 235.188 155.337 234.185 155.208 234.12C155.131 234.069 154.475 234.995 153.935 236.733C153.394 238.457 153.098 241.018 153.651 243.759C154.205 246.487 155.466 248.739 156.637 250.116C157.808 251.506 158.773 252.098 158.824 252.02Z" fill="#455A64"/>
<path d="M64.8516 374.349C64.8516 374.349 64.8902 374.194 64.9417 373.898C64.9803 373.551 65.0447 373.101 65.109 372.547C65.2377 371.299 65.4307 369.549 65.6623 367.348C66.1127 362.767 66.7561 356.243 67.541 348.213C67.927 344.159 68.3516 339.745 68.802 334.997C69.2652 330.248 69.7413 325.165 70.1145 319.812C70.5263 314.471 71.041 308.861 72.006 303.121C73.0097 297.408 74.5024 291.527 77.1016 285.955C79.6494 280.357 83.2652 275.467 87.1641 271.194C91.1274 266.948 95.4123 263.306 99.723 260.128C108.344 253.783 116.85 249.151 123.863 245.058C130.901 241.018 136.512 237.569 140.243 234.969C142.122 233.683 143.537 232.64 144.49 231.907C144.927 231.559 145.274 231.289 145.558 231.07C145.789 230.877 145.918 230.774 145.905 230.761C145.905 230.761 145.763 230.826 145.506 231.006C145.21 231.212 144.85 231.456 144.387 231.778C143.409 232.46 141.955 233.464 140.063 234.699C136.28 237.209 130.644 240.554 123.567 244.531C116.528 248.546 107.971 253.127 99.2597 259.484C94.9105 262.663 90.5741 266.317 86.5465 270.615C82.5833 274.939 78.916 279.894 76.3167 285.594C73.6788 291.269 72.1733 297.215 71.1697 302.98C70.2046 308.758 69.7027 314.394 69.3167 319.748C68.9693 325.101 68.5189 330.184 68.0943 334.932C67.6825 339.681 67.2965 344.108 66.9491 348.161C66.2799 356.204 65.7266 362.729 65.3406 367.323C65.1733 369.536 65.0447 371.273 64.9546 372.534C64.916 373.088 64.8902 373.538 64.8774 373.898C64.8645 374.207 64.8774 374.362 64.8774 374.362L64.8516 374.349Z" fill="#455A64"/>
<path d="M130.142 85.9643C128.431 81.1129 122.743 78.0502 117.751 79.2984C116.605 79.5815 115.473 80.0705 114.302 80.0448C112.848 80.0191 111.536 79.2212 110.107 78.9381C107.045 78.3204 103.699 80.4952 103.004 83.5451C100.572 83.0432 97.8701 83.3906 95.9271 84.9477C93.997 86.5048 93.0962 89.426 94.2801 91.6136C94.7819 92.553 95.6054 93.2994 96.0687 94.2646C96.8279 95.8474 96.4804 97.7519 97.008 99.4249C97.7929 101.908 100.418 103.44 103.004 103.736C105.591 104.032 108.177 103.324 110.686 102.629" fill="#263238"/>
<path d="M118.214 136.859C117.892 134.376 117.673 132.626 117.673 132.626C117.673 132.626 109.387 132.574 106.041 122.292C104.381 117.183 103.275 108.549 102.605 101.458C102.001 95.0753 106.826 89.4646 113.234 89.13L135.264 87.9718L135.74 91.382L141.543 133.745C142.431 140.205 137.889 146.151 131.416 147C124.969 147.849 119.076 143.294 118.227 136.859H118.214Z" fill="#FFC7B1"/>
<path d="M105.707 107.532C105.797 108.252 106.479 108.767 107.225 108.69C107.971 108.613 108.512 107.969 108.422 107.249C108.332 106.528 107.65 106.013 106.903 106.09C106.157 106.168 105.616 106.811 105.707 107.532Z" fill="#263238"/>
<path d="M105.166 105.627C105.359 105.782 106.26 104.855 107.714 104.623C109.168 104.379 110.352 104.958 110.481 104.752C110.545 104.662 110.326 104.366 109.811 104.109C109.297 103.838 108.473 103.645 107.56 103.787C106.659 103.941 105.951 104.392 105.565 104.804C105.166 105.215 105.076 105.563 105.166 105.627V105.627Z" fill="#263238"/>
<path d="M119.527 105.19C119.617 105.911 120.299 106.426 121.045 106.348C121.791 106.271 122.332 105.628 122.242 104.907C122.152 104.186 121.47 103.672 120.723 103.749C119.977 103.826 119.436 104.47 119.527 105.19Z" fill="#263238"/>
<path d="M119.501 103.632C119.694 103.787 120.607 102.86 122.049 102.628C123.503 102.384 124.686 102.963 124.815 102.757C124.879 102.667 124.661 102.371 124.146 102.114C123.631 101.843 122.808 101.65 121.894 101.792C120.993 101.946 120.286 102.397 119.9 102.809C119.514 103.22 119.411 103.568 119.501 103.632V103.632Z" fill="#263238"/>
<path d="M115.937 115.253C115.937 115.163 114.997 115.163 113.505 115.202C113.131 115.227 112.758 115.202 112.655 114.957C112.527 114.7 112.617 114.275 112.733 113.812C112.938 112.859 113.157 111.856 113.376 110.813C114.264 106.541 114.843 103.054 114.663 103.028C114.495 102.989 113.633 106.425 112.745 110.698C112.539 111.753 112.334 112.757 112.141 113.709C112.063 114.159 111.896 114.674 112.179 115.202C112.321 115.459 112.63 115.626 112.874 115.652C113.119 115.691 113.337 115.652 113.517 115.652C115.01 115.498 115.924 115.356 115.911 115.279L115.937 115.253Z" fill="#263238"/>
<path d="M117.673 132.625C117.673 132.625 124.841 131.956 131.185 126.615C131.185 126.615 128.907 134.401 118.214 135.096L117.673 132.625Z" fill="#AA6550"/>
<path d="M120.376 115.575C120.131 115.601 120.376 117.184 119.218 118.509C118.047 119.848 116.335 119.938 116.361 120.156C116.361 120.259 116.786 120.401 117.493 120.311C118.188 120.221 119.179 119.835 119.9 119.024C120.62 118.2 120.826 117.235 120.775 116.579C120.736 115.91 120.491 115.55 120.388 115.575H120.376Z" fill="#263238"/>
<path d="M118.214 97.984C118.42 98.3572 119.848 97.9325 121.585 97.8682C123.322 97.7652 124.777 98.0483 124.944 97.6623C125.021 97.4821 124.725 97.1475 124.107 96.8515C123.49 96.5556 122.563 96.3368 121.521 96.3883C120.479 96.4397 119.565 96.7486 118.986 97.096C118.394 97.4435 118.137 97.8038 118.227 97.984H118.214Z" fill="#263238"/>
<path d="M105.025 101.329C105.333 101.612 106.286 101.11 107.482 100.904C108.679 100.66 109.747 100.776 109.927 100.39C110.004 100.21 109.786 99.9007 109.297 99.6562C108.808 99.4117 108.036 99.283 107.212 99.4374C106.388 99.5918 105.719 100.004 105.359 100.415C104.986 100.827 104.896 101.188 105.037 101.329H105.025Z" fill="#263238"/>
<path d="M101.499 96.8382C101.499 96.8382 107.328 98.8071 114.019 94.3288C118.407 91.3948 123.734 89.5546 125.06 90.3524C126.385 91.1374 127.247 95.9502 132.072 96.761C132.072 96.761 132.922 106.026 136.55 105.228C139.137 104.662 137.631 94.4446 136.55 88.6152C136.113 86.2859 134.118 84.5616 131.738 84.4715L124.957 84.2141L116.49 86.5819L107.405 89.0527L100.495 91.9224L101.486 96.8382H101.499Z" fill="#263238"/>
<path d="M135.753 101.483C135.894 101.38 141.517 98.4336 142.559 104.572C143.602 110.71 137.219 110.491 137.181 110.311C137.142 110.131 135.753 101.483 135.753 101.483Z" fill="#FFC7B1"/>
<path d="M138.66 107.661C138.66 107.661 138.776 107.713 138.969 107.764C139.162 107.815 139.471 107.815 139.767 107.648C140.372 107.301 140.745 106.181 140.591 105.062C140.513 104.495 140.308 103.993 140.037 103.582C139.78 103.17 139.433 102.9 139.098 102.9C138.763 102.874 138.558 103.118 138.519 103.299C138.467 103.479 138.519 103.595 138.493 103.62C138.48 103.633 138.339 103.543 138.352 103.273C138.352 103.144 138.403 102.99 138.532 102.848C138.66 102.707 138.866 102.604 139.098 102.591C139.574 102.539 140.076 102.913 140.372 103.35C140.694 103.8 140.938 104.367 141.028 104.997C141.195 106.245 140.758 107.507 139.922 107.906C139.51 108.086 139.124 108.021 138.918 107.906C138.699 107.79 138.648 107.648 138.66 107.635V107.661Z" fill="#AA6550"/>
<path d="M104.446 81.2805C104.446 81.2805 104.664 81.6022 105.089 82.1041C105.514 82.606 106.286 83.2108 107.405 83.5969C108.525 83.9958 109.953 84.0987 111.497 83.777C113.041 83.481 114.675 82.8247 116.451 82.2071C118.214 81.5894 120.028 81.1518 121.714 81.2677C123.4 81.3449 124.866 82.117 125.703 83.0693C126.578 84.0087 126.925 85.051 126.925 85.7588C126.951 86.4666 126.771 86.8397 126.745 86.8269C126.681 86.8269 126.771 86.4408 126.668 85.7845C126.578 85.1411 126.205 84.2146 125.368 83.4038C124.545 82.5674 123.245 81.9368 121.675 81.8982C120.118 81.821 118.407 82.2457 116.67 82.8505C114.933 83.4553 113.247 84.1245 111.613 84.3947C109.991 84.7036 108.422 84.5363 107.251 84.0473C106.067 83.584 105.282 82.8634 104.883 82.2714C104.484 81.6923 104.407 81.2934 104.446 81.2805V81.2805Z" fill="#455A64"/>
<path d="M125.175 87.161C125.175 87.161 124.866 86.8392 124.223 86.3888C123.593 85.9384 122.525 85.5138 121.135 85.4752C119.745 85.4108 118.124 85.8098 116.451 86.6205C114.765 87.3926 113.002 88.5379 110.866 89.2328C106.556 90.6226 102.322 89.4902 99.8775 88.036C98.6164 87.3154 97.7286 86.5433 97.1753 85.9642C96.622 85.3722 96.3646 85.0119 96.4032 84.9862C96.5061 84.8832 97.6128 86.3245 100.109 87.6242C102.541 88.924 106.582 89.9277 110.673 88.6022C112.694 87.9459 114.457 86.8392 116.207 86.0671C117.931 85.2693 119.707 84.8703 121.173 85.0119C122.64 85.1148 123.786 85.6553 124.39 86.1958C125.021 86.7363 125.214 87.161 125.188 87.1738L125.175 87.161Z" fill="#455A64"/>
<path d="M106.118 191.73L76.2398 166.263L66.3831 168.49C66.3831 168.49 76.7673 190.083 84.2821 197.997C84.2821 197.997 91.7067 207.945 103.957 203.647C116.207 199.348 106.118 191.743 106.118 191.743V191.73Z" fill="#FFC7B1"/>
<path d="M73.9879 138.21H61.2875C59.3702 138.21 57.646 140.436 58.3408 142.264L71.1184 167.139C71.6074 168.104 72.611 168.709 73.6919 168.709L89.1717 168.67C90.9474 168.426 91.5908 166.457 90.8574 165.389L78.5302 141.028C77.6809 139.291 75.918 138.197 73.9879 138.197V138.21Z" fill="#455A64"/>
<path d="M73.1258 139.703H60.4254C58.8298 139.703 57.8004 141.376 58.5338 142.792L71.0026 167.126C71.4916 168.091 72.4952 168.696 73.5761 168.696H88.8886C89.828 168.696 90.4327 167.718 90.0081 166.881L77.6809 142.521C76.8316 140.784 75.0688 139.69 73.1386 139.69L73.1258 139.703Z" fill="#263238"/>
<path d="M72.045 149.895L64.3116 152.984L62.6516 159.212L66.3704 168.477L80.023 170.459L76.0211 166.367L76.5358 162.802C76.5358 162.802 80.3447 161.606 80.4347 161.026C80.5248 160.447 79.9586 158.491 79.3796 158.388C78.8005 158.298 74.7987 159.778 74.7987 159.778C74.7987 159.778 79.534 156.033 79.3925 155.429C79.2638 154.824 78.7491 153.292 77.8097 153.112C76.8704 152.945 69.227 156.535 69.227 156.535L67.9917 159.366L66.9108 154.85C66.9108 154.85 73.6921 152.945 72.0193 149.869L72.045 149.895Z" fill="#FFC7B1"/>
<path d="M73.0229 164.501C73.0229 164.501 72.8299 164.231 72.7655 163.729C72.6883 163.227 72.7269 162.506 72.9971 161.773C73.2674 161.039 73.7177 160.473 74.0909 160.139C74.4769 159.804 74.76 159.688 74.7857 159.727C74.8629 159.817 73.8593 160.538 73.3703 161.914C72.8556 163.266 73.1387 164.475 73.0229 164.501V164.501Z" fill="#AA6550"/>
<path d="M69.3429 163.15C69.3429 163.15 69.5746 162.39 69.6518 161.129C69.7161 160.499 69.7418 159.714 70.0378 158.89C70.1922 158.478 70.3981 158.054 70.7455 157.693C71.0929 157.333 71.5433 157.088 72.0065 156.895C73.8595 156.226 75.5194 155.686 76.7418 155.287C77.9643 154.901 78.7235 154.682 78.7363 154.734C78.7492 154.785 78.0286 155.094 76.8319 155.544C75.6481 156.008 73.9753 156.599 72.161 157.256C71.7235 157.436 71.3246 157.655 71.0286 157.951C70.7326 158.247 70.5268 158.633 70.3852 159.006C70.0893 159.765 70.0249 160.524 69.9349 161.155C69.7804 162.442 69.3944 163.175 69.3429 163.15V163.15Z" fill="#AA6550"/>
<path d="M67.5672 161.747C67.4642 161.734 67.4771 161.052 67.6186 160.229C67.7602 159.405 67.9532 158.749 68.0561 158.775C68.1591 158.787 68.1462 159.469 68.0047 160.293C67.8631 161.117 67.6701 161.773 67.5672 161.747Z" fill="#AA6550"/>
<path d="M67.3612 144.4C67.3612 145.288 68.0818 146.022 68.9825 146.022C69.8832 146.022 70.6038 145.301 70.6038 144.4C70.6038 143.5 69.8832 142.779 68.9825 142.779C68.0818 142.779 67.3612 143.5 67.3612 144.4Z" fill="#FAFAFA"/>
<path d="M127.102 51.1476C127.925 45.098 119.405 40.1397 112.991 39.6228C109.928 39.3739 106.769 39.8525 103.859 38.8379C97.579 36.6554 95.0709 28.5383 88.9633 25.973C84.3875 24.0394 79.1223 25.7624 74.6805 28.0023C70.2386 30.2421 65.8542 33.0372 60.8954 33.3626C56.5876 33.6307 51.8968 32.0417 48.1251 34.1475C45.3106 35.7174 43.8364 38.9527 41.2517 40.8672C38.7245 42.7433 35.4122 43.1262 32.2723 43.2985C29.1324 43.4708 25.8776 43.5091 23.0057 44.8109C20.1338 46.1127 17.7788 49.1566 18.3723 52.2388L127.102 51.1667V51.1476Z" fill="#EBEBEB"/>
</g>
<defs>
<clipPath id="clip0_104_227">
<rect width="428.44" height="488.993" fill="white"/>
</clipPath>
</defs>
</svg>
