<svg width="428" height="489" viewBox="0 0 428 489" fill="none" xmlns="http://www.w3.org/2000/svg">
<path d="M277.273 128.232C277.824 124.188 272.126 120.871 267.839 120.518C265.801 120.353 263.674 120.661 261.734 119.989C257.536 118.523 255.86 113.112 251.772 111.382C248.708 110.093 245.193 111.239 242.218 112.738C239.253 114.225 236.322 116.11 233.005 116.319C230.118 116.507 226.988 115.438 224.464 116.848C222.58 117.895 221.599 120.066 219.869 121.344C218.172 122.59 215.968 122.854 213.863 122.975C211.758 123.086 209.587 123.108 207.67 123.989C205.752 124.871 204.165 126.888 204.573 128.959L277.273 128.243V128.232Z" fill="#F5F5F5"/>
<path d="M295.546 414.336C295.87 410.48 295.341 405.491 290.845 404.004C283.234 401.487 278.723 395.586 278.973 388.918C279.223 382.236 271.215 375.746 265.206 382.001C259.197 388.256 260.005 377.188 251.997 374.495C243.99 371.801 237.202 378.336 239.391 384.297C241.58 390.258 233.676 393.981 224.214 388.918C214.752 383.841 204.335 393.069 206.348 400.295C208.36 407.522 206.715 408.317 200.72 405.918C195.886 403.975 187.967 408.052 187.085 414.351H295.546V414.336Z" fill="#E0E0E0"/>
<path d="M291.926 50.8194C291.926 47.2283 294.835 44.2994 298.435 44.2994C299.082 44.2994 299.713 44.4024 300.301 44.579C300.213 43.9314 300.154 43.2544 300.154 42.5774C300.154 34.9535 306.325 28.7867 313.921 28.7867C314.788 28.7867 315.64 28.8751 316.463 29.0222C318.579 25.5488 322.384 23.2234 326.733 23.2234C333.33 23.2234 338.678 28.5365 338.766 35.1154C338.84 35.1154 338.899 35.1154 338.972 35.1154C345.099 35.1154 350.065 40.0901 350.065 46.2274C350.065 52.3648 345.099 57.3394 338.972 57.3394H298.244C294.733 57.2364 291.926 54.3664 291.926 50.8194V50.8194Z" fill="#F5F5F5"/>
<path d="M-145.084 416.927V435.972H390.565V416.927C390.565 413.615 388.259 410.951 384.953 410.951H-139.486C-142.792 410.951 -145.098 413.615 -145.098 416.927H-145.084Z" fill="#E0E0E0"/>
<path d="M360.034 410.951H326.726V435.972H360.034V410.951Z" fill="#F5F5F5"/>
<path d="M296.195 410.951H264.282V435.972H296.195V410.951Z" fill="#F5F5F5"/>
<path d="M233.751 410.951H200.443V435.972H233.751V410.951Z" fill="#F5F5F5"/>
<path d="M169.911 410.951H137.999V435.972H169.911V410.951Z" fill="#F5F5F5"/>
<path d="M107.468 410.951H75.5554V435.972H107.468V410.951Z" fill="#F5F5F5"/>
<path d="M45.0243 410.951H11.7161V435.972H45.0243V410.951Z" fill="#F5F5F5"/>
<path d="M209.302 167.111C210.738 156.697 196.034 148.12 184.987 147.239C179.722 146.818 174.246 147.622 169.249 145.88C158.431 142.109 154.124 128.134 143.555 123.692C135.667 120.361 126.592 123.328 118.933 127.176C111.294 131.024 103.732 135.868 95.1733 136.423C87.7447 136.902 79.6651 134.145 73.1747 137.782C68.3308 140.482 65.7843 146.072 61.3233 149.364C56.9581 152.581 51.2526 153.27 45.8343 153.557C40.416 153.844 34.8063 153.902 29.8666 156.161C24.927 158.42 20.8489 163.646 21.8636 168.968L209.283 167.111H209.302Z" fill="#F5F5F5"/>
<path d="M89.0548 89.1682C89.9464 83.0559 80.8168 78.0222 73.9578 77.5054C70.6887 77.2582 67.2889 77.7301 64.1863 76.7076C57.4699 74.4942 54.7952 66.2921 48.2334 63.6853C43.3357 61.7303 37.7011 63.4719 32.9461 65.7303C28.203 67.9887 23.5075 70.8313 18.1938 71.1572C13.5815 71.4381 8.56495 69.8201 4.53511 71.9549C1.52758 73.5391 -0.0534504 76.82 -2.82322 78.7526C-5.53356 80.6402 -9.07602 81.0447 -12.4402 81.2132C-15.8043 81.3817 -19.2873 81.4155 -22.3543 82.7413C-25.4213 84.0671 -27.9533 87.1345 -27.3232 90.258L89.0429 89.1682H89.0548Z" fill="#F5F5F5"/>
<path d="M359.75 478.621L199.309 477.885C180.008 477.8 164.437 462.083 164.521 442.781L166.223 40.5267C166.308 21.2125 182.024 5.62837 201.336 5.71287L361.778 6.44922C381.079 6.53372 396.65 22.2507 396.565 41.5528L394.863 443.819C394.779 463.133 379.063 478.718 359.75 478.621V478.621Z" fill="#455A64"/>
<path d="M361.548 20.3432L330.443 20.1983C326.266 20.1742 322.874 23.699 322.862 28.0568L322.838 33.6941C322.826 38.0519 319.422 41.5767 315.258 41.5526L254.628 41.2749C250.451 41.2508 247.084 37.7018 247.108 33.344L247.132 27.7067C247.144 23.3489 243.788 19.7879 239.612 19.7758L228.676 19.7275L201.445 19.6068C187.926 19.5465 176.918 30.459 176.857 43.9789L175.192 436.612C175.131 450.132 186.043 461.129 199.55 461.19L359.678 461.926C373.196 461.986 384.205 451.074 384.265 437.554L385.931 44.9205C385.991 31.4005 375.079 20.4035 361.573 20.3432H361.548Z" fill="#FAFAFA"/>
<path d="M201.469 67.1681C201.349 67.2888 198.657 64.947 195.446 61.9292C195.446 61.0117 195.446 61.6757 195.446 61.4704H195.458L195.482 61.4342L195.518 61.398L195.591 61.3256L195.736 61.1807L196.038 60.9031C196.231 60.722 196.424 60.5409 196.617 60.3599C196.991 60.0098 197.365 59.6718 197.727 59.3459C198.391 58.7544 199.019 58.1991 199.622 57.6559C200.709 56.7022 201.421 56.159 201.481 56.2194C201.542 56.2798 200.938 56.9557 199.924 57.9818C199.345 58.5492 198.753 59.1407 198.126 59.7684L197.051 60.8065L196.472 61.3497L196.182 61.6274L196.038 61.7722L195.965 61.8447L195.929 61.8809H195.905V61.905H195.893C195.893 61.7119 195.893 62.3637 195.893 61.4584C199.103 64.4883 201.614 67.0353 201.493 67.1561L201.469 67.1681Z" fill="#263238"/>
<path d="M368.308 57.9578C368.308 58.682 367.717 59.2615 367.005 59.2615C366.292 59.2615 365.701 58.67 365.701 57.9578C365.701 57.2455 366.292 56.6541 367.005 56.6541C367.717 56.6541 368.308 57.2455 368.308 57.9578Z" fill="#263238"/>
<path d="M367.934 61.5312C368.441 62.0382 368.441 62.8712 367.934 63.3782C367.427 63.8852 366.594 63.8852 366.087 63.3782C365.58 62.8712 365.58 62.0382 366.087 61.5312C366.594 61.0243 367.427 61.0243 367.934 61.5312Z" fill="#263238"/>
<path d="M368.308 66.9633C368.308 67.6875 367.717 68.267 367.005 68.267C366.292 68.267 365.701 67.6755 365.701 66.9633C365.701 66.251 366.292 65.6595 367.005 65.6595C367.717 65.6595 368.308 66.251 368.308 66.9633Z" fill="#263238"/>
<path d="M311.745 63.3053H255.28V68.0131H311.745V63.3053Z" fill="#263238"/>
<path d="M379.312 237.08V361.581C379.312 365.065 376.49 367.887 373.018 367.887H189.108C185.624 367.887 182.801 365.065 182.801 361.581V237.08C182.801 233.608 185.624 230.786 189.108 230.786H373.018C376.49 230.786 379.312 233.608 379.312 237.08Z" fill="#EBEBEB"/>
<path d="M379.312 276.228C354.247 284.071 328.37 292.2 303.543 300.042L326.185 342.263L379.312 344.061V356.561L318.579 354.5L291.416 303.876C279.851 307.535 268.599 311.106 257.834 314.515L282.249 367.887H268.524L245.844 318.336C220.33 326.466 198.337 333.559 182.801 338.679V325.542C187.372 324.043 192.48 322.37 198.075 320.559C209.939 316.713 224.164 312.143 240.612 306.898L219.456 260.631L182.801 272.282V259.183L214.223 249.193L205.805 230.786H219.531L252.601 303.077C265.614 298.943 279.839 294.435 295.238 289.578C304.192 286.755 313.146 283.921 321.976 281.149L298.772 230.786H312.535L333.99 277.365C350.126 272.295 365.549 267.462 379.312 263.141V276.228V276.228Z" fill="white"/>
<rect x="181.658" y="383.882" width="195.369" height="45.7002" rx="6.85504" fill="#EBEBEB"/>
<path d="M372.776 94.828H189.338C186.359 94.828 183.944 97.5109 183.944 100.82V207.656C183.944 210.966 186.359 213.649 189.338 213.649H372.776C375.755 213.649 378.17 210.966 378.17 207.656V100.82C378.17 97.5109 375.755 94.828 372.776 94.828Z" fill="#EBEBEB"/>
<path d="M329.45 103.354H233.226C230.738 103.354 228.722 105.374 228.722 107.866V200.599C228.722 203.09 230.738 205.11 233.226 205.11H329.45C331.937 205.11 333.953 203.09 333.953 200.599V107.866C333.953 105.374 331.937 103.354 329.45 103.354Z" fill="white"/>
<path d="M243.829 156.005H317.262L315.789 142.817L294.632 138.281L274.971 141.714L251.289 144.044L245.412 150.787L243.829 156.005Z" fill="#263238"/>
<path opacity="0.2" d="M243.829 156.005H317.262L315.789 142.817L294.632 138.281L274.971 141.714L251.289 144.044L245.412 150.787L243.829 156.005Z" fill="black"/>
<path d="M264.257 156.005C264.257 160.306 260.78 163.789 256.486 163.789C252.193 163.789 248.716 160.306 248.716 156.005C248.716 151.704 252.193 148.222 256.486 148.222C260.78 148.222 264.257 151.704 264.257 156.005Z" fill="#263238"/>
<path opacity="0.2" d="M256.486 161.211C259.356 161.211 261.683 158.88 261.683 156.005C261.683 153.13 259.356 150.8 256.486 150.8C253.616 150.8 251.29 153.13 251.29 156.005C251.29 158.88 253.616 161.211 256.486 161.211Z" fill="black"/>
<path d="M314.985 156.005C314.985 160.306 311.509 163.789 307.215 163.789C302.922 163.789 299.445 160.306 299.445 156.005C299.445 151.704 302.922 148.222 307.215 148.222C311.509 148.222 314.985 151.704 314.985 156.005Z" fill="#263238"/>
<path opacity="0.2" d="M307.215 161.211C310.085 161.211 312.412 158.88 312.412 156.005C312.412 153.13 310.085 150.8 307.215 150.8C304.345 150.8 302.018 153.13 302.018 156.005C302.018 158.88 304.345 161.211 307.215 161.211Z" fill="black"/>
<path d="M322.273 149.076L321.42 155.161L316.644 156.674C316.644 156.674 316.52 146.386 306.127 146.386C295.733 146.386 297.07 158.644 297.07 158.644H295.251L291.824 157.169H269.379L267.424 158.644H266.1C266.1 158.644 267.202 146.386 256.487 146.386C245.772 146.386 247.133 158.644 247.133 158.644L241.008 156.004L240.402 149.82L242.963 148.221L243.582 144.465C243.854 144.255 244.138 144.056 244.423 143.87C251.587 139.061 261.386 138.417 261.386 138.417C269.812 129.828 273.227 128.613 273.227 128.613C292.566 127.262 311.014 129.344 311.014 129.344L316.644 136.57L317.968 137.649L319.341 138.776C320.195 142.705 319.947 146.386 319.947 146.386L322.273 149.076V149.076Z" fill="#407BFF"/>
<path opacity="0.6" d="M249.743 144.292L245.45 148.221H242.963L243.581 144.466C243.853 144.255 244.138 144.057 244.423 143.871L247.541 143.4L249.743 144.292V144.292Z" fill="white"/>
<path opacity="0.6" d="M319.947 146.387L318.388 145.805C318.388 142.545 316.433 139.273 316.433 139.273L317.967 137.649L319.341 138.777C320.194 142.706 319.947 146.387 319.947 146.387V146.387Z" fill="white"/>
<path d="M316.643 136.571C306.46 139.012 261.386 138.417 261.386 138.417C261.646 138.157 261.893 137.897 262.153 137.649C266.793 132.989 269.812 130.683 271.507 129.58C272.682 128.799 273.227 128.614 273.227 128.614C292.566 127.263 311.014 129.345 311.014 129.345L316.643 136.571V136.571Z" fill="#263238"/>
<path opacity="0.2" d="M322.273 149.077L321.419 155.162L316.643 156.674C316.643 156.674 316.52 146.387 306.126 146.387C295.733 146.387 297.07 158.645 297.07 158.645H295.251L291.823 157.17H269.379L267.424 158.645H266.1C266.1 158.645 267.201 146.387 256.486 146.387C245.771 146.387 247.132 158.645 247.132 158.645L241.008 156.005L240.402 149.82H245.45C245.45 149.82 249.125 143.809 257.204 143.809C265.284 143.809 267.882 149.82 267.882 149.82H293.791C293.791 149.82 298.195 143.722 304.679 143.4C311.162 143.078 314.985 145.804 314.985 145.804H318.388L319.947 146.387L322.273 149.077V149.077Z" fill="black"/>
<path d="M378.682 142.172V158.805H353.342C353.342 158.805 355.025 153.117 356.336 149.25C356.98 147.328 357.536 145.841 357.747 145.73C361.1 143.895 368.969 142.792 378.682 142.172V142.172Z" fill="#263238"/>
<path opacity="0.2" d="M378.682 142.172V158.805H353.342C353.342 158.805 355.025 153.117 356.336 149.25C356.98 147.328 357.536 145.841 357.747 145.73C361.1 143.895 368.969 142.792 378.682 142.172V142.172Z" fill="black"/>
<path d="M367.422 163.776C371.509 163.776 374.821 160.457 374.821 156.364C374.821 152.27 371.509 148.952 367.422 148.952C363.336 148.952 360.023 152.27 360.023 156.364C360.023 160.457 363.336 163.776 367.422 163.776Z" fill="#263238"/>
<path opacity="0.2" d="M367.422 162.92C371.037 162.92 373.968 159.984 373.968 156.363C373.968 152.742 371.037 149.807 367.422 149.807C363.808 149.807 360.877 152.742 360.877 156.363C360.877 159.984 363.808 162.92 367.422 162.92Z" fill="white"/>
<path d="M369.167 135.095C372.792 132.877 375.923 131.067 378.682 129.605V160.999H376.269L375.861 158.805L374.92 153.736C374.364 150.7 371.728 148.506 368.647 148.506H365.69C362.832 148.506 360.333 150.402 359.553 153.154L357.957 158.805L357.339 160.999L347.304 159.698L348.579 151.158L348.777 149.807L350.731 148.506L354.567 139.681L358.13 138.566L369.167 135.095V135.095Z" fill="#407BFF"/>
<path opacity="0.7" d="M360.023 139.186L355.309 147.192L350.744 148.506L354.579 139.682L358.143 138.566C359.256 138.888 360.023 139.186 360.023 139.186Z" fill="white"/>
<path opacity="0.4" d="M378.682 131.799V136.583C376.071 136.62 373.522 136.484 371.332 136.087C371.332 136.087 374.871 133.968 378.682 131.799V131.799Z" fill="black"/>
<path opacity="0.2" d="M378.682 151.357V161H376.269L375.861 158.806L374.92 153.737C374.364 150.7 371.728 148.506 368.647 148.506H365.69C362.832 148.506 360.333 150.403 359.553 153.154L357.957 158.806L357.339 161L347.304 159.698L348.579 151.159L356.114 148.953L356.336 149.25L357.747 151.122C357.747 151.122 360.209 146.375 368.61 146.375C375.316 146.375 377.915 149.932 378.682 151.357V151.357Z" fill="black"/>
<path d="M299.31 195.245H263.379C260.149 195.245 257.539 192.629 257.539 189.394C257.539 186.16 260.149 183.544 263.379 183.544H299.31C302.539 183.544 305.15 186.16 305.15 189.394C305.15 192.629 302.539 195.245 299.31 195.245Z" fill="#407BFF"/>
<mask id="mask0_104_417" style="mask-type:alpha" maskUnits="userSpaceOnUse" x="183" y="115" width="196" height="96">
<path d="M372.776 115.393H189.338C186.359 115.393 183.944 117.534 183.944 120.176V205.439C183.944 208.08 186.359 210.221 189.338 210.221H372.776C375.755 210.221 378.17 208.08 378.17 205.439V120.176C378.17 117.534 375.755 115.393 372.776 115.393Z" fill="white"/>
</mask>
<g mask="url(#mask0_104_417)">
<path d="M127.041 156.693L209.035 156.822L209.054 144.687L127.06 144.558L127.041 156.693Z" fill="#455A64"/>
<path d="M213.324 135.747C213.324 135.747 211.272 135.976 210.909 135.743C210.085 135.213 192.138 127.981 176.718 127.961C164.35 127.944 153.213 131.226 142.38 138.456C142.38 138.456 129.191 139.911 124.04 143.772C122.834 144.47 120.377 147.224 121.314 153.481C121.911 157.473 124.883 157.641 128.941 157.55C128.941 157.55 127.431 145.43 138.234 146.356C147.413 147.144 145.656 158.349 145.656 158.349L191.647 158.419C191.647 158.419 191.848 153.444 192.042 152.236C192.432 149.821 195.433 145.865 201.038 146.453C207.184 147.098 209.229 152.706 208.835 157.439C208.835 157.439 215.319 158.841 216.196 153.625L217.742 153.144C217.742 153.144 218.337 142.324 212.934 137.773L214.095 137.002L213.324 135.745V135.747Z" fill="#407BFF"/>
<path d="M210.266 135.401C210.266 135.401 209.881 136.444 208.565 136.327C207.491 136.233 201.352 133.907 199.117 133.049C198.475 132.803 197.963 132.282 197.78 131.618C197.735 131.453 197.717 131.302 197.75 131.191C197.75 131.191 207.291 133.482 210.266 135.401V135.401Z" fill="#263238"/>
<g opacity="0.3">
<path d="M201.171 136.328C201.171 136.328 201.818 136.89 201.169 137.555C200.52 138.219 197.417 140.527 195.977 140.666C194.536 140.804 150.8 143.726 148.208 142.984C145.616 142.243 144.105 140.93 144.754 140.181L145.93 139.793L166.55 140.214L201.173 136.328H201.171Z" fill="white"/>
</g>
<g opacity="0.7">
<path d="M217.081 145.628C217.081 145.628 214.535 146.383 213.448 144.375C212.363 142.367 211.163 140.244 211.163 139.785C211.163 139.208 211.573 137.361 212.936 137.737C212.936 137.737 216.721 140.752 217.081 145.628Z" fill="white"/>
</g>
<path d="M200.738 136.328C200.738 136.328 196.914 139.656 195.258 139.652C193.601 139.65 149.937 142.3 147.994 141.514C146.05 140.728 145.039 140.085 145.039 140.085C145.039 140.085 159.287 129.823 175.891 130.317C188.076 130.677 200.738 136.326 200.738 136.326V136.328Z" fill="#263238"/>
<path d="M205.166 160.49C208.023 157.632 208.023 153 205.166 150.142C202.308 147.285 197.676 147.285 194.819 150.142C191.961 153 191.961 157.632 194.819 160.49C197.676 163.347 202.308 163.347 205.166 160.49Z" fill="#263238"/>
<path d="M200 150.443C197.308 150.439 195.128 152.619 195.123 155.311C195.119 157.996 197.291 160.183 199.984 160.189C202.676 160.193 204.856 158.013 204.861 155.328C204.865 152.636 202.692 150.448 200 150.445V150.443ZM196.09 155.313C196.093 153.157 197.842 151.406 199.998 151.41C202.154 151.413 203.898 153.17 203.894 155.326C203.891 157.482 202.141 159.226 199.985 159.222C197.83 159.218 196.086 157.469 196.09 155.313Z" fill="#1E282D"/>
<path d="M199.999 151.407C197.843 151.404 196.094 153.157 196.09 155.311C196.086 157.467 197.832 159.216 199.986 159.22C202.142 159.223 203.891 157.478 203.894 155.324C203.898 153.17 202.153 151.411 199.999 151.407Z" fill="#1E282D"/>
</g>
<path opacity="0.2" d="M219.648 162.321L225.674 170.377V154.277L219.648 162.321Z" fill="black"/>
<path opacity="0.2" d="M343.027 162.321L337.001 154.277V170.377L343.027 162.321Z" fill="black"/>
<path d="M210.863 351.67H198.846V477.579H210.863V351.67Z" fill="#263238"/>
<path opacity="0.2" d="M210.863 351.67H198.846V477.579H210.863V351.67Z" fill="black"/>
<path d="M296.895 351.67H284.877V477.579H296.895V351.67Z" fill="#263238"/>
<path opacity="0.2" d="M296.895 351.67H284.877V477.579H296.895V351.67Z" fill="black"/>
<path d="M96.1482 351.67H84.1311V477.579H96.1482V351.67Z" fill="#263238"/>
<path d="M10.1165 351.67H-1.90063V477.579H10.1165V351.67Z" fill="#263238"/>
<path d="M321.522 347.013V356.326C321.522 357.829 320.319 359.051 318.819 359.051H-13.2752C-14.7753 359.051 -15.9951 357.829 -15.9951 356.326V347.013C-15.9951 345.527 -14.7753 344.305 -13.2752 344.305H318.819C320.319 344.305 321.522 345.527 321.522 347.013Z" fill="#263238"/>
<path opacity="0.1" d="M321.522 347.013V356.326C321.522 357.829 320.319 359.051 318.819 359.051H-13.2752C-14.7753 359.051 -15.9951 357.829 -15.9951 356.326V347.013C-15.9951 345.527 -14.7753 344.305 -13.2752 344.305H318.819C320.319 344.305 321.522 345.527 321.522 347.013Z" fill="white"/>
<path opacity="0.2" d="M77.7515 347.013V356.326C77.7515 357.829 76.5482 359.051 75.0481 359.051H-13.2752C-14.7753 359.051 -15.9951 357.829 -15.9951 356.326V347.013C-15.9951 345.527 -14.7753 344.305 -13.2752 344.305H75.0481C76.5482 344.305 77.7515 345.527 77.7515 347.013Z" fill="white"/>
<path d="M157.532 233.504L171.839 208.157L179.269 207.194C179.269 207.194 177.545 224.874 174.331 232.3C174.331 232.3 171.699 241.118 162.075 241.249C152.451 241.38 157.535 233.513 157.535 233.513L157.532 233.504Z" fill="#FFC7B1"/>
<path d="M150.553 199.844C156.304 203.969 155.32 215.536 157.583 218.843C159.568 233.096 164.199 221.489 164.199 221.489L176.77 223.474C176.77 223.474 177.486 231.045 170.815 240.676C164.145 250.324 151.437 248.902 144.461 233.424C137.484 217.947 150.57 199.844 150.57 199.844H150.553Z" fill="#407BFF"/>
<path d="M150.553 199.844C156.304 203.969 155.32 215.536 157.583 218.843C159.568 233.096 164.199 221.489 164.199 221.489L176.77 223.474C176.77 223.474 177.486 231.045 170.815 240.676C164.145 250.324 151.437 248.902 144.461 233.424C137.484 217.947 150.57 199.844 150.57 199.844H150.553Z" fill="white" fill-opacity="0.2"/>
<path d="M226.174 468.588L237.661 465.435L235.602 437.377L224.149 440.548L226.174 468.588Z" fill="#EBB376"/>
<path d="M238.358 463.9L225.051 464.821C224.592 464.821 224.217 465.213 224.234 465.69L224.319 476.31C224.404 477.452 225.391 478.338 226.531 478.27C231.177 477.878 233.372 477.452 239.226 476.992C242.816 476.736 249.946 476.565 254.813 475.423C259.68 474.298 258.42 469.508 256.276 469.56C251.154 469.645 243.99 466.832 240.468 464.429C239.855 464.02 239.124 463.832 238.375 463.883L238.358 463.9Z" fill="#263238"/>
<path d="M242.697 465.639C241.625 465.69 240.553 465.622 239.498 465.434C239.396 465.434 239.294 465.349 239.277 465.247C239.26 465.145 239.277 465.025 239.362 464.957C239.719 464.667 242.935 462.145 244.416 462.605C244.756 462.724 245.028 462.997 245.113 463.355C245.352 463.883 245.249 464.497 244.875 464.923C244.263 465.434 243.48 465.69 242.68 465.656L242.697 465.639ZM244.263 463.167C243.463 462.912 241.557 464.054 240.247 465.025C242.391 465.298 243.956 465.128 244.467 464.531C244.688 464.241 244.739 463.866 244.603 463.525C244.569 463.355 244.433 463.219 244.263 463.167Z" fill="#263238"/>
<path d="M239.566 465.434C239.566 465.434 239.498 465.468 239.447 465.451C239.362 465.417 239.311 465.331 239.277 465.246C239.277 465.144 238.749 461.701 239.855 460.456C240.162 460.132 240.57 459.962 241.013 459.996C241.506 459.979 241.931 460.303 242.068 460.763C242.425 462.042 240.825 464.65 239.702 465.434C239.651 465.451 239.6 465.451 239.549 465.434H239.566ZM240.876 460.593C240.655 460.593 240.451 460.712 240.298 460.882C239.634 461.615 239.685 463.593 239.787 464.701C240.74 463.763 241.744 461.803 241.557 460.951C241.523 460.797 241.404 460.61 241.013 460.593H240.876V460.593Z" fill="#263238"/>
<path opacity="0.2" d="M224.149 440.547L235.602 437.393L236.776 453.433L225.256 456.007L224.149 440.547Z" fill="black"/>
<path d="M211.182 468.178L200.343 473.121L197.586 461.462L193.877 445.78L204.682 440.82L208.392 456.485L211.182 468.178Z" fill="#EBB376"/>
<path opacity="0.2" d="M208.392 456.485L197.586 461.462L193.877 445.78L204.682 440.82L208.392 456.485Z" fill="black"/>
<path d="M211.625 466.56L198.624 469.594C198.165 469.679 197.859 470.123 197.944 470.583L199.713 481.049C199.969 482.174 201.092 482.873 202.215 482.634C206.741 481.492 208.834 480.725 214.535 479.344C218.04 478.509 225.051 477.214 229.679 475.322C234.308 473.43 232.3 468.912 230.19 469.304C225.153 470.208 217.632 468.571 213.769 466.765C213.088 466.458 212.34 466.39 211.625 466.56V466.56Z" fill="#263238"/>
<path d="M216.186 467.582C215.13 467.803 214.075 467.906 213.003 467.889C212.901 467.889 212.799 467.837 212.748 467.735C212.714 467.633 212.731 467.514 212.782 467.428C213.089 467.087 215.845 464.07 217.411 464.292C217.768 464.343 218.074 464.582 218.21 464.923C218.517 465.4 218.534 466.013 218.227 466.508C217.7 467.104 216.985 467.496 216.186 467.582V467.582ZM217.343 464.889C216.509 464.769 214.824 466.184 213.667 467.36C215.828 467.292 217.343 466.866 217.768 466.201C217.938 465.877 217.921 465.502 217.734 465.195C217.666 465.025 217.513 464.906 217.343 464.889Z" fill="#263238"/>
<path d="M213.055 467.872C213.055 467.872 212.987 467.923 212.952 467.923C212.867 467.889 212.799 467.838 212.748 467.753C212.731 467.651 211.676 464.344 212.561 462.929C212.799 462.571 213.191 462.332 213.633 462.281C214.11 462.179 214.603 462.434 214.807 462.878C215.352 464.071 214.195 466.918 213.208 467.855C213.157 467.889 213.106 467.889 213.055 467.889V467.872ZM213.565 462.878C213.344 462.929 213.157 463.065 213.055 463.253C212.51 464.088 212.867 466.014 213.157 467.105C213.956 466.031 214.637 463.935 214.314 463.133C214.246 462.98 214.11 462.81 213.718 462.861H213.582L213.565 462.878Z" fill="#263238"/>
<path d="M130.848 308.886L127.359 270.124L62.7477 271.641C62.7477 271.641 55.0903 325.642 60.6547 335.563C70.5753 353.273 135.714 343.216 150.944 344.733C157.155 348.057 190.457 458.548 190.457 458.548L209.09 451.013C209.09 451.013 189.044 357.756 184.484 340.182C178.137 315.755 152.254 316.182 130.865 308.869L130.848 308.886Z" fill="#407BFF"/>
<path opacity="0.6" d="M130.848 308.886L127.359 270.124L62.7477 271.641C62.7477 271.641 55.0903 325.642 60.6547 335.563C70.5753 353.273 135.714 343.216 150.944 344.733C157.155 348.057 190.457 458.548 190.457 458.548L209.09 451.013C209.09 451.013 189.044 357.756 184.484 340.182C178.137 315.755 152.254 316.182 130.865 308.869L130.848 308.886Z" fill="white"/>
<path d="M237.916 449.121L221.478 450.638C221.478 450.638 201.313 347.801 199.765 347.375C196.957 346.574 188.789 345.653 184.399 344.511C153.888 336.568 78.7773 321.943 78.7773 321.943L106.48 295.215C106.48 295.215 232.079 310.317 234.87 339.841C236.214 354.04 237.933 449.121 237.933 449.121H237.916Z" fill="#407BFF"/>
<path opacity="0.6" d="M237.916 449.121L221.478 450.638C221.478 450.638 201.313 347.801 199.765 347.375C196.957 346.574 188.789 345.653 184.399 344.511C153.888 336.568 78.7773 321.943 78.7773 321.943L106.48 295.215C106.48 295.215 232.079 310.317 234.87 339.841C236.214 354.04 237.933 449.121 237.933 449.121H237.916Z" fill="white"/>
<path opacity="0.2" d="M195.306 347.461C192.498 346.66 188.772 345.671 184.381 344.529C185.59 345.177 182.067 329.154 178.545 325.012C171.551 316.762 143.491 312.296 133.434 310.676C125.011 309.33 96.7805 306.824 96.7805 306.824C96.7805 306.824 142.927 305.574 180.516 315.903C189.388 320.679 199.475 336.109 195.323 347.461H195.306Z" fill="black"/>
<path d="M128.822 278.05C132.6 256.351 138.964 227.271 150.723 200.083C144.529 197.458 138.165 195.293 131.664 193.606C122.169 191.032 112.538 189.003 102.821 187.537C96.0998 186.821 89.3272 186.634 82.5716 186.975C82.5716 186.975 68.0055 214.231 60.6204 278.05H128.822V278.05Z" fill="#407BFF"/>
<path d="M107.79 205.931C107.79 205.931 90.8419 192.379 88.6979 184.368C86.5538 176.356 96.5084 170.953 110.462 174.038C124.415 177.123 137.331 185.919 133.213 196.283C129.095 206.647 121.88 208.999 121.88 208.999C121.88 208.999 118.885 203.05 107.79 205.931Z" fill="#407BFF"/>
<path d="M142.366 213.425L145.674 212.102L152.902 208.569L155.067 199.41C155.411 197.979 156.288 196.739 157.519 195.938C158.826 195.089 160.429 194.821 161.946 195.184L168.213 197.75C168.738 197.96 169.139 198.409 169.244 198.962C169.329 199.429 169.215 199.878 168.414 199.811C166.859 199.687 163.615 199.344 163.615 199.344L165.094 204.562C165.485 205.927 165.332 207.396 164.674 208.655L163.729 210.458L161.946 212.102L160.23 213.425C160.23 213.425 149.997 225.945 138.397 227.319C131.423 228.149 125.826 222.026 125.826 222.026L127.811 219.77L142.366 213.425Z" fill="#FFC7B1"/>
<path d="M163.805 199.706C163.805 199.706 163.643 199.486 163.29 199.248C162.937 199.019 162.374 198.723 161.678 198.752C160.963 198.79 160.438 199.257 160.257 199.668C160.066 200.097 160.19 200.383 160.218 200.374C160.276 200.374 160.238 200.097 160.447 199.773C160.648 199.458 161.115 199.095 161.697 199.067C162.289 199.038 162.813 199.267 163.185 199.448C163.557 199.63 163.786 199.754 163.805 199.715V199.706Z" fill="#AA6550"/>
<path d="M161.125 202.959C161.125 202.959 161.259 202.788 161.469 202.53C161.669 202.282 162.003 201.967 162.451 201.795C162.9 201.614 163.358 201.614 163.673 201.662C163.997 201.71 164.188 201.776 164.216 201.738C164.235 201.71 164.064 201.557 163.72 201.442C163.386 201.337 162.862 201.299 162.337 201.5C161.812 201.71 161.459 202.091 161.288 202.406C161.106 202.721 161.087 202.94 161.125 202.959V202.959Z" fill="#AA6550"/>
<path opacity="0.2" d="M107.79 205.931C107.79 205.931 90.8419 192.379 88.6979 184.368C86.5538 176.356 96.5084 170.953 110.462 174.038C124.415 177.123 137.331 185.919 133.213 196.283C129.095 206.647 121.88 208.999 121.88 208.999C121.88 208.999 118.885 203.05 107.79 205.931Z" fill="white"/>
<path d="M117.624 164.177C115.037 173.501 109.448 189.024 100.685 191.717C100.685 191.717 106.614 203.177 116.28 204.064C122.423 204.626 125.826 197.672 125.826 197.672C119.564 196.495 121.946 191.893 126.898 186.132L117.624 164.194V164.177Z" fill="#FFBF9D"/>
<path opacity="0.2" d="M122.663 172.111L128.142 185.1C126.968 186.43 125.913 187.861 124.994 189.379C118.834 189.839 114.41 180.055 115.924 176.083C116.469 174.446 121.574 173.441 122.68 172.111H122.663Z" fill="black"/>
<path d="M128.142 243.243H128.108C127.87 243.243 127.699 243.022 127.716 242.783C129.129 221.902 122.152 208.266 122.084 208.146C121.982 207.942 122.05 207.686 122.271 207.567C122.475 207.464 122.731 207.533 122.85 207.754C122.918 207.891 130.014 221.715 128.584 242.851C128.584 243.073 128.38 243.243 128.159 243.243H128.142Z" fill="white"/>
<path d="M102.362 235.812C102.362 235.812 102.209 235.795 102.141 235.761C101.937 235.641 101.869 235.386 101.988 235.181C109.628 222.175 107.382 204.55 107.365 204.362C107.331 204.124 107.501 203.919 107.722 203.885C107.944 203.851 108.165 204.021 108.199 204.243C108.216 204.431 110.496 222.329 102.72 235.607C102.634 235.744 102.498 235.812 102.345 235.812H102.362Z" fill="white"/>
<path d="M127.818 242.528C127.818 242.528 129.18 242.596 128.941 244.812L126.95 244.607C126.95 244.607 126.729 242.749 127.818 242.528Z" fill="white"/>
<path d="M102.498 234.602C102.498 234.602 103.638 235.369 102.294 237.142L100.677 235.949C100.677 235.949 101.426 234.244 102.498 234.602V234.602Z" fill="white"/>
<path d="M84.1886 186.992C90.7399 188.509 106.446 215.714 114.835 220.726C123.224 225.737 146.435 209.612 146.435 209.612L154.382 219.515C154.382 219.515 135.578 236.118 119.123 236.51C102.669 236.902 79.3389 213.6 75.8675 205.043C72.3961 196.504 76.2249 185.134 84.1886 186.975V186.992Z" fill="#407BFF"/>
<path opacity="0.2" d="M84.1886 186.992C90.7399 188.509 106.446 215.714 114.835 220.726C123.224 225.737 146.435 209.612 146.435 209.612L154.382 219.515C154.382 219.515 135.578 236.118 119.123 236.51C102.669 236.902 79.3389 213.6 75.8675 205.043C72.3961 196.504 76.2249 185.134 84.1886 186.975V186.992Z" fill="white"/>
<path d="M140.544 156.266C142.681 156.88 145.184 155.649 146.011 153.581C146.838 151.514 145.865 148.899 143.895 147.87C145.487 146.704 146.2 144.488 145.599 142.607C144.994 140.735 143.111 139.345 141.138 139.332C141.377 137.4 140.54 135.374 139.005 134.178C137.471 132.981 135.301 132.652 133.486 133.359C131.669 131.191 128.274 130.549 125.792 131.91C123.985 131.25 121.793 131.906 120.642 133.437C119.491 134.969 119.465 137.257 120.593 138.81" fill="#263238"/>
<path d="M138.392 181.488C139.284 176.574 140.295 166.306 141.095 156.998C141.957 146.999 134.997 138.004 125.095 136.343L124.115 136.179C113.405 135.013 106.427 143.464 105.559 154.202L100.686 191.717L125.827 197.672L126.078 191.541C126.078 191.541 136.543 191.675 138.388 181.497L138.392 181.488Z" fill="#FFBF9D"/>
<path d="M126.168 191.535C126.168 191.535 119.594 190.83 113.467 185.375C113.467 185.375 115.372 193.24 125.709 194.036L126.178 191.539L126.168 191.535Z" fill="#FF9A6C"/>
<path d="M135.238 165.154C135.139 165.93 134.397 166.475 133.586 166.383C132.774 166.291 132.199 165.592 132.307 164.821C132.406 164.045 133.147 163.499 133.959 163.591C134.771 163.683 135.346 164.382 135.238 165.154Z" fill="#263238"/>
<path d="M138.063 161.617C137.849 161.78 136.887 160.772 135.318 160.512C133.757 160.232 132.468 160.843 132.332 160.619C132.262 160.523 132.507 160.208 133.069 159.928C133.621 159.644 134.529 159.434 135.495 159.604C136.471 159.777 137.234 160.268 137.639 160.718C138.054 161.171 138.163 161.538 138.067 161.607L138.063 161.617Z" fill="#263238"/>
<path d="M121.341 162.958C121.242 163.734 120.501 164.28 119.689 164.188C118.877 164.096 118.302 163.397 118.41 162.625C118.509 161.85 119.25 161.304 120.062 161.396C120.874 161.488 121.449 162.187 121.341 162.958Z" fill="#263238"/>
<path d="M122.766 159.412C122.568 159.592 121.528 158.662 119.939 158.526C118.362 158.361 117.13 159.073 116.976 158.864C116.893 158.773 117.114 158.437 117.66 158.117C118.196 157.793 119.067 157.513 120.056 157.603C121.046 157.694 121.842 158.133 122.282 158.553C122.735 158.967 122.866 159.333 122.766 159.412V159.412Z" fill="#263238"/>
<path d="M126.335 171.899C126.339 171.812 127.35 171.801 128.957 171.868C129.364 171.898 129.759 171.879 129.871 171.617C130.009 171.344 129.918 170.885 129.801 170.382C129.588 169.352 129.364 168.273 129.131 167.134C128.215 162.521 127.632 158.758 127.817 158.715C127.997 158.681 128.89 162.389 129.806 167.002C130.02 168.133 130.228 169.227 130.427 170.263C130.497 170.746 130.677 171.309 130.373 171.864C130.218 172.152 129.885 172.308 129.618 172.338C129.348 172.377 129.122 172.336 128.92 172.317C127.319 172.131 126.335 171.976 126.339 171.889L126.335 171.899Z" fill="#263238"/>
<path d="M123.097 154.026C122.936 154.455 121.526 154.185 119.836 154.337C118.153 154.448 116.784 154.936 116.578 154.539C116.484 154.344 116.739 153.955 117.307 153.556C117.862 153.163 118.746 152.8 119.752 152.721C120.759 152.642 121.674 152.855 122.271 153.165C122.872 153.466 123.162 153.822 123.097 154.026Z" fill="#263238"/>
<path d="M138.668 157.245C138.284 157.523 137.207 156.887 135.806 156.543C134.416 156.149 133.156 156.175 132.975 155.744C132.899 155.534 133.163 155.227 133.76 155.018C134.349 154.805 135.274 154.735 136.227 154.987C137.181 155.239 137.945 155.753 138.351 156.225C138.767 156.701 138.837 157.107 138.668 157.245V157.245Z" fill="#263238"/>
<path d="M140.893 152.16C140.893 152.16 139.278 145.325 136.446 143.31C133.02 140.875 130.727 144.693 127.347 143.107C123.958 141.518 120.698 139.187 116.604 141.319C112.127 143.653 113.635 146.076 112.626 150.564C108.54 168.738 104.32 173.37 104.817 164.563C104.873 163.603 102.369 162.402 102.656 158.335C103.026 153.066 103.882 146.733 105.667 143.251C107.165 140.309 109.299 138.467 112.865 136.64C118.497 133.749 125.386 134.832 129.98 136.085C134.574 137.338 142.674 144.232 140.897 152.15L140.893 152.16Z" fill="#263238"/>
<path d="M105.518 164.398C105.718 162.815 104.568 161.34 102.981 161.227C101.05 161.088 98.7526 161.81 98.2168 165.759C97.2692 172.771 104.499 172.276 104.538 172.082C104.562 171.948 105.149 167.336 105.518 164.398Z" fill="#FFBF9D"/>
<path d="M103.365 169.236C103.365 169.236 103.237 169.303 103.008 169.372C102.794 169.435 102.444 169.451 102.091 169.268C101.39 168.891 100.922 167.63 101.064 166.365C101.139 165.722 101.345 165.136 101.645 164.667C101.93 164.181 102.307 163.867 102.689 163.853C103.069 163.816 103.303 164.071 103.366 164.285C103.433 164.491 103.374 164.631 103.402 164.643C103.416 164.66 103.564 164.547 103.546 164.252C103.542 164.106 103.473 163.933 103.331 163.773C103.18 163.609 102.946 163.509 102.686 163.497C102.137 163.462 101.589 163.892 101.265 164.417C100.914 164.93 100.653 165.592 100.578 166.312C100.427 167.729 100.972 169.144 101.946 169.582C102.423 169.785 102.854 169.682 103.087 169.549C103.325 169.407 103.389 169.258 103.365 169.236V169.236Z" fill="#FF9A6C"/>
<path d="M107.923 150.912C108.721 151.684 109.576 152.48 110.645 152.77C111.715 153.061 113.075 152.647 113.435 151.595C113.602 151.125 113.576 150.539 113.957 150.216C114.408 149.833 115.093 150.092 115.667 150.249C117.664 150.803 119.971 149.72 120.819 147.838C121.203 148.699 122.412 148.872 123.281 148.491C124.147 148.12 124.795 147.38 125.524 146.784C126.253 146.189 127.222 145.707 128.118 145.99C128.624 146.151 129.053 146.544 129.579 146.581C130.508 146.657 131.135 145.653 131.424 144.77C131.712 143.887 132.004 142.84 132.866 142.479C133.661 142.144 134.542 142.564 135.369 142.829C136.196 143.093 137.316 143.085 137.664 142.294C137.844 141.873 137.738 141.397 137.562 140.979C136.765 139.091 134.522 137.924 132.518 138.373C132.222 135.959 130.369 133.798 128.03 133.142C125.681 132.482 122.979 133.374 121.477 135.287C120.23 133.704 118.183 132.776 116.164 132.898C114.148 133.01 112.218 134.165 111.165 135.882C109.545 135.146 107.502 135.479 106.19 136.688C104.878 137.897 104.389 139.899 104.987 141.58C103.61 142.086 102.326 143.152 102.057 144.585C101.785 146.027 102.951 147.697 104.405 147.554C103.656 148.583 103.857 150.183 104.836 150.999C105.818 151.805 107.429 151.708 108.293 150.772" fill="#263238"/>
<path d="M132.707 140.52C132.707 140.52 132.71 140.565 132.687 140.644C132.664 140.723 132.641 140.857 132.577 141.006C132.455 141.319 132.25 141.773 131.842 142.262C131.438 142.742 130.842 143.284 130.022 143.652C129.211 144.024 128.149 144.234 127.027 143.988L127.174 143.851C127.289 144.486 127.109 145.194 126.705 145.751C126.316 146.326 125.781 146.805 125.221 147.262C124.938 147.484 124.681 147.75 124.305 147.932C123.942 148.109 123.54 148.17 123.125 148.158C122.321 148.125 121.473 147.73 121.022 146.974L121.298 146.948C120.884 148.307 119.866 149.553 118.465 150.193C117.722 150.562 116.852 150.71 116.055 150.558C115.254 150.415 114.535 150.053 113.885 149.687L114.082 149.638C113.562 150.444 112.858 151.083 112.068 151.509C111.288 151.939 110.323 152.102 109.528 151.762C107.937 151.139 107.074 149.588 107.076 148.262L107.223 148.358C106.33 148.662 105.445 148.561 104.769 148.306C104.08 148.056 103.568 147.65 103.227 147.283C102.881 146.903 102.7 146.55 102.594 146.306C102.502 146.056 102.471 145.921 102.475 145.912C102.519 145.886 102.619 146.482 103.318 147.2C103.667 147.548 104.168 147.928 104.837 148.147C105.493 148.371 106.331 148.453 107.165 148.157L107.308 148.107L107.308 148.262C107.333 149.499 108.159 150.957 109.632 151.519C110.352 151.827 111.203 151.67 111.94 151.266C112.676 150.862 113.349 150.243 113.836 149.489L113.911 149.366L114.042 149.422C114.679 149.793 115.37 150.143 116.111 150.272C116.857 150.413 117.633 150.28 118.345 149.932C119.661 149.333 120.615 148.16 121.021 146.874L121.124 146.553L121.297 146.848C121.682 147.499 122.433 147.863 123.163 147.887C123.52 147.907 123.889 147.844 124.204 147.702C124.51 147.556 124.776 147.294 125.068 147.076C125.624 146.628 126.143 146.163 126.512 145.636C126.89 145.112 127.053 144.496 126.955 143.924L126.931 143.747L127.101 143.787C128.155 144.038 129.173 143.853 129.959 143.515C130.767 143.174 131.347 142.67 131.762 142.217C132.575 141.271 132.68 140.531 132.727 140.551L132.707 140.52Z" fill="#455A64"/>
<path d="M121.382 173.224C123.23 173.892 124.992 174.787 126.625 175.882L126.637 175.931C126.208 177.196 125.58 178.564 124.345 179.076C123.42 179.455 122.309 179.235 121.542 178.598C120.775 177.961 120.358 177.098 120.362 176.105C120.366 175.112 120.918 174.077 121.372 173.22L121.382 173.224Z" fill="#FF9A6C"/>
<path d="M123.158 179.11C123.175 179.017 122.318 179.16 121.471 178.323C121.059 177.915 120.703 177.299 120.639 176.543C120.566 175.782 120.761 174.936 121.163 174.124C121.252 173.941 121.386 173.678 121.472 173.582C121.529 173.551 121.434 173.566 121.508 173.575L121.788 173.695C122.178 173.894 122.554 174.077 122.929 174.259C123.609 174.582 124.265 174.884 124.883 175.17C126.003 175.681 126.712 175.962 126.74 175.896C126.768 175.831 126.12 175.433 125.042 174.851C124.439 174.528 123.808 174.192 123.14 173.841C122.769 173.649 122.398 173.458 122.008 173.258C121.895 173.21 121.829 173.159 121.688 173.1C121.551 173.008 121.2 173.079 121.109 173.239C120.911 173.497 120.848 173.67 120.716 173.901C120.291 174.769 120.071 175.725 120.187 176.593C120.28 177.461 120.738 178.176 121.236 178.588C121.727 179.018 122.269 179.172 122.622 179.201C122.987 179.225 123.174 179.15 123.163 179.123L123.158 179.11Z" fill="#263238"/>
<path d="M168.285 185.923L177.428 183.674C178.809 183.335 180.444 184.632 180.267 186.071L175.473 206.241C175.292 207.023 174.677 207.636 173.898 207.827L162.747 210.541C161.426 210.679 160.614 209.375 160.953 208.477L165.514 188.756C165.818 187.355 166.893 186.256 168.283 185.914L168.285 185.923Z" fill="#455A64"/>
<path d="M169.17 186.846L178.313 184.598C179.462 184.315 180.499 185.337 180.222 186.486L175.554 206.213C175.373 206.994 174.758 207.608 173.98 207.799L162.956 210.51C162.279 210.677 161.671 210.08 161.828 209.402L166.39 189.682C166.693 188.281 167.769 187.181 169.158 186.84L169.17 186.846Z" fill="#263238"/>
<path d="M171.376 193.468L177.547 193.646L180.291 197.559L179.019 209.818L171.065 209.818L172.808 205.949L171.541 203.598C171.541 203.598 168.584 203.736 168.374 203.356C168.163 202.976 168.059 201.47 168.436 201.251C168.816 201.04 171.979 201.05 171.979 201.05C171.979 201.05 167.728 199.651 167.672 199.193C167.607 198.74 167.575 197.542 168.183 197.177C168.795 196.821 175.031 197.372 175.031 197.372L176.613 199.028L176.214 195.608C176.214 195.608 171.007 196.011 171.388 193.443L171.376 193.468Z" fill="#FFC7B1"/>
<path d="M174.42 203.886C174.42 203.886 174.485 203.648 174.402 203.282C174.328 202.913 174.117 202.422 173.742 201.98C173.367 201.538 172.909 201.259 172.564 201.121C172.21 200.986 171.983 200.978 171.975 201.011C171.944 201.094 172.827 201.34 173.518 202.173C174.221 202.983 174.332 203.897 174.42 203.886V203.886Z" fill="#AA6550"/>
<path d="M176.637 202.005C176.637 202.005 176.282 201.535 175.907 200.677C175.701 200.255 175.483 199.715 175.067 199.217C174.854 198.97 174.603 198.726 174.269 198.564C173.935 198.402 173.56 198.347 173.188 198.33C171.727 198.337 170.434 198.384 169.481 198.418C168.532 198.461 167.947 198.502 167.952 198.541C167.956 198.58 168.536 198.611 169.484 198.62C170.426 198.641 171.742 198.626 173.172 198.62C173.523 198.634 173.856 198.685 174.138 198.815C174.419 198.946 174.661 199.162 174.855 199.386C175.254 199.839 175.493 200.351 175.716 200.767C176.152 201.624 176.607 202.036 176.637 202.005V202.005Z" fill="#AA6550"/>
<path d="M177.516 200.578C177.584 200.543 177.401 200.071 177.093 199.534C176.784 198.997 176.483 198.589 176.417 198.633C176.349 198.668 176.532 199.14 176.84 199.677C177.149 200.214 177.451 200.622 177.516 200.578Z" fill="#AA6550"/>
<path d="M174.151 189.207C174.309 189.846 173.92 190.502 173.271 190.662C172.623 190.821 171.976 190.43 171.817 189.781C171.657 189.133 172.049 188.486 172.697 188.327C173.345 188.167 173.992 188.559 174.151 189.207Z" fill="#FAFAFA"/>
<path d="M67.2278 277.194C67.2278 277.194 77.9579 285.239 81.8068 303.351C85.6558 321.451 100.096 361.491 67.2278 345.68L68.0723 341.935C68.0723 341.935 78.5532 350.895 82.3883 344.862C86.2096 338.829 84.2297 306.458 68.7923 289.261L67.2278 277.194V277.194Z" fill="#263238"/>
<path d="M45.0894 269.691C45.0894 269.691 48.9937 261.827 54.7395 261.647C60.4853 261.467 62.4928 263.103 62.1329 268.776L59.5438 268.956C59.5438 268.956 62.1605 264.213 55.9163 264.019C49.6721 263.825 47.8861 269.691 47.8861 269.691H45.0894V269.691Z" fill="#263238"/>
<path d="M13.7574 348.758C13.7574 348.758 8.70387 317.428 21.8569 307.928C21.8569 307.928 19.7662 301.354 30.3578 279.746C34.7468 270.787 38.4712 268.318 42.1817 268.165L67.8231 267.098C70.5229 266.987 72.8628 268.942 73.2227 271.633C75.0226 285.03 79.37 323.864 73.3474 348.758H13.7712H13.7574Z" fill="#263238"/>
<path opacity="0.1" d="M13.7574 348.758C13.7574 348.758 8.70387 317.428 21.8569 307.928C21.8569 307.928 19.7662 301.354 30.3578 279.746C34.7468 270.787 38.4712 268.318 42.1817 268.165L67.8231 267.098C70.5229 266.987 72.8628 268.942 73.2227 271.633C75.0226 285.03 79.37 323.864 73.3474 348.758H13.7712H13.7574Z" fill="white"/>
<path d="M54.947 301.354C57.4807 301.451 59.4606 299.107 58.8791 296.639C57.6884 291.535 54.3655 284.073 45.0892 282.686C35.1483 281.202 28.8487 290.203 25.9274 295.862C24.889 297.887 26.3012 300.3 28.5857 300.383L54.947 301.354V301.354Z" fill="#263238"/>
<path d="M17.9387 315.778C18.5895 313.531 51.7211 314.863 53.9087 315.778C56.0963 316.693 53.4518 339.73 51.4858 341.935C49.5198 344.126 17.2049 342.67 14.7405 341.935C12.276 341.2 12.636 334.252 17.9387 315.778V315.778Z" fill="#263238"/>
<path opacity="0.2" d="M54.947 301.354C57.4807 301.451 59.4606 299.107 58.8791 296.639C57.6884 291.535 54.3655 284.073 45.0892 282.686C35.1483 281.202 28.8487 290.203 25.9274 295.862C24.889 297.887 26.3012 300.3 28.5857 300.383L54.947 301.354V301.354Z" fill="white"/>
<path opacity="0.2" d="M17.9387 315.778C18.5895 313.531 51.7211 314.863 53.9087 315.778C56.0963 316.693 53.4518 339.73 51.4858 341.935C49.5198 344.126 17.2049 342.67 14.7405 341.935C12.276 341.2 12.636 334.252 17.9387 315.778V315.778Z" fill="white"/>
<path d="M71.0628 324.155C71.0628 324.155 71.0074 324.155 70.9659 324.155C70.5921 324.1 70.3152 323.753 70.3705 323.378C72.1427 310.022 69.3322 277.513 68.7368 275.17C68.1692 272.867 66.7154 271.633 64.4448 271.48C61.5926 271.3 38.7895 271.48 38.568 271.48C38.1942 271.48 37.8757 271.175 37.8757 270.787C37.8757 270.399 38.1803 270.093 38.568 270.093C39.5095 270.093 61.648 269.913 64.5555 270.093C67.4215 270.274 69.3875 271.952 70.1075 274.823C70.6613 277.028 73.638 309.495 71.7689 323.545C71.7274 323.891 71.4228 324.141 71.0767 324.141L71.0628 324.155Z" fill="#263238"/>
<path d="M50.1427 320.868C50.1427 320.868 50.0458 320.868 50.0043 320.868C42.0294 319.259 19.0601 320.133 18.8386 320.147C18.4786 320.147 18.1325 319.869 18.1186 319.481C18.1048 319.092 18.3955 318.773 18.7832 318.76C19.7385 318.718 42.154 317.858 50.2812 319.509C50.655 319.578 50.9042 319.952 50.8211 320.327C50.7519 320.66 50.4611 320.882 50.1427 320.882V320.868Z" fill="#263238"/>
<path d="M56.6499 296.362C56.3592 296.362 56.0823 296.181 55.9853 295.876C54.4624 291.189 50.6688 283.45 42.3339 284.101C33.7914 284.795 30.1224 294.101 30.0947 294.184C29.9563 294.545 29.5548 294.725 29.1948 294.586C28.8348 294.448 28.6548 294.046 28.7933 293.685C28.9594 293.269 32.8084 283.463 42.2232 282.715C51.5133 281.938 55.6669 290.37 57.3006 295.446C57.4252 295.807 57.2176 296.195 56.8576 296.32C56.7884 296.348 56.7192 296.348 56.6499 296.348V296.362Z" fill="#263238"/>
</svg>
