<svg width="31" height="31" viewBox="0 0 31 31" fill="none" xmlns="http://www.w3.org/2000/svg">
<path d="M8.1406 23.9617L2.52222 28.3757V5.04459C2.52222 4.71011 2.65509 4.38934 2.8916 4.15283C3.12811 3.91632 3.44888 3.78345 3.78336 3.78345H26.4839C26.8184 3.78345 27.1391 3.91632 27.3756 4.15283C27.6122 4.38934 27.745 4.71011 27.745 5.04459V22.7006C27.745 23.035 27.6122 23.3558 27.3756 23.5923C27.1391 23.8288 26.8184 23.9617 26.4839 23.9617H8.1406ZM7.26789 21.4394H25.2227V6.30573H5.0445V23.1861L7.26789 21.4394ZM13.8725 12.6114H16.3948V15.1337H13.8725V12.6114ZM8.82792 12.6114H11.3502V15.1337H8.82792V12.6114ZM18.917 12.6114H21.4393V15.1337H18.917V12.6114Z" fill="#00A8A8"/>
</svg>
